<?xml version="1.0" standalone="no"?>
<!DOCTYPE svg PUBLIC "-//W3C//DTD SVG 1.1//EN" "http://www.w3.org/Graphics/SVG/1.1/DTD/svg11.dtd" >
<svg>
<metadata>
Created by FontForge 20090914 at Thu Feb 23 20:25:14 2012
 By root
Allen R. Walden's Friendly Fonts (Unprotected. Please distribute freely.)
</metadata>
<defs>
<font id="NeonLights" horiz-adv-x="2687" >
  <font-face 
    font-family="Neon Lights"
    font-weight="400"
    font-stretch="normal"
    units-per-em="4096"
    panose-1="2 0 0 0 0 0 0 0 0 0"
    ascent="3276"
    descent="-820"
    x-height="2728"
    cap-height="2798"
    bbox="-319 -1229 4207 3797"
    underline-thickness="50"
    underline-position="-75"
    unicode-range="U+0020-U+F002"
  />
<missing-glyph horiz-adv-x="3072" 
d="M512 0v2560h2048v-2560h-2048zM2496 64v2432h-1920v-2432h1920z" />
    <glyph glyph-name=".notdef" horiz-adv-x="3072" 
d="M512 0v2560h2048v-2560h-2048zM2496 64v2432h-1920v-2432h1920z" />
    <glyph glyph-name=".null" horiz-adv-x="0" 
 />
    <glyph glyph-name="nonmarkingreturn" horiz-adv-x="0" 
 />
    <glyph glyph-name="brokenbar" unicode="&#xa6;" horiz-adv-x="799" 
d="M168 233l8 2241q0 150 93 237t214 87q116 0 197.5 -79t81.5 -225v-2252q-3 -144 -89.5 -226t-201.5 -82q-118 0 -210.5 81.5t-92.5 217.5zM295 242q0 -84 51 -132.5t117 -48.5q68 0 118 47.5t50 133.5v2244q0 92 -49 140.5t-119 48.5q-68 0 -118 -51.5t-50 -145.5v-2236z
M586 2474v-2232q0 -108 -82 -140q-49 0 -49 21q0 24 32 37q50 8 50 102v2212q0 33 24 33q25 0 25 -33z" />
    <glyph glyph-name="twosuperior" unicode="&#xb2;" horiz-adv-x="1303" 
d="M729 2736q-43 12 -90 12q-193 -8 -209 -188q0 -73 -53 -82q-21 5 -21 12q0 13 13 13q41 20 41 73q8 103 70.5 156t150.5 53q60 0 114 -24q9 -7 9 -8q0 -17 -25 -17zM512 1946l393 430q53 59 53 168q0 125 -69 200q4 0 11.5 12.5t12.5 12.5q78 -82 78 -217
q0 -128 -61 -201l-393 -430q-9 -4 -21 -4t-12 8q0 3 8 21zM369 1761h630q33 0 50 37q6 17 12 17t11.5 -6.5t8.5 -10.5q-13 -61 -73 -61h-639q-25 0 -25 12t25 12zM352 1720h664q38 0 60 28.5t22 66.5q0 37 -23.5 63.5t-66.5 26.5h-447l389 430q70 82 70 209
q0 150 -104.5 263t-301.5 113q-137 -7 -244.5 -116t-107.5 -285q3 -26 34 -48t69 -22q84 0 106 127q8 72 56 110t112 38q34 0 66 -12q110 -53 110 -168q0 -56 -33 -95l-512 -561q-28 -34 -28 -78q0 -90 110 -90zM545 2519q-9 -65 -63 -104t-122 -39q-71 0 -122 45.5
t-54 130.5q0 128 67.5 231t171 159t208.5 56q227 -3 351 -139t124 -315q0 -165 -98 -271l-271 -291h279q82 0 129 -51t47 -121q0 -74 -49.5 -127t-134.5 -53h-639q-107 0 -160 55.5t-53 129.5q0 62 37 106l503 553q41 31 41 86q0 46 -49 74q-24 12 -49 12q-78 0 -94 -127z
" />
    <glyph glyph-name="threesuperior" unicode="&#xb3;" horiz-adv-x="1311" 
d="M922 2290q0 49 4 49q17 0 24 -29q21 -66 21 -123q0 -161 -107 -323q-62 -86 -147 -151.5t-160 -65.5q-40 0 -86 32q0 33 8 33t17 -8q26 -21 65 -21q66 0 146 65t133 140q94 126 94 291q0 55 -12 111zM487 2384q42 8 66 8q56 0 143 -25q21 -5 21 -16q0 -16 -21 -16
q-82 24 -135 24q-25 0 -65 -8q-33 8 -33 12q0 11 24 21zM770 2576l90 78.5t60.5 60.5t37.5 62q33 0 33 -16q-17 -48 -60 -87t-149 -114q-8 -8 -20 -8q-8 0 -8 4q0 9 16 20zM446 2753h267q28 0 28 -17q0 -16 -28 -16h-267q-32 0 -32 16q0 17 32 17zM688 2687l-278 -201
q-41 -30 -41 -69q0 -40 32.5 -73.5t53.5 -33.5q60 25 118 25q149 0 197 -119q16 -50 16 -78q0 -168 -217 -291q-73 -36 -108 -61.5t-35 -73.5q14 -90 131 -90q43 0 82 16q141 59 248.5 213t107.5 336q0 87 -20 148q-37 91 -193 200l160 119q82 57 82 135q0 115 -160 115
h-434q-61 0 -96 -33t-35 -78q0 -106 139 -106h250zM418 2601q-100 8 -154.5 65t-54.5 132t53.5 131.5t147.5 56.5h503q88 0 148.5 -56.5t60.5 -140.5q0 -143 -192 -262q151 -100 151 -344q0 -159 -84.5 -316t-251.5 -265q-95 -66 -213 -66q-177 0 -188 176q0 58 40.5 108
t102.5 76q79 35 148.5 101t69.5 133q0 8 -9 37t-54.5 51.5t-104.5 22.5q-53 -13 -95 -13q-105 0 -155 115q-13 32 -13 65q0 122 144 193z" />
    <glyph glyph-name="onesuperior" unicode="&#xb9;" horiz-adv-x="1024" 
d="M377 2281h-41q-61 0 -118.5 57.5t-57.5 131.5q0 76 57 139l311 344q60 66 136 66q80 0 142 -60t62 -141q0 -58 -45 -115l-86 -94q33 -33 33 -151v-721q0 -97 -58.5 -149t-138.5 -52q-77 0 -132.5 49t-55.5 135zM463 2359v-622q0 -54 32 -84.5t78 -30.5q44 0 75.5 30.5
t31.5 84.5v729q0 119 -57 143l122 144q33 38 33 77q0 45 -29 74t-73 29q-51 0 -90 -45l-316 -344q-24 -31 -24 -66q0 -46 30.5 -82.5t67.5 -36.5h119zM623 2466q0 16 8 16q16 0 16 -33v-720q0 -30 -19.5 -52t-41.5 -22q-17 9 -17 12q0 12 17 12q37 28 37 50v737zM463 2408
q4 0 12 -16q0 -8 -12 -8q-119 0 -144 16q-8 8 -8 21q0 12 17 12q32 -25 135 -25zM688 2777q25 0 25 -24l-127 -144q0 -13 4.5 -18t7.5 -6q0 -25 -20 -25q-50 24 -50 33z" />
    <glyph glyph-name="onequarter" unicode="&#xbc;" horiz-adv-x="2896" 
d="M2224 512q-30 12 -57 12q-48 0 -75.5 -37t-27.5 -77v-226q0 -38 32 -66t75 -28q62 0 102 53l353 455q12 18 12 41q0 50 -39 92.5t-105 42.5h-655l123 385q0 144 -94 144q-85 0 -115 -95l-143 -479q-21 -63 -21 -86q0 -82 148 -82h614l-61 -106q-12 22 -33 32v-69
q0 -21 -16 -21q-17 0 -17 21v94zM2568 672q-12 12 -12 24q0 9 12 9q20 0 33 -25q4 -8 4 -33q0 -35 -12 -53l-344 -451q-53 -38 -82 -41q-29 0 -45 17q-13 13 -13 16q0 17 33 17q12 -13 33 -13q30 0 41 29l352 446v58zM2351 614q25 0 25 -12q0 -11 -17 -16h-630q-7 0 -17 20
q0 8 8 8h631zM1786 807l110 352q7 25 25 25q8 0 8 -41l-106 -344q-12 -25 -17 -25q-20 0 -20 33zM2007 1040l-70 -192h70v192zM2273 807h25v487q0 115 -103 115q-46 0 -80 -33.5t-34 -93.5v-475h160v459q0 32 16 32t16 -32v-459zM1991 1335q59 160 213 160q78 0 133 -48.5
t55 -135.5v-447q25 8 74 8q139 -3 200.5 -67.5t61.5 -153.5q0 -67 -33 -114l-352 -455q-71 -90 -172 -90q-79 0 -138 55t-59 137v279h-262q-213 0 -213 180q0 73 29 164l135 434q48 160 192 160q83 0 136 -66zM1696 2593l-840 -2290q-31 -86 -111 -86q-28 6 -28 21
q0 24 45 24q43 0 61 90l832 2274q5 20 24 20q17 0 17 -53zM655 426q-28 -69 -28 -127q0 -66 32 -102.5t78 -36.5q48 0 95 42t73 117l824 2266q20 51 20 114q0 67 -29.5 107.5t-77.5 40.5q-98 0 -155 -160zM553 471l831 2257q44 123 117 184.5t154 61.5q85 0 147 -72.5
t62 -189.5q0 -86 -33 -177l-823 -2240q-94 -250 -287 -250q-87 0 -146 65.5t-59 176.5q0 80 37 184zM688 2810l-160 -184q0 -9 50 -33q20 0 20 24q-12 0 -12 25l127 143q0 25 -25 25zM463 2441q4 0 12 -16q0 -8 -12 -8q-119 0 -144 16q-8 8 -8 21q0 12 17 12q32 -25 135 -25
zM623 2494q0 21 8 21q16 0 16 -37v-717q0 -30 -19.5 -51.5t-41.5 -21.5q-17 9 -17 12q0 12 17 12q37 25 37 49v733zM463 2392v-623q0 -53 32 -83.5t78 -30.5q44 0 75.5 30.5t31.5 83.5v725q0 123 -57 148l122 143q33 39 33 78q0 43 -29 73t-73 30q-51 0 -90 -46l-316 -344
q-24 -30 -24 -69q0 -47 30 -81t68 -34h119zM377 2310h-41q-61 0 -118.5 58.5t-57.5 134.5q0 71 57 139l311 344q56 61 136 61q81 0 142.5 -58.5t61.5 -137.5q0 -58 -45 -115l-86 -94q33 -33 33 -156v-717q0 -95 -58 -147.5t-139 -52.5q-77 0 -132.5 49t-55.5 135z" />
    <glyph glyph-name="onehalf" unicode="&#xbd;" horiz-adv-x="2761" 
d="M639 2568q33 0 33 -8t-8 -16l-111 -127q0 -25 16 -25q0 -25 -24 -25q-41 22 -41 33zM438 2241v-17q-86 0 -127 8q-8 4 -8 13q0 12 16 12q33 -16 119 -16zM594 2281h12v-663q0 -25 -16.5 -45.5t-36.5 -20.5q-16 8 -16 9q0 11 16 16q41 20 41 41v663zM446 2191v-569
q0 -45 30 -73.5t69 -28.5q36 0 65 28t29 74v659q0 111 -53 127l110 136q25 29 25 69q-3 39 -26.5 66.5t-59.5 27.5q-48 0 -82 -45l-283 -311q-24 -24 -24 -57q0 -37 30 -70t60 -33h110zM369 2114h-41q-60 3 -112 55.5t-52 120.5q0 63 53 127l287 311q51 57 123 57t126 -54
t54 -126q0 -61 -37 -102l-82 -95q33 -24 33 -127v-659q0 -84 -52.5 -132t-123.5 -48q-72 0 -124 48t-52 128v496zM1622 2281l-774 -2097q-25 -73 -103 -73q-24 6 -24 20q0 37 41 37q32 0 61 57l770 2081q12 21 25 21q12 0 12 -17q0 -3 -8 -29zM672 295q-17 -43 -17 -90
q0 -61 31 -98t76 -37q100 0 151 139l742 2064q20 51 20 107q0 61 -28 96t-70 35q-91 0 -143 -144zM578 336l765 2064q42 112 108 169t138 57q80 0 136.5 -65t56.5 -173q0 -76 -29 -156l-762 -2056q-81 -221 -241 -221q-80 0 -138.5 68t-58.5 174q0 67 25 139zM1929 799
q-9 -65 -63.5 -104.5t-120.5 -39.5q-69 0 -121 46.5t-55 129.5q0 132 66 234.5t169.5 159.5t210.5 57q154 -1 261.5 -68.5t160.5 -173t53 -217.5q0 -166 -98 -270l-270 -291h278q84 0 130 -51.5t46 -124.5q0 -74 -48.5 -127t-135.5 -53h-639q-107 0 -160 55.5t-53 132.5
q0 63 37 107l504 553q37 37 37 82q0 49 -45 77q-25 13 -50 13q-77 0 -94 -127zM1737 -8h663q40 0 61 29t21 69t-22.5 67t-67.5 27h-446l389 430q69 83 69 209q0 152 -104 264.5t-301 112.5q-137 -7 -244.5 -116t-107.5 -285q3 -26 34 -48t68 -22q84 0 106 127
q10 73 57.5 110.5t110.5 37.5q32 0 66 -13q111 -47 111 -164q0 -57 -33 -98l-512 -561q-33 -39 -33 -82q0 -39 30.5 -66.5t84.5 -27.5zM1753 41h631q36 0 49 41q6 12 12 12t12 -4.5t9 -7.5q-13 -66 -74 -66h-639q-24 0 -24 13q0 12 24 12zM1896 225l394 430q53 59 53 172
q0 127 -70 197q4 0 12.5 12.5t12.5 12.5q78 -79 78 -218q0 -122 -66 -200l-389 -430q-8 -4 -20 -4q-13 0 -13 8q0 4 8 20zM2114 1016q-43 12 -91 12q-192 -8 -208 -188q0 -68 -54 -78q-20 5 -20 8q0 12 12 12q41 21 41 74q6 103 69.5 156t151.5 53q61 0 115 -25
q0 -24 -16 -24z" />
    <glyph glyph-name="threequarters" unicode="&#xbe;" horiz-adv-x="3138" 
d="M782 471l836 2257q45 121 116 181.5t150 60.5q90 0 151.5 -69.5t61.5 -188.5q0 -90 -33 -177l-831 -2240q-44 -122 -120.5 -186t-158.5 -64q-86 0 -147.5 67.5t-61.5 178.5q0 72 37 180zM881 426q-25 -72 -25 -127q0 -66 30 -102.5t77 -36.5q110 0 172 159l827 2266
q20 51 20 110q0 69 -31 110.5t-79 41.5q-103 0 -160 -160zM1929 2593l-839 -2290q-48 -86 -115 -86q-29 6 -29 21q0 24 45 24q29 0 66 90l831 2274q5 20 25 20q16 0 16 -53zM2224 1335q59 160 209 160q75 0 129.5 -48.5t54.5 -135.5v-447q25 8 70 8q141 -3 205.5 -68
t64.5 -153q0 -72 -37 -114l-344 -455q-71 -90 -172 -90q-78 0 -137 55t-59 137v279h-262q-217 0 -217 172q0 60 32 172l135 434q48 160 193 160q82 0 135 -66zM2503 807h24v487q0 56 -29.5 85.5t-72.5 29.5q-47 0 -81 -33.5t-34 -93.5v-475h156v459q0 32 20 32q17 0 17 -32
v-459zM2232 1040l-65 -192h65v192zM2015 807l115 352q4 0 10 -8t10 -8l-102 -344q-12 -25 -16 -25q-17 0 -17 33zM2585 614q20 0 20 -12q0 -9 -20 -16h-631q-17 0 -17 16q0 12 17 12h631zM2793 672q0 33 5 33q19 0 32 -25q4 -8 4 -33q0 -35 -12 -53l-344 -451
q-35 -35 -82 -41q-29 0 -45 17q-12 6 -12 16q0 17 37 17q12 -13 28 -13q23 0 45 29l344 446q13 13 13 29q0 17 -13 29zM2458 512q-31 12 -58 12q-50 0 -76 -36t-26 -78v-226q0 -39 30.5 -66.5t71.5 -27.5q61 0 103 53l344 455q12 18 12 49q0 49 -35 88t-96 39h-664l119 385
q8 34 8 45q0 45 -29.5 72t-68.5 27q-87 0 -111 -95l-143 -479q-24 -72 -24 -86q0 -82 151 -82h619l-74 -106q0 20 -25 32v-69q0 -21 -12 -21q-16 0 -16 21v94zM393 2634q-100 6 -154.5 62.5t-54.5 129.5q0 74 54 131.5t147 57.5h504q88 0 148.5 -55t60.5 -138
q0 -143 -193 -262q152 -101 152 -344q0 -160 -84 -317t-252 -269q-98 -61 -209 -61q-181 0 -193 176q0 56 42 107.5t102 76.5q78 31 147.5 97t69.5 137q0 11 -8 37q-9 28 -53 50.5t-107 22.5q-55 -12 -94 -12q-105 0 -156 115q-12 30 -12 65q0 121 143 193zM664 2720
l-279 -201q-41 -31 -41 -70q0 -35 33.5 -70.5t52.5 -35.5q61 24 119 24q150 0 196 -118q17 -47 17 -78q0 -83 -59 -160.5t-158 -130.5q-64 -32 -104 -60.5t-40 -74.5q11 -41 47 -67.5t84 -26.5q35 0 82 20q142 59 249.5 213t107.5 336q0 86 -21 147q-19 56 -56 91t-132 110
l160 119q77 58 77 135q0 115 -159 115h-430q-62 0 -99 -34.5t-37 -76.5q0 -44 37.5 -75t106.5 -31h246zM426 2785h262q29 0 29 -16t-29 -16h-262q-37 0 -37 16t37 16zM745 2609l80 69t71.5 68t41.5 64q29 0 29 -17q-17 -45 -59 -84t-146 -116q-8 -8 -21 -8q-12 0 -12 4
q0 9 16 20zM463 2417q40 8 65 8q57 0 144 -25q20 -5 20 -16q0 -17 -20 -17q-79 25 -135 25q-24 0 -66 -8q-33 8 -33 12q0 8 25 21zM897 2318q0 54 4 54q14 0 29 -29q16 -49 16 -119q0 -173 -106 -328q-57 -82 -145 -149.5t-163 -67.5q-38 0 -86 33q0 33 9 33q8 0 16 -8
q31 -25 66 -25q68 0 148 66.5t130 142.5q98 130 98 287q0 61 -16 110z" />
    <glyph glyph-name="Eth" unicode="&#xd0;" horiz-adv-x="3056" 
d="M430 2527q0 109 110.5 216t241.5 145q189 57 410 57q181 0 357 -42.5t336.5 -123.5t289.5 -194q262 -242 262 -492q0 -81 -20 -147q188 -109 188 -500q0 -92 -12 -197q-24 -203 -79.5 -396.5t-206.5 -399.5t-454 -352.5t-772 -157.5q-281 0 -480.5 91.5t-199.5 342.5v581
q-249 0 -378 108t-129 261q0 105 60.5 199t182.5 152.5t293 58.5v790zM614 2478v-926h-262q-135 0 -208.5 -62t-73.5 -147q0 -84 67 -146t182 -62h267v-734q0 -131 133.5 -206.5t279.5 -75.5q400 0 703.5 121.5t488.5 383.5t217 662q5 33 5 107q0 179 -52.5 308.5
t-185.5 129.5q-100 -19 -142 -90t-42 -262q0 -213 -57 -431.5t-210 -377t-413 -158.5q-271 0 -271 344v279h185q92 0 150.5 69t58.5 156q0 81 -52.5 136.5t-156.5 55.5h-193v439q0 344 352 344q140 -6 273 -95.5t231 -232.5q100 -143 152 -143q8 0 24 8q37 28 90 34.5
t70 14.5q53 26 53 111q0 102 -83.5 233.5t-256.5 253.5q-309 225 -819 225q-66 0 -196 -8q-97 -6 -202.5 -88t-105.5 -170zM897 1110q0 41 41 41q37 0 37 -45v-361q0 -68 33 -122q0 -70 -33 -70q-28 0 -45 41q-33 72 -33 168v348zM1241 1200h-889q-24 0 -24 29q0 37 24 37
h865q86 0 86 77q5 54 24 54q32 0 41 -45q0 -152 -127 -152zM983 1602q0 -37 -33 -37q-16 0 -30.5 10.5t-14.5 26.5l-8 454q0 118 59.5 215.5t161 154t221.5 56.5q30 0 86 -8q45 -11 45 -45q0 -37 -28 -37q-41 8 -193 8q-121 -35 -197.5 -133t-76.5 -203zM2327 1630
q32 -138 32 -270q0 -253 -100.5 -494.5t-276.5 -402.5q-150 -139 -397.5 -219t-478.5 -80q-202 0 -324 61q-57 37 -57 58q0 12 20 12q25 0 46 -8q164 -45 331 -45q365 0 701 188q147 82 252.5 237.5t158 346t52.5 383.5q0 95 -21 225q6 61 29 61q20 0 33 -53zM2081 2343
q147 -147 147 -291q0 -38 -12 -70q-6 -28 -33 -28q-33 0 -33 33q0 12 8.5 20t8.5 41q0 53 -35.5 125.5t-91.5 116.5q-25 18 -25 45q0 28 25 28q20 0 41 -20zM1864 1786q-56 19 -111.5 89.5l-115 147t-117.5 99.5q-102 41 -164 41q-131 0 -131 -172v-262q183 0 284 -108.5
t101 -260.5q0 -160 -104 -281t-289 -121v-118q0 -152 151 -152q141 25 287 163t151 443q0 31 -2 97t-2 100q0 233 62 295z" />
    <glyph glyph-name="Yacute" unicode="&#xdd;" horiz-adv-x="2519" 
d="M598 377q-25 -58 -25 -103q0 -81 63 -134.5t142 -53.5q130 0 189 123l995 2040q16 32 16 86q-4 94 -57 163.5t-160 69.5h-1503q-93 0 -161 -70.5t-68 -142.5q0 -31 12 -49l639 -1216q59 -107 172 -107q78 0 141.5 55t63.5 138q0 49 -25 98l-434 848q0 37 25 37h802
q25 0 25 -45l-360 -754q0 -33 8 -49q37 -63 37 -127q0 -100 -76 -180t-195 -99zM856 1982l184 -344l152 344h-336zM647 864q-30 0 -122 162t-300 558l-336 624q-32 66 -32 139q0 93 45 181t133 144t207 56h1487q210 0 309.5 -116.5t99.5 -276.5q0 -97 -33 -168l-995 -2032
q-48 -100 -136 -150.5t-188 -50.5q-149 0 -260.5 93t-111.5 243q0 84 41 176zM127 2249q-12 18 -12 32q0 29 24 29q25 0 45 -37l590 -1122q25 -53 115 -53q37 0 37 -21q0 -26 -37 -45q-24 -8 -37 -8q-73 0 -131 82zM606 2216q-49 0 -49 37q0 28 41 28h856q45 0 45 -32
q0 -33 -45 -33h-848zM1847 2474q32 -6 57 -40t25 -75q0 -28 -8 -41l-999 -2101q-16 -26 -63 -45.5t-97 -19.5q-37 12 -37 41q0 16 57 16q61 0 90 53l1000 2065q0 85 -41 106q-16 0 -16 21q0 20 32 20zM717 3334l311 328q95 106 225 106q107 0 185 -75t78 -179
q0 -100 -82 -188l-344 -369q-69 -73 -172 -73q-108 0 -197.5 79t-89.5 183q0 103 86 188zM827 3232q-32 -33 -32 -82q3 -46 33.5 -76.5t76.5 -30.5q51 0 90 45l320 328q37 38 37 86q0 47 -34 79t-77 32q-39 0 -78 -37zM954 3183l267 270q32 40 32 57q0 15 -12 33q0 37 29 37
q21 0 37 -21q12 -18 12 -53t-12 -53l-303 -311q-19 -25 -37 -25q-25 0 -25 29q0 23 12 37z" />
    <glyph glyph-name="Thorn" unicode="&#xde;" horiz-adv-x="1921" 
d="M82 1200q-74 41 -74 279v1679q0 193 107.5 301.5t257.5 108.5q94 0 177.5 -48.5t135 -143t51.5 -230.5v-353h185q296 0 492.5 -137t288 -364t91.5 -494q-8 -204 -117 -417.5t-308.5 -370t-463.5 -203.5q-176 -29 -176 -213l-8 -184q0 -193 -115.5 -303.5t-269.5 -110.5
q-143 0 -247.5 102t-104.5 287v573q0 71 29 151t69 91zM1090 2224q-75 61 -234 66q-97 0 -192 -17q-68 -11 -110 -76.5t-42 -123.5v-553q0 -88 -42 -149t-77 -68q-41 0 -41 24q0 21 25 33q33 11 55.5 52t22.5 75v1626q0 70 28 70q29 0 29 -62v-872q22 51 127 72.5t176 21.5
q17 0 49 2t45 2q128 0 217 -90q9 -4 9 -16q0 -29 -25 -29q-8 0 -20 12zM385 258q-41 7 -41 25q0 25 49 36q37 17 37 168q0 282 100.5 422.5t300.5 180.5q186 34 333 146.5t229 281.5t82 366q0 133 -33 246q0 57 16 57q33 0 45 -37q45 -139 45 -290q0 -214 -96 -390.5
t-256 -292.5t-348 -161q-109 -29 -171.5 -59.5t-117.5 -133.5t-55 -303q0 -111 -21 -185t-98 -77zM754 2032v-504q144 62 203 135.5t59 241.5q0 81 -61 104t-201 23zM168 1442q0 -138 58.5 -216.5t138.5 -78.5q82 0 143 83t61 232v492q0 137 30 196t76 72t148 19
q369 0 369 -394q-12 -176 -97.5 -295t-287.5 -225q-126 -121 -226 -193.5t-212 -72.5q-71 0 -144 49q-73 -29 -73 -328q-5 -65 -5 -176q0 -208 30.5 -298t101.5 -99q54 -12 94 -12q106 0 147 82t41 290q0 167 57.5 267t204.5 131q258 54 432 193.5t258 326.5t84 385
q0 173 -61 319q-97 239 -283.5 339t-560.5 100q-18 0 -59 -2t-64 -2v528q0 126 -57.5 192t-138.5 66q-84 0 -144.5 -68.5t-60.5 -185.5v-1716z" />
    <glyph glyph-name="eth" unicode="&#xf0;" horiz-adv-x="3056" 
d="M430 2527q0 109 110.5 216t241.5 145q189 57 410 57q181 0 357 -42.5t336.5 -123.5t289.5 -194q262 -242 262 -492q0 -81 -20 -147q188 -109 188 -500q0 -92 -12 -197q-24 -203 -79.5 -396.5t-206.5 -399.5t-454 -352.5t-772 -157.5q-281 0 -480.5 91.5t-199.5 342.5v581
q-249 0 -378 108t-129 261q0 105 60.5 199t182.5 152.5t293 58.5v790zM614 2478v-926h-262q-135 0 -208.5 -62t-73.5 -147q0 -84 67 -146t182 -62h267v-734q0 -131 133.5 -206.5t279.5 -75.5q400 0 703.5 121.5t488.5 383.5t217 662q5 33 5 107q0 179 -52.5 308.5
t-185.5 129.5q-100 -19 -142 -90t-42 -262q0 -213 -57 -431.5t-210 -377t-413 -158.5q-271 0 -271 344v279h185q92 0 150.5 69t58.5 156q0 81 -52.5 136.5t-156.5 55.5h-193v439q0 344 352 344q140 -6 273 -95.5t231 -232.5q100 -143 152 -143q8 0 24 8q37 28 90 34.5
t70 14.5q53 26 53 111q0 102 -83.5 233.5t-256.5 253.5q-309 225 -819 225q-66 0 -196 -8q-97 -6 -202.5 -88t-105.5 -170zM897 1110q0 41 41 41q37 0 37 -45v-361q0 -68 33 -122q0 -70 -33 -70q-28 0 -45 41q-33 72 -33 168v348zM1241 1200h-889q-24 0 -24 29q0 37 24 37
h865q86 0 86 77q5 54 24 54q32 0 41 -45q0 -152 -127 -152zM983 1602q0 -37 -33 -37q-16 0 -30.5 10.5t-14.5 26.5l-8 454q0 118 59.5 215.5t161 154t221.5 56.5q30 0 86 -8q45 -11 45 -45q0 -37 -28 -37q-41 8 -193 8q-121 -35 -197.5 -133t-76.5 -203zM2327 1630
q32 -138 32 -270q0 -253 -100.5 -494.5t-276.5 -402.5q-150 -139 -397.5 -219t-478.5 -80q-202 0 -324 61q-57 37 -57 58q0 12 20 12q25 0 46 -8q164 -45 331 -45q365 0 701 188q147 82 252.5 237.5t158 346t52.5 383.5q0 95 -21 225q6 61 29 61q20 0 33 -53zM2081 2343
q147 -147 147 -291q0 -38 -12 -70q-6 -28 -33 -28q-33 0 -33 33q0 12 8.5 20t8.5 41q0 53 -35.5 125.5t-91.5 116.5q-25 18 -25 45q0 28 25 28q20 0 41 -20zM1864 1786q-56 19 -111.5 89.5l-115 147t-117.5 99.5q-102 41 -164 41q-131 0 -131 -172v-262q183 0 284 -108.5
t101 -260.5q0 -160 -104 -281t-289 -121v-118q0 -152 151 -152q141 25 287 163t151 443q0 31 -2 97t-2 100q0 233 62 295z" />
    <glyph glyph-name="yacute" unicode="&#xfd;" horiz-adv-x="2519" 
d="M598 377q-25 -58 -25 -103q0 -81 63 -134.5t142 -53.5q130 0 189 123l995 2040q16 32 16 86q-4 94 -57 163.5t-160 69.5h-1503q-93 0 -161 -70.5t-68 -142.5q0 -31 12 -49l639 -1216q59 -107 172 -107q78 0 141.5 55t63.5 138q0 49 -25 98l-434 848q0 37 25 37h802
q25 0 25 -45l-360 -754q0 -33 8 -49q37 -63 37 -127q0 -100 -76 -180t-195 -99zM856 1982l184 -344l152 344h-336zM647 864q-30 0 -122 162t-300 558l-336 624q-32 66 -32 139q0 93 45 181t133 144t207 56h1487q210 0 309.5 -116.5t99.5 -276.5q0 -97 -33 -168l-995 -2032
q-48 -100 -136 -150.5t-188 -50.5q-149 0 -260.5 93t-111.5 243q0 84 41 176zM127 2249q-12 18 -12 32q0 29 24 29q25 0 45 -37l590 -1122q25 -53 115 -53q37 0 37 -21q0 -26 -37 -45q-24 -8 -37 -8q-73 0 -131 82zM606 2216q-49 0 -49 37q0 28 41 28h856q45 0 45 -32
q0 -33 -45 -33h-848zM1847 2474q32 -6 57 -40t25 -75q0 -28 -8 -41l-999 -2101q-16 -26 -63 -45.5t-97 -19.5q-37 12 -37 41q0 16 57 16q61 0 90 53l1000 2065q0 85 -41 106q-16 0 -16 21q0 20 32 20zM770 3342l311 328q95 106 225 106q107 0 185 -75t78 -178
q0 -100 -82 -189l-344 -369q-69 -73 -172 -73q-108 0 -197.5 79t-89.5 183q0 103 86 188zM880 3240q-32 -33 -32 -82q3 -44 34.5 -75.5t75.5 -31.5q51 0 90 46l320 327q37 37 37 86q0 47 -34 79t-77 32q-41 0 -78 -37zM1007 3191l267 270q32 40 32 57q0 15 -12 33
q0 37 29 37q21 0 37 -20q12 -19 12 -54t-12 -53l-303 -311q-19 -25 -37 -25q-25 0 -25 29q0 25 12 37z" />
    <glyph glyph-name="thorn" unicode="&#xfe;" horiz-adv-x="1921" 
d="M82 1200q-74 41 -74 279v1679q0 193 107.5 301.5t257.5 108.5q94 0 177.5 -48.5t135 -143t51.5 -230.5v-353h185q296 0 492.5 -137t288 -364t91.5 -494q-8 -204 -117 -417.5t-308.5 -370t-463.5 -203.5q-176 -29 -176 -213l-8 -184q0 -193 -115.5 -303.5t-269.5 -110.5
q-143 0 -247.5 102t-104.5 287v573q0 71 29 151t69 91zM1090 2224q-75 61 -234 66q-97 0 -192 -17q-68 -11 -110 -76.5t-42 -123.5v-553q0 -88 -42 -149t-77 -68q-41 0 -41 24q0 21 25 33q33 11 55.5 52t22.5 75v1626q0 70 28 70q29 0 29 -62v-872q22 51 127 72.5t176 21.5
q17 0 49 2t45 2q128 0 217 -90q9 -4 9 -16q0 -29 -25 -29q-8 0 -20 12zM385 258q-41 7 -41 25q0 25 49 36q37 17 37 168q0 282 100.5 422.5t300.5 180.5q186 34 333 146.5t229 281.5t82 366q0 133 -33 246q0 57 16 57q33 0 45 -37q45 -139 45 -290q0 -214 -96 -390.5
t-256 -292.5t-348 -161q-109 -29 -171.5 -59.5t-117.5 -133.5t-55 -303q0 -111 -21 -185t-98 -77zM754 2032v-504q144 62 203 135.5t59 241.5q0 81 -61 104t-201 23zM168 1442q0 -138 58.5 -216.5t138.5 -78.5q82 0 143 83t61 232v492q0 137 30 196t76 72t148 19
q369 0 369 -394q-12 -176 -97.5 -295t-287.5 -225q-126 -121 -226 -193.5t-212 -72.5q-71 0 -144 49q-73 -29 -73 -328q-5 -65 -5 -176q0 -208 30.5 -298t101.5 -99q54 -12 94 -12q106 0 147 82t41 290q0 167 57.5 267t204.5 131q258 54 432 193.5t258 326.5t84 385
q0 173 -61 319q-97 239 -283.5 339t-560.5 100q-18 0 -59 -2t-64 -2v528q0 126 -57.5 192t-138.5 66q-84 0 -144.5 -68.5t-60.5 -185.5v-1716z" />
    <glyph glyph-name="space" unicode=" " horiz-adv-x="1454" 
 />
    <glyph glyph-name="exclam" unicode="!" horiz-adv-x="1454" 
d="M-8 1159v1249q0 191 114 296.5t271 105.5q102 0 189 -45.5t141.5 -135.5t54.5 -221l-8 -1249q124 -39 217.5 -184t93.5 -361q0 -174 -78 -330.5t-231.5 -253t-370.5 -96.5q-247 0 -405.5 114t-228.5 271.5t-70 294.5q0 399 311 545zM168 2425v-1360q-150 -51 -235 -182.5
t-85 -259.5q0 -214 150.5 -363.5t378.5 -157.5q128 1 247 68.5t192 181t73 246.5q0 160 -107 307q-39 61 -115 98t-155 37q-143 0 -201 -110q-24 -37 -24 -82q0 -85 114 -176q41 -35 41 -78q0 -33 -27.5 -57.5t-62.5 -24.5q-90 0 -90 78q0 33 17 49q8 8 8 12q0 21 -25 21
q-4 0 -12 -8q-29 -29 -29 -70q0 -39 29 -90q0 -41 -29 -41q-17 0 -28 16q-37 49 -37 107q0 117 94 159q-29 36 -29 91q0 90 68.5 174.5t181.5 95.5v1278q0 61 33 61q24 0 24 -53v-1241q0 -41 33 -41t33 41v1257q0 107 -62 164.5t-147 57.5q-89 0 -153 -56t-64 -149zM287 242
q46 -13 90 -13q99 0 181 55t128.5 145t46.5 185q0 137 -86 234q-8 8 -8 20q0 33 37 33q21 0 37 -20q98 -128 98 -283q0 -174 -125 -304t-305 -130q-54 0 -102 12q-37 12 -37 37q0 29 45 29z" />
    <glyph glyph-name="quotedbl" unicode="&#x22;" horiz-adv-x="1495" 
d="M119 1913v590q0 139 83 217t195 78q114 0 198.5 -80.5t84.5 -223.5v-581q0 -147 -83 -229t-196 -82q-115 0 -198.5 82t-83.5 229zM262 1921q0 -75 42.5 -121.5t96.5 -46.5t90.5 43t36.5 125v573q0 79 -38 119.5t-93 40.5t-95 -38t-40 -105v-590zM487 2486v-565
q0 -127 -77 -127q-41 0 -41 25q0 20 24 20q45 0 45 98v549q0 41 25 41q24 0 24 -41zM872 1905v598q0 136 82.5 211t196.5 75t198.5 -78t84.5 -217v-581q0 -149 -85.5 -234.5t-197.5 -85.5t-195.5 82.5t-83.5 229.5zM1016 1913q0 -76 40 -120t95 -44t93 44.5t38 127.5v573
q0 77 -38.5 118.5t-92.5 41.5t-94.5 -40t-40.5 -111v-590zM1249 2486v-573q0 -117 -90 -127q-41 0 -41 24q0 21 25 21q49 0 49 98v557q0 41 29 41q28 0 28 -41z" />
    <glyph glyph-name="numbersign" unicode="#" horiz-adv-x="3224" 
d="M2150 721v1077h-1052v-1077h1052zM2150 680h-1052v-455q0 -93 -74 -114q-45 0 -45 16q0 18 29 25q49 16 49 110v418h-639q-29 0 -29 20q0 21 21 21h647v1077h-631q-33 0 -33 21q0 20 37 20h627v619q0 41 16 41q7 0 16 -14t9 -27v-619h1052v619q0 24 25 24q16 0 16 -16
v-627h488q65 0 82 41q10 21 24 21q25 0 25 -37q-19 -66 -131 -66h-488v-1077h463q82 0 99 41q5 20 16 20q24 0 24 -28q-31 -74 -122 -74h-480v-471q0 -80 -61 -98q-37 0 -37 12q0 17 29 29q28 16 28 90v438zM1954 1745v-803h-803v803h803zM1954 2048h-803v438
q0 89 -46.5 134.5t-113.5 45.5q-65 0 -112.5 -45.5t-47.5 -126.5v-446h-405q-90 0 -139 -44.5t-49 -107.5q0 -59 49 -105t131 -46h413v-803h-421q-79 0 -125.5 -44t-46.5 -103q0 -67 55.5 -115.5t152.5 -48.5h385v-398q0 -78 52 -125t116 -47q62 0 107 42.5t45 121.5v406
h803v-398q0 -77 45.5 -122t105.5 -45t102 41t42 118v406h413q81 0 124.5 43.5t43.5 103.5q0 66 -45 115t-123 49h-405v803h438q73 0 112.5 42t39.5 101q0 64 -42 110.5t-118 49.5h-438l8 430q0 83 -43.5 125.5t-104.5 42.5q-62 0 -108.5 -44.5t-46.5 -123.5v-430zM1823 504
h-549v-279q0 -134 -90 -212.5t-205 -78.5q-112 0 -193 73.5t-81 209.5v295h-312q-132 0 -207 85.5t-75 201.5q0 113 75 197.5t207 84.5h312v537h-304q-135 0 -212.5 81.5t-77.5 192.5q0 114 83.5 198.5t235.5 84.5h275v319q0 145 83 224.5t199 79.5q115 0 201 -80t86 -224
v-319h549v319q0 141 82 220t196 79q115 0 199 -80t84 -219v-319h303q133 0 208 -83t75 -196q0 -112 -75 -195t-208 -83h-303v-553h295q133 0 210 -85t77 -198q0 -114 -76.5 -196t-218.5 -82h-287v-295q0 -130 -85 -206.5t-198 -76.5t-195.5 76t-82.5 215v287zM1274 1618
v-553h549v553h-549z" />
    <glyph glyph-name="dollar" unicode="$" horiz-adv-x="1921" 
d="M553 2441v78q0 133 90 206t213 73q115 0 199.5 -63.5t87.5 -174.5v-94q162 -49 247 -138t85 -198q0 -57 -25 -115q-83 -172 -258 -172q-135 0 -270 86q-17 13 -62 13q-86 0 -86 -58q0 -47 90 -98q46 -32 312 -123q476 -187 487 -655q0 -257 -169 -455.5t-388 -273.5
q0 -157 -97 -255t-218 -98q-119 0 -207 100.5t-88 260.5q-146 39 -258 137t-173 223.5t-61 241.5q0 179 131 262q92 57 184 57q197 0 275 -225q58 -168 229 -168q114 0 168 74q37 43 37 90q0 135 -266 221q-270 80 -434 272.5t-164 415.5q0 160 97.5 305.5t291.5 247.5z
M631 393v-143q0 -85 46 -132.5t109 -47.5q69 0 120.5 49t51.5 131v143q227 48 372 192t173 287q21 81 21 156q0 401 -709 619q-176 62 -176 221q0 84 58 150.5t147 66.5q59 0 114 -29q156 -74 238 -74q107 0 131 107q0 113 -88 183.5t-223 86.5l-8 115q-3 95 -50 143.5
t-114 48.5q-64 0 -110 -49t-46 -139v-119q-186 -75 -285.5 -202t-99.5 -273q0 -116 65 -229.5t194.5 -207t318.5 -153.5q109 -27 204 -105.5t95 -197.5q0 -61 -37 -143q-35 -72 -132.5 -120t-203.5 -48q-116 0 -208.5 61.5t-127.5 188.5q-17 65 -64.5 100t-107.5 35
q-147 0 -147 -225q34 -173 153.5 -293.5t325.5 -153.5zM999 2318q0 -20 -49 -20q-28 28 -28 53q0 20 -4.5 45.5t-4.5 40.5q0 10 9 37q7 29 24 29q21 0 21 -45v-58q0 -49 32 -82zM1233 2097q6 12 16 12q25 -6 25 -45q-32 -41 -98 -41q-61 0 -127 33q-96 53 -201 53
q-106 -3 -174 -65t-80 -156q0 -37 -29 -37q-28 0 -28 45q9 123 100.5 197t218.5 74q104 0 201 -53q15 -4 40 -14t46 -16.5t41 -6.5q39 0 49 20zM479 1569q-16 16 -16 33q0 28 24 28q9 0 17 -8q74 -84 177.5 -136.5t285.5 -125.5q20 -10 20 -25q0 -24 -49 -24
q-301 95 -459 258zM1257 1360q-12 6 -12 16q0 21 21 21q16 0 28 -13q181 -157 181 -368q0 -134 -67.5 -257.5t-182 -212t-242.5 -116.5q-43 -3 -52 -15.5t-9 -54.5q0 -117 -15.5 -163.5t-83.5 -69.5q-15 0 -28 9t-13 20q0 15 17 20q42 6 53.5 43.5t11.5 140.5q0 61 16 85.5
t87 41.5q211 44 337 198t126 331q0 215 -173 344zM545 664q-142 82 -176 266q-12 37 -66 37q-16 0 -16 16q0 22 32 33q26 0 59.5 -19.5t39.5 -38.5q43 -182 160 -245q8 -8 8 -25q0 -24 -41 -24z" />
    <glyph glyph-name="percent" unicode="%" horiz-adv-x="3777" 
d="M958 393l1049 2200q47 103 124 154t167 51q117 0 206 -83t89 -212q0 -79 -41 -168l-1041 -2192q-97 -196 -282 -196q-121 0 -214 86.5t-93 212.5q0 67 36 147zM1090 352q-25 -54 -25 -106q0 -70 46 -115t110 -45q108 0 172 123l1024 2175q28 57 28 115q0 72 -45 119.5
t-106 47.5q-109 0 -172 -139zM2376 2392l-1033 -2175q-35 -90 -135 -90q-37 6 -37 25q0 32 54 32q50 0 86 78l1016 2155q6 24 28 24q21 0 21 -49zM3006 799q-7 1 -49 21.5t-86 34t-94 13.5q-83 -7 -143 -53q-94 -71 -94 -180q0 -131 102 -205q61 -45 139 -45q91 0 172 70
q90 73 90 176q0 46 -18.5 102.5t-18.5 65.5zM1040 2273q-8 1 -49.5 21t-89 34.5t-98.5 14.5q-78 0 -139 -45q-91 -73 -91 -180q0 -130 99 -205q70 -53 147 -53q89 0 164 69q90 80 90 180q0 46 -16.5 101.5t-16.5 62.5zM3015 930q30 -21 65 -21q37 0 61.5 25.5t24.5 60.5
q0 39 -37 70q-158 106 -336 106q-160 0 -294 -79t-193 -203q-74 -156 -74 -291q0 -150 80 -273t210 -191t271 -68q96 0 177 28q133 53 218 137t124 184.5t39 207.5q0 193 -103 315q-8 8 -37 8q-28 0 -37 -8q-7 -7 -18.5 -23.5t-26.5 -25.5q-12 -4 -12 -25q0 -41 21 -73
q40 -83 40 -168q0 -103 -59 -191t-153.5 -139t-192.5 -51q-57 0 -119 20q-106 46 -178 146t-72 215q0 157 131 282q100 94 250 94q126 0 230 -69zM1049 2400q33 -20 61 -20q36 0 61 27.5t25 62.5q0 41 -37 65q-157 111 -336 111q-159 0 -293 -81t-194 -206
q-70 -140 -70 -282q0 -152 78 -274.5t206.5 -190.5t268.5 -68q90 0 180 33q198 71 291.5 212t93.5 308q0 192 -102 311q-1 0 -16.5 7t-28.5 10q-20 0 -29 -8q-7 -9 -14.5 -21.5t-14.5 -19t-20 -9.5q-12 -4 -12 -28q0 -39 20 -74q41 -81 41 -172q0 -156 -120 -264.5
t-273 -108.5q-63 0 -127 25q-105 39 -177.5 135.5t-72.5 212.5q0 156 140 283q94 94 241 94q124 0 230 -70zM3105 958q-11 -16 -37 -16q-13 0 -37 8q-124 78 -250 78q-207 0 -332 -172q-69 -103 -69 -233q0 -199 155 -320q9 -4 9 -12q-6 -12 -41 -12q-156 121 -156 339
q0 158 78 263q130 176 377 176q123 0 237 -66q9 0 25 -8q8 0 16 8q25 0 25 -33zM1135 2441q-13 -28 -37 -28q-21 0 -33 12q-127 78 -254 78q-208 0 -324 -176q-69 -95 -69 -230q0 -197 160 -311q0 -41 -21 -41q-4 0 -20 8q-160 124 -160 340q0 155 78 258q136 184 376 184
q132 0 242 -69q9 0 25 -8q8 0 12 8q25 0 25 -25zM2634 160q84 -25 164 -25q136 0 249 64.5t177.5 175t64.5 239.5q0 110 -49 226q0 37 12 37q18 0 29 -21q57 -114 57 -225q0 -135 -70.5 -258.5t-195.5 -199t-274 -75.5q-95 0 -181 29q-20 5 -20 20q0 13 37 13zM664 1638
q107 -28 172 -28q139 0 249.5 65t174 177.5t63.5 240.5q0 107 -49 217q0 37 8 37q19 0 29 -20q57 -108 57 -222q0 -134 -70.5 -257.5t-195.5 -199t-275 -75.5q-94 0 -180 29q-16 5 -16 12q0 24 33 24zM3273 1065q57 0 115.5 -100t84.5 -228q9 -58 9 -102
q0 -180 -96.5 -342.5t-259.5 -260.5t-353 -98q-173 0 -348 91q-159 84 -249.5 248.5t-90.5 353.5q0 224 132 407.5t392 259.5q59 17 152 17q118 0 232.5 -32.5t192 -88.5t87.5 -125zM1303 2535q64 0 123 -94.5t85 -224.5q9 -67 9 -107q0 -178 -95.5 -340t-257.5 -261
t-352 -99q-180 0 -352 94q-159 89 -249.5 254t-90.5 352q0 225 132.5 406t391.5 254q82 20 156 20q180 0 335.5 -74.5t164.5 -179.5z" />
    <glyph glyph-name="ampersand" unicode="&#x26;" horiz-adv-x="3342" 
d="M1294 2040q-79 49 -123 49q-57 0 -57 -61q0 -56 45 -107q26 -31 135 -201q132 104 328 152q156 38 242 168q132 184 311 184q182 0 274 -160q66 -107 66 -213q0 -163 -123 -313t-295 -252q45 -152 45 -295q0 -171 -55 -327.5t-151.5 -286.5t-222.5 -220.5t-271 -131.5
q-180 -50 -348 -50q-299 0 -551 140t-397.5 374t-145.5 498q0 208 96.5 413.5t296.5 385.5q-37 98 -37 233q0 148 51 291.5t138 233.5q123 129 280 191.5t326 62.5q140 0 268 -40t219.5 -113.5t130.5 -170.5q25 -60 25 -131q0 -140 -90 -248t-225 -108q-90 0 -185 53z
M1217 1434q-37 -62 -108.5 -89.5l-149 -56.5t-128.5 -96q-57 -72 -57 -176q0 -95 57 -178t136 -117q37 -16 98 -16q100 0 186 54t117 154q21 79 21 115q0 56 -20 94.5t-61 89.5t-64 98.5t-27 123.5zM938 1462q184 56 184 172q0 67 -65 144q-119 150 -119 258q0 76 61 155
q48 66 152 66q115 0 209 -74q52 -41 102 -41q69 0 114.5 68t45.5 133q-8 131 -153 211.5t-285 87.5q-209 0 -360 -84.5t-227.5 -224.5t-76.5 -297q0 -155 74 -291q-401 -320 -401 -746q0 -196 90 -374.5t245.5 -303t343.5 -169.5q94 -21 181 -21q156 0 318 56.5t297 165.5
t216.5 267t81.5 355q0 179 -70 368q41 36 131 90.5t149.5 103t121.5 142.5q53 83 53 168q0 87 -50 144t-122 57q-112 0 -213 -135q-70 -98 -153.5 -141.5t-210.5 -75.5q-234 -45 -234 -201q0 -70 49 -135q144 -200 144 -377q-6 -113 -74.5 -219t-179 -171t-234.5 -65
q-119 0 -233 66q-242 144 -242 405q0 159 96.5 293.5t243.5 169.5zM578 2040q0 -137 36 -242q4 -12 25 -12q41 8 41 53q-41 66 -41 201q0 45 -33 45q-23 0 -28 -45zM1503 2318q4 17 25 17q33 0 33 -54q-9 -40 -42.5 -65t-68.5 -25q-19 0 -33 9q-172 102 -282 102
q-114 0 -205 -127q-10 -21 -37 -21q-29 0 -29 29q0 17 8 25q115 164 275 164q106 0 262 -82q33 -25 45 -25q28 0 49 53zM1024 1638q0 45 29 45q25 0 37 -45q0 -94 -168 -143q-149 -37 -253 -174.5t-104 -316.5q0 -111 49 -230q13 -23 13 -41q0 -24 -17 -24q-18 0 -41 45
q-57 107 -57 250q0 184 100.5 339t276.5 201q135 49 135 94zM2273 1753q-74 -117 -157.5 -195.5t-276.5 -181.5q86 -198 86 -397q0 -236 -126 -422.5t-329 -287.5t-417 -101q-197 0 -357 82q-41 18 -41 45q0 33 41 33q11 0 33 -9q152 -73 332 -73q202 0 384.5 93.5t296 266
t113.5 393.5q0 172 -61 328q-4 13 -22.5 38.5t-18.5 39.5q0 30 62 45q79 16 213 130.5t204 234.5q24 40 41 40q21 0 21 -32q0 -34 -21 -70z" />
    <glyph glyph-name="quotesingle" unicode="'" horiz-adv-x="1073" 
d="M655 2503q-4 8 -4 24q0 17 13 17q16 0 32 -17q37 -30 37 -78q0 -45 -26 -108.5t-94 -200t-109 -227.5q-6 -29 -29 -29q-20 0 -20 25q0 4 8 28l117.5 257t78.5 171t17 76q0 36 -21 62zM233 1974l70 148q-176 135 -176 286q0 161 107.5 286t285.5 128q160 0 276.5 -99.5
t116.5 -260.5q0 -95 -49 -205l-192 -410q-92 -200 -254 -200q-86 0 -149.5 62.5t-63.5 150.5q0 62 28 114zM360 1929q-8 -40 -8 -53q0 -82 82 -82q70 0 103 70l225 503q16 39 16 78q0 92 -79.5 163t-170.5 71q-100 0 -179 -75.5t-79 -170.5q0 -92 63.5 -168t145.5 -82
q-35 -63 -69.5 -142zM528 2478q50 0 50 -45q0 -57 -50 -57q-49 0 -49 49q0 53 49 53z" />
    <glyph glyph-name="parenleft" unicode="(" horiz-adv-x="1479" 
d="M1159 2310q-336 -517 -336 -1057q0 -492 283 -942q61 -97 61 -192q0 -132 -105 -224t-243 -92q-192 0 -315 181q-373 555 -373 1269q0 244 48.5 483.5t146.5 468.5t235 421q127 172 316 172q86 0 166 -40t127 -110.5t47 -153.5q0 -91 -58 -184zM672 2511
q-188 -261 -288.5 -585t-100.5 -664q0 -316 87 -621.5t261 -566.5q82 -123 196 -123q74 0 123 49t49 127q0 66 -41 135q-303 522 -303 1032q0 531 328 1024q66 103 66 185q0 69 -42 108t-106 39q-137 0 -229 -139zM864 49q21 0 21 -20q0 -31 -45 -37q-77 0 -135 74
q-95 100 -185 311q-8 12 -8 29q0 24 25 24q29 0 41 -29q20 -60 74.5 -156.5t60.5 -109.5q56 -86 151 -86zM983 2544q12 -21 12 -62q-7 -83 -45 -131q-170 -256 -255 -528.5t-85 -552.5q0 -254 78 -541q0 -53 -12 -53q-31 0 -45 37q-86 284 -86 565q0 550 352 1089
q41 67 41 111q0 17 -8 33q0 49 28 49q14 0 25 -16z" />
    <glyph glyph-name="parenright" unicode=")" horiz-adv-x="1487" 
d="M225 2310q-61 89 -61 189q0 83 48 152t126 108t166 39q190 0 311 -172q212 -293 323 -648.5t111 -724.5q0 -717 -377 -1269q-123 -181 -315 -181q-138 0 -241 91.5t-103 224.5q0 102 57 192q291 442 291 946q0 536 -336 1053zM713 2511q-99 139 -238 139
q-64 0 -105.5 -39t-41.5 -108q0 -84 65 -185q328 -477 328 -1015q0 -519 -303 -1041q-41 -69 -41 -135q0 -77 49.5 -126.5t122.5 -49.5q114 0 196 123q174 262 261.5 569t87.5 623q0 340 -98 664t-283 581zM520 49q100 0 144 86q105 181 135 266q17 29 45 29t28 -24
q0 -5 -8 -29q-114 -229 -184 -311q-74 -74 -143 -74q-41 6 -41 33q0 24 24 24zM401 2544q5 12 21 12q33 0 33 -45q-9 -12 -9 -37q0 -22 33 -107q163 -238 260 -504t97 -573q0 -270 -91 -577q-7 -37 -40 -37q-17 0 -17 53q78 265 78 545q0 277 -84.5 549t-255.5 528
q-3 9 -20.5 56t-20.5 75q0 34 16 62z" />
    <glyph glyph-name="asterisk" unicode="*" horiz-adv-x="1737" 
d="M791 1896q-53 0 -94.5 43.5t-41.5 100.5q0 55 41 95t95 40q61 0 104 -39t43 -96q0 -60 -44 -102t-103 -42zM1016 2064q-28 14 -29 17q0 10 12 16l275 160q20 13 20 49q0 41 21 41q7 0 12 -20q8 -13 8 -33q0 -44 -41 -62zM360 2335q-21 16 -32 16q-9 0 -25 -16
q-8 -8 -29 -8q-20 7 -20 12q0 4 8 12q21 25 107 25l286 -168q9 -4 9 -13q0 -20 -33 -20zM664 2241l-271 159q-21 17 -53 17q-50 0 -86.5 -39t-36.5 -88q0 -61 53 -90l275 -160l-275 -160q-57 -28 -57 -94q0 -49 35 -88t84 -39q29 0 53 12l279 160v-311q0 -57 39 -90t92 -33
q47 0 78.5 29.5t31.5 84.5v312l279 -160q21 -16 49 -16q49 0 90.5 40t44.5 91q0 58 -65 94l-279 160l279 159q65 42 65 111q0 48 -29 83.5t-77 35.5q-30 0 -70 -21l-287 -159v319q0 56 -40.5 89.5t-94.5 33.5q-106 0 -106 -107v-335zM938 1864q-8 4 -8 12q6 12 20 12
l267 -159q40 0 57 8q8 8 24 8q21 -6 21 -16q0 -1 -8 -17q-25 -29 -62 -29q-26 0 -41 13zM705 1839q0 21 20 21t20 -21v-319q0 -36 25 -50q29 -11 29 -24q0 -12 -29 -12q-29 6 -47 31.5t-18 45.5v328zM561 1999q33 0 33 -8q0 -9 -8 -17l-275 -151q-32 -34 -32 -54
q-8 -40 -13 -40q-10 0 -16 24q0 67 29 94zM872 2257q0 -21 -16 -21t-16 21v303q0 41 -41 41q-21 6 -21 25q0 16 21 16q35 0 54 -23t19 -51v-311zM791 1991q17 0 28.5 13.5t11.5 27.5q0 41 -40 41q-37 0 -37 -41q0 -13 12 -27t25 -14zM344 2032l-127 82q-106 70 -106 184
q0 88 62.5 158.5t150.5 70.5q65 0 122 -41l115 -69v168q0 99 63 153.5t150 54.5q92 0 158.5 -58.5t66.5 -166.5v-160l144 78q64 33 114 33q58 0 106.5 -32t77.5 -84t29 -113q0 -125 -127 -193l-126 -65l135 -78q114 -57 114 -176q0 -89 -65.5 -159.5t-155.5 -70.5
q-56 0 -119 37l-118 70v-144q0 -102 -64 -159.5t-149 -57.5q-90 0 -158 62.5t-68 171.5v135l-131 -78q-56 -33 -119 -33q-86 0 -149.5 69.5t-63.5 156.5q0 127 127 196z" />
    <glyph glyph-name="plus" unicode="+" horiz-adv-x="2310" 
d="M1495 1479h82q137 0 235.5 -61.5t148.5 -161t50 -212.5q0 -177 -115 -303.5t-327 -126.5h-90v-168q0 -147 -60 -249.5t-158 -153.5t-208 -51q-172 0 -301 117t-129 321v176l-45 8q-222 10 -342.5 140t-120.5 303q0 171 118 296.5t328 125.5h70v168q0 223 130 349t308 126
q110 0 208 -54t158 -160.5t60 -260.5v-168zM1303 1294v336q0 134 -73 210.5t-173 76.5q-97 0 -165.5 -75.5t-68.5 -211.5v-336h-254q-116 0 -185 -76.5t-69 -177.5q0 -95 69.5 -168t193.5 -73h245v-336q0 -126 66.5 -194t159.5 -68q97 0 171 73t74 197v328h267q107 0 168 77
t61 181q0 98 -55.5 167.5t-157.5 69.5h-274zM1577 848h-983q-49 0 -49 33q0 32 41 32h975q25 0 60.5 18.5t41.5 43.5q12 61 45 61q21 0 21 -61q-6 -54 -56 -90.5t-96 -36.5zM1233 737v-274q0 -45 -28 -108t-87 -85q-74 0 -74 33q0 36 46 49q61 17 61 135v242q0 78 33 78
q18 0 33.5 -22t15.5 -48zM1151 1335v283q0 49 33 49q41 0 41 -49l8 -275q0 -49 -37 -49q-31 0 -45 41z" />
    <glyph glyph-name="comma" unicode="," horiz-adv-x="1126" 
d="M713 328q0 45 16 45q21 0 33 -13q20 -25 20 -73q0 -63 -93.5 -266t-127.5 -291q-12 -45 -37 -45q-20 0 -20 32q0 25 8 41q76 198 148.5 346t72.5 175q0 21 -20 49zM270 -209l74 152q-160 129 -160 315q0 168 104.5 279.5t297.5 117.5q104 0 196 -49t146.5 -136.5
t54.5 -195.5q0 -86 -45 -188l-201 -430q-95 -209 -266 -209q-60 0 -113 30t-84.5 83t-31.5 116q0 58 28 115zM410 -258q-13 -36 -13 -61q0 -87 82 -87q75 0 115 78l237 537q17 38 17 82q0 98 -82.5 172t-179.5 74q-72 0 -135.5 -37.5t-101.5 -99t-38 -130.5q0 -88 68 -172
t149 -90q-36 -67 -71 -152.5zM586 319q15 0 34 -19t19 -38q-21 -53 -53 -53q-58 0 -58 61q0 19 19 34t39 15z" />
    <glyph glyph-name="hyphen" unicode="-" horiz-adv-x="1638" 
d="M1090 1327q166 0 259 -98t93 -230q0 -128 -90.5 -223.5t-253.5 -95.5h-594q-182 0 -283.5 100.5t-101.5 235.5q0 125 90.5 218t253.5 93h627zM1081 1159h-618q-69 0 -106.5 -41.5t-37.5 -97.5q0 -70 49.5 -125t135.5 -55h594q64 0 101.5 47t37.5 112t-39.5 112.5
t-116.5 47.5zM512 897q-29 0 -29 29q0 32 29 32h578q36 0 36 50q7 41 33 41q25 0 25 -41q0 -49 -26 -80t-52 -31h-594z" />
    <glyph glyph-name="period" unicode="." horiz-adv-x="930" 
d="M504 344q18 0 33.5 -14t15.5 -27q0 -43 -41 -53q-57 0 -57 37q0 23 14.5 40t34.5 17zM504 49q104 0 181 78.5t77 175.5q0 100 -76 171t-182 71q-101 0 -177.5 -71.5t-76.5 -170.5q0 -97 75 -175.5t179 -78.5zM504 -82q-157 0 -271 109t-114 260q0 101 51 190.5t139 142
t195 52.5q163 0 274 -106t111 -263q0 -99 -51 -188.5t-139.5 -143t-194.5 -53.5zM631 360q0 54 24 54q19 0 25 -21q20 -55 20 -90q0 -87 -60 -142t-136 -55q-49 0 -86 21q-25 18 -25 37q0 20 17 20q16 0 28 -8q31 -12 58 -12q62 0 104.5 39t42.5 96q0 31 -12 61z" />
    <glyph glyph-name="slash" unicode="/" horiz-adv-x="2064" 
d="M152 393l1048 2208q101 201 295 201q119 0 207 -81t88 -206q0 -77 -45 -172l-1040 -2208q-99 -196 -283 -196q-121 0 -214 87.5t-93 215.5q0 73 37 151zM279 344q-25 -54 -25 -102q0 -70 46 -117t110 -47q110 0 176 131l1032 2183q29 59 29 115q0 72 -45.5 120t-106.5 48
q-112 0 -176 -140zM1577 2400l-1040 -2183q-34 -98 -136 -98q-32 6 -32 24q0 33 49 33q52 0 86 82l1024 2167q6 24 28 24q21 0 21 -49z" />
    <glyph glyph-name="zero" unicode="0" horiz-adv-x="3559" 
d="M2474 2273q81 0 164.5 -94t149.5 -246t100 -323q20 -123 20 -226q0 -368 -196.5 -697t-535 -526.5t-734.5 -197.5q-357 0 -713 172q-225 107 -388.5 300t-248 435.5t-84.5 501.5q0 305 119 586t366 493.5t613 309.5q120 32 295 32q237 0 480.5 -68.5t408 -188
t184.5 -263.5zM1016 303q216 -78 430 -78q243 0 457.5 95.5t374.5 262t247.5 377.5t87.5 437q0 288 -139 532q-20 42 -20 62q0 24 20 24q24 0 53 -53q148 -259 148 -561q0 -233 -90 -454t-258.5 -397.5t-395.5 -277t-489 -100.5q-221 0 -451 78q-57 11 -57 37q0 24 41 24
q24 0 41 -8zM2200 2134q-38 -49 -103 -49q-39 0 -74 20q-301 185 -593 185q-423 0 -725 -377q-185 -238 -185 -537q0 -188 84.5 -369.5t259.5 -334.5q21 -21 21 -45q0 -29 -29 -29q-20 0 -49 25q-348 288 -348 745q0 168 53.5 323.5t151.5 274.5q91 112 216.5 200.5
t272.5 136.5t297 48q299 0 590 -184q26 -21 57 -21q30 0 45 21q8 8 33 8q37 -7 37 -21q0 -8 -12 -20zM1966 2073q67 -45 135 -45q84 0 142.5 60.5t58.5 139.5q0 98 -86 156q-355 250 -766 250q-240 0 -462.5 -85t-391.5 -235t-260 -340q-156 -328 -156 -643q0 -260 104 -485
t286 -391.5t408 -255t460 -88.5q214 0 409 73q233 87 402.5 219t275 290t154.5 330t49 349q0 210 -61.5 395.5t-172.5 321.5q-26 33 -90 33q-53 0 -77 -25q-6 -6 -26 -35t-38.5 -47.5t-46.5 -32.5q-37 -5 -37 -57q0 -74 53 -156q99 -208 99 -397q0 -179 -75.5 -335.5
t-206 -274t-294.5 -182t-334 -64.5q-151 0 -286 53q-153 58 -282 179.5t-204.5 283.5t-75.5 340q0 346 308 643q234 221 561 221q269 0 524 -163zM2015 1872q-29 0 -145 59t-224 98t-229 39q-193 0 -377 -122q-274 -201 -274 -545q0 -301 184 -520q178 -197 484 -197
q313 0 520 213q200 217 200 463q0 107 -26.5 191.5t-69.5 186t-43 134.5z" />
    <glyph glyph-name="one" unicode="1" horiz-adv-x="1880" 
d="M426 1360h-82q-127 0 -241.5 111.5t-114.5 261.5q0 141 114 266l611 663q131 144 299 144q96 0 181 -48t136 -130.5t51 -178.5q0 -137 -106 -266l-168 -192q61 -54 61 -279v-1384q0 -182 -111.5 -283.5t-264.5 -101.5q-147 0 -256 96.5t-109 263.5v1057zM594 1528v-1200
q0 -100 60 -156.5t145 -56.5q81 0 140.5 56t59.5 157v1392q0 234 -110 271l237 290q58 71 58 148q0 80 -58.5 138.5t-138.5 58.5q-96 0 -180 -91l-590 -663q-53 -59 -53 -127q0 -81 61 -149t127 -68h242zM889 1720q0 54 20 54q29 0 29 -54v-1409q0 -56 -38 -92.5t-85 -42.5
q-33 7 -33 29q0 18 25 28q31 7 56.5 34.5t25.5 51.5v1401zM578 1647q36 0 36 -29q0 -25 -28 -25h-250q-37 0 -37 29q0 25 37 25h242zM1008 2318q12 13 28 13q33 0 33 -29q0 -9 -12 -29l-226 -258q-12 -12 -12 -33q0 -14 29 -28q8 -8 8 -21q0 -37 -37 -37q-2 0 -20 9
q-66 38 -66 73q0 17 12 29z" />
    <glyph glyph-name="two" unicode="2" horiz-adv-x="2449" 
d="M586 1786q-14 -136 -126 -217.5t-251 -81.5q-147 0 -255 92t-114 268q0 274 137.5 490.5t354.5 336t442 119.5q313 -6 535.5 -143.5t333 -354t110.5 -452.5q0 -162 -53.5 -309t-155.5 -252l-561 -610h586q172 0 264 -106.5t92 -254.5q0 -149 -100 -263t-273 -114h-1335
q-221 0 -327.5 113.5t-106.5 267.5q0 140 74 222l1048 1151q78 99 78 188q0 94 -94 139q-64 33 -111 33q-161 0 -192 -262zM193 102h1384q75 0 123.5 63.5t48.5 145.5t-47 137.5t-141 55.5h-938l811 905q155 175 155 438q0 196 -94.5 375t-288 291.5t-469.5 112.5
q-173 -12 -342 -110t-276 -263.5t-107 -368.5q0 -61 4 -90q8 -61 71.5 -110.5t137.5 -49.5q172 0 205 262q24 154 129 235t240 81q74 0 151 -29q221 -82 221 -299q0 -143 -81 -237l-1065 -1176q-74 -78 -74 -172q0 -80 65.5 -138.5t176.5 -58.5zM225 217h1319q74 0 86 70
q11 32 29 32q12 -2 24.5 -14.5t12.5 -17.5q-6 -53 -49.5 -90t-94.5 -37h-1327q-49 0 -49 28q0 29 49 29zM528 586l815 901q115 127 115 348q0 269 -147 422q-21 19 -21 45q0 25 21 25q19 0 49 -29q160 -168 160 -455q0 -253 -136 -393l-815 -905q-20 -21 -41 -21
q-20 0 -20 21q0 19 20 41zM967 2232q-77 29 -164 29q-155 0 -278.5 -92.5t-155.5 -288.5q-20 -144 -119 -176q-53 0 -53 20q0 30 28 37q71 29 86 152q6 121 77 217t180.5 148.5t226.5 52.5q112 0 204 -50q9 -4 9 -20q0 -29 -41 -29z" />
    <glyph glyph-name="three" unicode="3" horiz-adv-x="2306" 
d="M94 1991q-194 14 -299.5 126t-105.5 259q0 148 105 258t288 110h975q168 0 290.5 -111t122.5 -270q0 -281 -380 -508q141 -98 220 -275t79 -392q0 -200 -71.5 -406t-220.5 -396.5t-368 -336.5q-187 -119 -401 -119q-156 0 -262 80.5t-123 259.5q0 112 87.5 216t202.5 145
q146 59 278 188t132 258q0 36 -12 74q-22 62 -106 102.5t-206 40.5q-103 -24 -180 -24q-113 0 -176 54t-115 171q-24 49 -24 135q7 235 270 361zM623 2167l-537 -389q-82 -60 -82 -144q0 -72 60 -132t112 -60q108 37 217 37q135 0 239 -55t150 -167q29 -73 29 -155
q0 -162 -115 -311t-311 -254l-80.5 -40.5t-85 -52.5t-71.5 -75.5t-29 -98.5q12 -78 81.5 -129t168.5 -51q76 0 168 37q170 76 325.5 237.5t252.5 381.5t97 454q0 136 -36 279q-33 107 -116.5 188t-244.5 197l303 241q152 120 152 267q0 92 -79 152.5t-233 60.5h-831
q-118 0 -190 -66t-72 -152q0 -82 70.5 -141t199.5 -59h488zM160 2290h512q57 0 57 -33q0 -25 -57 -25h-520q-66 0 -66 29t74 29zM770 1954l170.5 132.5t136.5 120.5t82 120q12 24 33 24q16 0 16 -53q-33 -84 -104 -147.5t-297 -237.5q-20 -21 -41 -21q-25 0 -25 21
q0 16 29 41zM233 1569q50 12 144 12q134 -6 262 -37q41 -11 41 -41q0 -24 -49 -24q-158 45 -246 45q-90 0 -135 -13q-62 0 -62 25q0 22 45 33zM1065 1393q-8 20 -8 49q0 45 24 45q32 0 45 -53q37 -105 37 -254q-2 -110 -26.5 -216t-71 -206.5t-107.5 -179.5
q-115 -167 -281 -301t-308 -134q-96 0 -168 66q-13 13 -13 29q0 32 29 32q15 0 33 -12q52 -41 123 -41q127 0 280.5 123.5t268.5 273.5q180 287 180 545q0 134 -37 234z" />
    <glyph glyph-name="four" unicode="4" horiz-adv-x="2634" 
d="M930 2511q35 159 134.5 239t225.5 80q100 0 194.5 -47.5t153 -133.5t58.5 -191v-865h192q232 0 345.5 -107t113.5 -261q0 -143 -82 -250l-663 -889q-130 -164 -324 -164q-151 0 -262 99.5t-111 257.5v544h-459q-210 0 -328 108.5t-118 301.5q0 119 41 246l254 831
q50 152 155.5 229.5t229.5 77.5q155 0 250 -106zM1450 1487h53v921q0 109 -57.5 165.5t-138.5 56.5q-87 0 -152 -64t-65 -174v-905h286v864q0 62 37 62t37 -62v-864zM942 1921l-127 -352h127v352zM528 1479l209 663q13 53 41 53q21 0 21 -36q0 -5 -8 -45l-197 -652
q-11 -45 -41 -45q-25 0 -25 62zM1593 1118q33 0 33 -33q0 -30 -33 -36h-1183q-41 0 -41 36q0 33 41 33h1183zM2015 1225q-16 21 -16 37t20 16q32 0 62 -37q16 -16 16 -45q0 -34 -49 -123l-631 -856q-44 -65 -131 -65q-78 0 -102 32q-8 9 -8 25q8 33 32 33q11 0 25 -9
q18 -12 49 -12q55 0 78 29l639 860q29 39 29 78q0 16 -13 37zM1368 913q-60 25 -111 25q-90 0 -141 -71t-51 -146v-442q0 -71 65.5 -124t151.5 -53q113 0 188 99l652 872q37 57 37 111q0 61 -37 115t-100 86t-142 32h-1249l225 733q12 43 12 82q0 92 -54.5 144.5
t-133.5 52.5q-71 0 -130.5 -44.5t-86.5 -135.5l-279 -922q-8 -40 -8 -70q0 -99 62.5 -174t191.5 -75h1188l-139 -201q-13 47 -45 74v-152q0 -41 -29 -41q-12 0 -24.5 12.5t-12.5 28.5v184z" />
    <glyph glyph-name="five" unicode="5" horiz-adv-x="2015" 
d="M-184 2384q0 198 139.5 308t306.5 110h787q204 0 317 -117t113 -277q0 -137 -85.5 -248.5t-242.5 -144.5q195 -68 310.5 -250.5t115.5 -470.5q0 -117 -16 -221q-38 -242 -136 -441t-263.5 -359t-391.5 -273q-181 -90 -332 -90q-191 0 -312.5 114.5t-121.5 266.5
q0 100 64.5 189.5t193.5 142.5q163 69 277 161.5t168.5 188t54.5 178.5q0 86 -56 139t-153 53h-242q-258 0 -376.5 142.5t-118.5 312.5v586zM426 2200h606q114 0 176 58.5t62 141.5q0 84 -61.5 146.5t-168.5 62.5h-729q-138 0 -228.5 -59t-90.5 -244v-491q0 -116 83 -197.5
t236 -81.5q191 0 311.5 -14t200.5 -72q127 -109 127 -283q0 -197 -163 -391t-451 -297q-139 -52 -139 -168q0 -79 75 -146t183 -67q48 0 114 21q274 102 458.5 289.5t270.5 410.5t86 438q0 108 -16 185q-46 255 -246.5 379.5t-601.5 124.5h-94v254zM1151 2384q12 37 37 37
q29 0 29 -54q-33 -118 -185 -118h-594q-69 0 -69 -74v-160q0 -65 -45 -65q-37 0 -37 65v168q0 58 24 96.5t115 38.5h557q149 0 168 66zM262 1647q43 0 130 2t128 2q251 0 344 -82q25 -19 25 -45q0 -29 -49 -29q-122 90 -328 90h-156h-86q-41 0 -41 33q0 29 33 29zM344 258
q49 -41 135 -41q146 34 279 117.5t235 200t158 247.5q115 244 115 463q0 298 -226 492q-16 16 -16 32q0 29 29 29q11 0 37 -12q245 -178 245 -520q0 -230 -118 -504q-91 -215 -297.5 -380t-432.5 -230q-151 0 -208 81q0 45 20 50q14 0 45 -25z" />
    <glyph glyph-name="six" unicode="6" horiz-adv-x="2519" 
d="M16 1241q-20 143 -20 242q0 348 148 588t401 440q179 142 390.5 212t440.5 70q153 0 336 -40q124 -33 187 -120.5t63 -199.5q0 -122 -73 -223t-193 -129q-58 -8 -78 -8q-25 0 -78 4t-86 4q-93 0 -172 -25q304 -73 505.5 -235.5t296.5 -374.5t95 -438q0 -223 -90 -430
q-97 -215 -259.5 -360.5t-358.5 -214.5t-402 -69q-379 0 -643 201q-220 160 -329 389.5t-109 470.5q0 137 28 246zM537 1135q-21 -163 -21 -172q0 -51 21 -132q0 -61 -13 -61q-18 0 -28 21q-33 70 -33 172q0 91 24 172q9 41 37 41q13 0 13 -41zM430 545q-6 12 -37 12
q-28 0 -28 -20q0 -29 36 -66q306 -328 664 -328q251 0 537 168q160 97 256 304t96 421q0 164 -49 267q-31 53 -54 53q-20 0 -20 -33q0 -30 16 -57q45 -117 45 -254q0 -198 -98 -373.5t-225 -261.5q-237 -160 -500 -160q-368 0 -639 328zM705 1896q216 394 745 394
q18 0 57 -2t58 -2q85 0 131 41q16 21 16 36q0 29 -29 29q-12 0 -28 -8q-25 -25 -111 -25q-13 0 -44 2t-46 2q-573 0 -823 -442q-8 -8 -8 -29q0 -32 32 -32q28 0 50 36zM754 1225q12 -25 12 -62q0 -26 -8 -94t-8 -106q0 -153 122 -242q97 -66 201 -66q82 0 159.5 39t119.5 97
q69 86 69 200q0 98 -52.5 183t-143.5 120q-54 25 -123 25q-79 0 -194 -47t-154 -47zM193 1249q-33 -119 -33 -258q0 -208 85 -376.5t227.5 -287t310 -180t323.5 -61.5q224 20 395.5 103t281.5 208.5t165 279.5t55 318q0 332 -205 582q-85 96 -198.5 171.5t-243.5 116
t-271 40.5q-174 0 -348 -58q179 398 721 398q86 0 127 -4q89 0 145 53.5t56 130.5q0 67 -43.5 121t-132.5 71q-126 21 -226 21q-251 0 -476 -97t-393.5 -264t-263.5 -380.5t-95 -434.5q0 -73 4 -110q100 94 217 94q48 0 86 -12q27 -9 49 -9q101 0 242 78q160 103 364 103
q284 0 475 -246q29 -35 29 -57q0 -21 -25 -21q-24 0 -53 29q-181 229 -426 229q-95 0 -178.5 -28t-165 -68.5t-94.5 -42.5q-66 -12 -66 -45q0 -21 33 -21q25 0 58 17l88.5 47t157 65t175.5 27q253 0 402 -250q65 -101 65 -237q0 -188 -114 -316q-163 -188 -402 -188
q-156 0 -303 94q-192 125 -192 373q0 62 16 192q0 103 -64.5 158t-152.5 55q-152 0 -188 -123z" />
    <glyph glyph-name="seven" unicode="7" horiz-adv-x="2273" 
d="M-66 1815l-118 458q0 100 38 204.5t137.5 177.5t266.5 73h1159q166 0 304.5 -93t138.5 -259q0 -74 -37 -168l-791 -2040q-91 -229 -340 -229q-154 0 -277.5 97.5t-123.5 242.5q0 63 20 114l611 1589h-258q0 -181 -111.5 -272.5t-269.5 -91.5q-123 0 -223.5 53.5
t-125.5 143.5zM86 1921q19 -66 76 -102.5t129 -36.5q84 0 146.5 56.5t62.5 156.5q0 68 -37 164h696l-663 -1749q-25 -66 -25 -119q0 -91 56 -144t137 -53q70 0 132 45t93 131l758 1971q28 70 28 131q0 188 -266 188h-1147q-121 0 -195.5 -82t-74.5 -197zM1528 2281
q11 29 41 29q33 0 33 -61l-762 -1954q-52 -135 -140 -135q-12 0 -36 8q-25 10 -25 25q0 11 8.5 21.5t16.5 10.5q86 0 118 119zM1126 2273q45 0 45 -28q0 -37 -53 -37h-733l53 -209q0 -90 -61 -144q-16 -16 -41 -16q-33 0 -33 29q0 21 41 45q33 11 33 49q0 29 -8 45l-66 266
h823z" />
    <glyph glyph-name="eight" unicode="8" horiz-adv-x="3006" 
d="M143 1479q-163 224 -163 463q0 217 123 412.5t334.5 313t459.5 117.5q257 -7 464.5 -116.5t324 -291t116.5 -390.5q0 -248 -164 -484q275 -338 275 -672q0 -258 -156 -475.5t-402 -342t-499 -124.5q-267 3 -498.5 126.5t-368 332.5t-136.5 455q0 355 290 676zM1008 1090
q-18 -13 -100 -23t-134.5 -28t-77.5 -72q-32 -60 -32 -123q0 -141 159 -197q39 -16 86 -16q126 0 164 123q12 42 12 82q0 54 -12 82.5t-38.5 85t-26.5 86.5zM754 1778q15 8 102.5 20t118.5 33q49 33 49 102q0 54 -41 82q-44 37 -102 37q-73 0 -111 -70q-16 -21 -16 -69v-135
zM1495 1286q156 -220 156 -446q0 -197 -110 -367.5t-293 -270.5t-388 -100q-212 0 -405 115q-45 29 -45 57q0 25 28 25q16 0 58 -20q180 -115 393 -115q179 0 340 84.5t258.5 236t97.5 338.5q0 218 -131 434q-16 33 -16 50q0 12 12 12q20 0 45 -33zM598 1696q20 46 20 110
q0 62 -4 90q0 146 90.5 229t208.5 83q133 -20 198 -93t65 -173q0 -106 -65.5 -191t-160.5 -88q-420 -19 -614 -213q-291 -291 -291 -610q0 -178 89 -339t231.5 -271.5t298.5 -155.5q111 -29 196 -29q211 0 411 109.5t322.5 296t122.5 401.5q0 302 -237 573q-52 58 -127 58
q-84 0 -155 -65t-71 -148q0 -57 41 -111q111 -158 111 -323q0 -132 -70 -238q-94 -147 -303 -147q-110 0 -212 50t-166 145t-64 226q18 168 99.5 249t159 100t201.5 35.5t134 46.5q-67 12 -135 12q-146 0 -260.5 -55t-179 -157.5t-64.5 -234.5q0 -98 37 -213q0 -61 -33 -61
q-24 0 -29 20q-49 135 -49 246q0 159 82 279.5t219 185t289 64.5q66 0 139 -13q66 139 254 168q143 156 143 385q0 275 -213 447q-24 18 -24 37q0 24 24 24q18 0 46 -20q221 -178 221 -475q0 -227 -115 -414q22 0 45 -17q115 213 115 426q0 139 -50.5 260t-139 209t-204 141
t-245.5 62q-190 0 -361.5 -84.5t-276 -241.5t-104.5 -362q0 -99 21 -184q12 -59 51 -113.5t96 -54.5q40 0 82 33q13 13 13 16q0 5 -14.5 12t-14.5 17q0 8 24 32q58 42 58 152q-8 58 -8 86q0 123 55.5 216.5t146.5 143.5t195 50q107 0 213 -62q20 -10 20 -29q0 -28 -53 -28
q-93 53 -188 53q-136 0 -232 -95t-96 -237q0 -48 12 -98q0 -94 -8 -119q0 -49 8 -49q29 0 29 33z" />
    <glyph glyph-name="nine" unicode="9" horiz-adv-x="2785" 
d="M1434 1610q-22 25 -50.5 143.5t-86.5 193t-199 93.5q-133 0 -236.5 -76t-116.5 -186q0 -174 91 -263.5t213 -89.5q116 0 177.5 31.5t116.5 87t91 66.5zM991 688q-210 0 -402.5 87.5t-309.5 223.5q-295 337 -295 725q0 252 122 482t334.5 384.5t464.5 194.5q97 17 213 17
q321 0 555 -153.5t355.5 -395t121.5 -492.5q0 -143 -36 -266q28 -126 28 -270q0 -252 -99 -486t-286 -415t-456.5 -285.5t-595.5 -104.5q-208 4 -319.5 108.5t-111.5 248.5q0 89 42.5 169.5t123.5 129.5t191 49q258 0 360 49zM1425 905q-38 -191 -248 -308.5t-489 -117.5
q-119 0 -186.5 -51t-67.5 -125q0 -69 59 -125.5t171 -75.5q82 -8 122 -8q304 0 578 154t440 412.5t166 547.5q0 144 -41 271q-28 -10 -57 -25q33 -122 33 -237q0 -255 -131 -501t-403 -405t-666 -159q-99 0 -99 36q0 29 82 29q329 0 596 131.5t417 353t150 474.5
q0 73 -20 176q-3 22 -7 45.5t-13 38t-25 14.5q-34 0 -94.5 19t-89.5 51q-16 0 -31.5 -11.5t-37 -32.5l-22.5 -22q-98 -112 -217 -160q-125 -57 -250 -57q-204 0 -333 149t-129 347q0 228 172 364q148 123 340 123q115 0 216.5 -52.5t173 -164t93.5 -274.5q14 -104 71.5 -161
t129.5 -57q76 0 132 66.5t56 191.5q-16 289 -143.5 486t-321 290t-411.5 93q-356 0 -594 -213q-166 -145 -247 -325t-81 -367q0 -229 115 -437.5t319 -334t455 -125.5q184 0 368 69zM479 1208q288 -262 570 -262q157 0 327 70q62 0 62 -25q0 -26 -29 -41q-175 -78 -352 -78
q-338 0 -619 279q-28 22 -28 53q0 29 24 29q21 0 45 -25zM569 1511q9 -36 9 -49q0 -41 -25 -41q-17 0 -33 33q-57 131 -57 275q0 174 91 313.5t237.5 218t302.5 78.5q224 0 376 -148q33 -26 33 -61q0 -25 -20 -25q-17 0 -33 17q-162 155 -360 155q-143 0 -272 -75
t-207.5 -204.5t-78.5 -281.5q0 -97 37 -205zM1798 1647q57 32 57 139q-24 194 -110 344q-16 27 -16 49q0 21 20 21q24 0 37 -25q72 -101 100 -195.5t35 -226.5q0 -116 -90 -151q-12 -9 -33 -9q-29 7 -29 21q0 20 29 33z" />
    <glyph glyph-name="colon" unicode=":" horiz-adv-x="930" 
d="M631 1921q0 45 28 45q22 0 29 -20q17 -47 17 -86q0 -83 -60.5 -138t-136.5 -55q-55 0 -90 21q-25 12 -25 32q0 25 29 25q8 0 24 -8q27 -17 62 -17q56 0 95.5 40.5t39.5 99.5q0 31 -12 61zM512 1479q-164 0 -278.5 106.5t-114.5 261.5q0 157 114 271t271 114
q162 0 273.5 -108.5t111.5 -259.5q0 -101 -50.5 -190.5t-137 -142t-189.5 -52.5zM504 1610q105 0 181.5 76.5t76.5 177.5q0 96 -74.5 168.5t-175.5 72.5q-107 0 -184.5 -72.5t-77.5 -168.5q0 -100 77 -177t177 -77zM504 1905q25 0 41 -15t16 -35q0 -49 -49 -49q-57 0 -57 49
q0 50 49 50zM631 840q0 49 28 49q24 0 29 -17q17 -40 17 -86q0 -87 -61 -143.5t-140 -56.5q-51 0 -86 20q-25 12 -25 37q0 21 25 21q2 0 20 -9q28 -16 66 -16q59 0 99 40t40 99q0 30 -12 62zM504 401q-157 0 -271 109t-114 260q0 100 51 188.5t139 140.5t195 52
q162 0 273.5 -108.5t111.5 -260.5q0 -154 -111.5 -267.5t-273.5 -113.5zM504 528q105 0 181.5 76.5t76.5 177.5q0 104 -74.5 173t-183.5 69q-104 0 -179 -69.5t-75 -172.5q0 -100 77 -177t177 -77zM504 823q49 0 49 -41q0 -17 -13 -35t-36 -18q-49 0 -49 41q0 19 13 36
t36 17z" />
    <glyph glyph-name="semicolon" unicode=";" horiz-adv-x="1049" 
d="M639 1921q0 45 29 45q21 0 28 -20q17 -38 17 -86q0 -83 -60.5 -138t-136.5 -55q-50 0 -86 21q-24 12 -24 36q0 21 24 21q7 0 25 -8q26 -17 61 -17q56 0 95.5 40.5t39.5 99.5q0 31 -12 61zM520 1479q-164 0 -278.5 106.5t-114.5 261.5q0 157 114 271t271 114
q162 0 277.5 -109t115.5 -259q0 -158 -111.5 -271.5t-273.5 -113.5zM520 1610q66 0 123.5 35t92 94t34.5 125q0 96 -74.5 168.5t-175.5 72.5q-107 0 -182.5 -72.5t-75.5 -168.5q0 -101 76.5 -177.5t181.5 -76.5zM520 1905q15 0 32 -16t17 -34q0 -49 -49 -49q-57 0 -57 49
q0 18 19 34t38 16zM655 770q-8 8 -8 25q8 16 17 16q22 0 32 -20q21 -34 21 -66q0 -54 -82.5 -227.5t-130.5 -304.5q-13 -41 -37 -41q-21 0 -21 32q0 5 9 41q45 113 86 202t72.5 150.5t45 91.5t13.5 52q0 28 -17 49zM233 258l70 143q-160 110 -160 295q0 157 102 264t283 113
q102 0 189 -47t137.5 -130t50.5 -183q0 -90 -41 -176l-192 -410q-92 -205 -254 -205q-86 0 -149.5 63.5t-63.5 153.5q0 62 28 119zM360 209q-8 -42 -8 -53q0 -90 82 -90q65 0 103 69l225 512q16 39 16 78q0 93 -78.5 163t-171.5 70q-102 0 -180 -75t-78 -170
q0 -89 64 -166.5t145 -83.5q-39 -76 -68.5 -141.5zM537 745q49 0 49 -40q0 -58 -49 -58q-24 0 -41 15t-17 34t19 34t39 15z" />
    <glyph glyph-name="less" unicode="&#x3c;" horiz-adv-x="2232" 
d="M614 762l729 -520q38 -33 82 -33q46 0 95 41q11 16 24 16q21 0 21 -33q0 -25 -21 -40q-48 -50 -110 -50q-57 0 -131 50l-717 512q-33 21 -33 45t29 24q14 0 32 -12zM1622 1712q0 -113 -53 -151l-504 -353q-20 -20 -41 -20q-25 0 -25 24q0 32 25 45l426 304q51 36 81 65
t30 78q0 5 11 19t25 14q15 0 25 -25zM1303 143q63 -45 135 -45q87 0 154 63.5t67 145.5q0 97 -98 172l-721 520l729 504q106 72 106 180q0 79 -60.5 134t-152.5 55q-100 0 -196 -74l-795 -581q-176 -153 -176 -271q0 -101 123 -184zM262 647q-143 99 -143 299q0 209 168 336
l839 631q177 135 349 135q158 0 263 -102.5t105 -245.5q0 -203 -205 -348l-503 -361l520 -377q184 -126 184 -311q0 -150 -119.5 -263.5t-281.5 -113.5q-121 0 -230 74z" />
    <glyph glyph-name="equal" unicode="=" horiz-adv-x="2920" 
d="M2114 1241h-1643q-107 0 -127 86q6 53 29 53q22 0 28 -37q9 -49 86 -49h1635q20 0 20 -24q0 -29 -28 -29zM479 1503q-90 0 -139 -46t-49 -109q0 -64 50 -110t138 -46h1712q110 0 174 46t64 110q0 63 -61.5 109t-176.5 46h-1712zM487 1688h1762q159 0 251.5 -103
t92.5 -242q0 -133 -95.5 -230t-273.5 -97h-1761q-165 0 -256.5 96t-91.5 227q0 139 99.5 244t272.5 105zM2130 479h-1643q-39 0 -76.5 23.5t-50.5 75.5q9 49 29 49q23 0 29 -41q8 -49 86 -49h1630q25 0 25 -29t-29 -29zM496 721q-88 0 -136.5 -42t-48.5 -97q0 -59 49 -101.5
t136 -42.5h1712q103 0 162 41.5t59 98.5q0 56 -57.5 99.5t-155.5 43.5h-1720zM504 897h1761q161 0 256.5 -98t95.5 -226q0 -127 -94.5 -215t-273.5 -88h-1753q-168 0 -262.5 92.5t-94.5 219.5q0 126 97 220.5t268 94.5z" />
    <glyph glyph-name="greater" unicode="&#x3e;" horiz-adv-x="2232" 
d="M1561 762q12 8 32 8q33 0 33 -25q0 -24 -33 -40l-721 -512q-74 -50 -131 -50q-62 0 -110 50q-21 19 -21 45q0 28 21 28q13 0 24 -16q49 -41 99 -41q40 0 77 33zM553 1712q10 25 29 25q32 -8 32 -33q0 -68 115 -143l422 -304q25 -12 25 -40q0 -29 -21 -29q-12 0 -45 20
l-504 353q-61 51 -61 118q0 9 8 33zM872 143l889 619q119 81 119 184q0 118 -176 271l-791 581q-96 74 -200 74q-92 0 -152.5 -55.5t-60.5 -133.5q0 -108 106 -180l729 -504l-721 -520q-98 -75 -98 -172q0 -82 66 -145.5t155 -63.5q72 0 135 45zM1913 647l-946 -647
q-103 -74 -230 -74q-105 0 -197 54.5t-148 144t-56 186.5q0 178 176 303l528 377l-503 361q-205 151 -205 352q0 141 104 242.5t260 101.5q171 0 353 -135l839 -631q172 -130 172 -336q0 -202 -147 -299z" />
    <glyph glyph-name="question" unicode="?" horiz-adv-x="2351" 
d="M225 1118q-39 242 -49 299q-4 29 -4 86q0 190 104.5 281.5t260.5 91.5q54 0 110 -12q56 -9 62 -9q102 0 102 78q0 31 -20 66q-34 61 -99 61q-54 0 -112.5 -36.5t-92.5 -77.5q-103 -140 -258 -140q-147 0 -264 120t-117 286q0 84 33 164q90 223 281 326.5t432 103.5
q188 0 365 -56t282 -141q173 -133 273 -342t100 -432q0 -245 -128.5 -453t-387.5 -325q213 -201 213 -471q0 -219 -139.5 -399.5t-356.5 -235.5q-103 -25 -197 -25q-192 0 -352 88.5t-250 237.5t-90 317q0 309 299 549zM401 1024q-290 -160 -290 -434q0 -128 68.5 -244.5
t182 -188t240.5 -71.5q20 0 70 8q228 43 337 176.5t109 302.5q0 111 -42 212.5t-114 167t-155 71.5q-128 0 -193 -54.5t-65 -129.5q0 -46 29 -95q15 -26 62 -63t56 -84q0 -94 -110 -94q-66 6 -66 74q0 31 17 53q0 30 -21 37q-14 0 -20 -13q-21 -39 -21 -77q0 -35 21 -66
q8 -16 8 -20q0 -33 -33 -33q-19 0 -41 28q-20 42 -20 99q0 111 86 168q-13 46 -13 86q0 171 222 250l-41 245q80 -28 159 -28q152 0 271 88.5t172 222.5q49 113 49 242q0 288 -205 475q-29 23 -29 49q0 24 21 24q17 0 49 -24q68 -68 120.5 -160t80.5 -192t28 -193
q0 -56 -12 -110q-26 -107 -92 -217t-179 -186.5t-266 -76.5q-28 0 -86 8l17 -147q0 -25 20 -25q33 0 33 41v74q188 0 330.5 91t217.5 242.5t75 326.5q0 179 -82.5 348t-245.5 286q-182 136 -455 136q-164 0 -311 -54t-237.5 -155.5t-90.5 -237.5q0 -71 66.5 -123.5
t146.5 -52.5q107 0 164 90q44 63 126 101t173 38q174 0 246 -139q37 -73 37 -160q0 -104 -60 -172.5t-174 -68.5q-21 0 -77 8q-61 12 -111 12q-213 0 -213 -225q0 -57 4 -82zM504 233q55 -12 106 -12q165 0 277 108t112 261q0 128 -86 250q-8 8 -8 24q0 29 25 29
q28 0 45 -29q94 -136 94 -278q0 -118 -64 -216.5t-170 -156t-221 -57.5q-79 0 -135 20q-37 12 -37 37q0 20 62 20zM143 2150q-49 0 -49 -20q0 -23 25 -41q40 -41 114 -41q71 0 95 41q135 188 344 188q144 0 250 -94q16 -16 32 -16q25 0 25 24q0 27 -29 50q-118 98 -282 98
q-234 0 -373 -205q-25 -25 -62 -25q-48 0 -90 41z" />
    <glyph glyph-name="at" unicode="@" horiz-adv-x="2945" 
d="M913 938l381 1126q27 74 95.5 113t150.5 39q77 0 141.5 -37.5t87.5 -105.5l197 -594q108 0 220 67.5t112 231.5q-19 130 -137.5 270t-310 234t-416.5 94q-208 -16 -414.5 -149t-341 -341.5t-141.5 -431.5q0 -181 54.5 -364.5t129.5 -315.5q56 -91 182.5 -194.5
t302.5 -177.5t363 -74q266 23 412.5 88.5t308.5 214.5q67 61 147 61q92 0 158.5 -62t66.5 -151q0 -86 -77 -176q-172 -191 -619 -319q-249 -70 -459 -70q-411 0 -730.5 216.5t-492.5 567.5t-173 736q9 206 60.5 373t143 307t214.5 253.5t286 217.5q153 89 355.5 140.5
t410.5 51.5q199 0 356 -49q205 -60 382.5 -203.5t286.5 -326t130 -359.5q8 -53 8 -143q0 -292 -171 -432.5t-500 -165.5l57 -185q8 -32 8 -53q0 -83 -70 -144t-151 -61q-50 0 -94 25l-447 287l-73 -176q-48 -132 -193 -132q-83 0 -148 52.5t-65 140.5q0 47 16 86zM1282 1098
l-98 -275q-12 -49 -74 -49q-29 6 -29 21q0 20 29 20q16 0 49 33l90 270l-57 41q-53 42 -53 115q0 59 36.5 103.5t98.5 47.5h78l118 361q13 24 29 24q12 0 12 -32l-118 -353h32l103 312l94 -312h176l-176 566q0 45 12 45q15 0 21 -21l192 -590h25l-184 598q-33 103 -152 103
q-111 0 -152 -111l-376 -1102q-13 -35 -13 -65q0 -49 32 -78t75 -29q83 0 115 74l94 266q-29 16 -29 17v0zM1528 1536l-41 -102h65zM2458 2089q8 33 16 33q4 0 12 -8q123 -216 123 -414q0 -216 -162 -345.5t-493 -129.5h-410q-33 0 -33 20q0 12 25 12h418q292 0 455 116
t163 327q0 171 -114 389zM1577 1192h369q289 0 492.5 109t203.5 391q0 82 -16 163q-23 118 -91.5 245t-167 235.5t-216.5 187.5t-238 111q-216 49 -357 49q-352 0 -692 -189q-195 -106 -343 -283t-230 -386.5t-82 -407.5q10 -459 212 -774.5t511.5 -469t632.5 -153.5
q203 0 364 54q199 67 364 151.5t210 143.5q37 49 37 102q0 43 -30 70.5t-73 27.5q-57 0 -102 -41q-79 -87 -253 -181.5t-505 -113.5q-226 0 -423 81.5t-333.5 196.5t-189.5 210q-62 122 -98 203.5t-67.5 205.5t-31.5 259q0 120 29 233q62 273 233 459t370 279.5t359 113.5
q29 4 86 4q206 0 404.5 -104t330.5 -267t154 -329q0 -227 -140.5 -310.5t-297.5 -83.5h-676q-42 0 -74 -34.5t-32 -75.5q0 -55 45 -82l630 -422q42 -29 74 -29q46 0 78.5 41.5t32.5 65.5q-8 82 -38 172t-65 90l70 -221q0 -119 -82 -119q-21 0 -45 12l-598 402q-29 17 -29 28
q0 17 13 17q16 0 28 -12l602 -402q18 -8 37 -8q41 0 41 41q0 7 -8 41l-70 237q-5 21 -36 21q-30 0 -63 -22.5t-44 -51.5q-138 89 -176 119zM2327 2122q20 -21 20 -45q0 -17 -12 -17t-37 37q-145 197 -349 303.5t-433 106.5q-301 0 -578 -180q-545 -333 -545 -906
q0 -255 119 -532q174 -448 696 -647q41 -13 41 -33q0 -16 -37 -16q-12 0 -36 8q-156 57 -299.5 159.5t-254.5 240t-167 288.5q-107 302 -107 549q0 576 574 946q257 168 577 168q247 0 467 -110t361 -320zM1343 82q-40 6 -40 24q0 21 49 21q104 -16 225 -16q368 0 774 233
q90 46 90 98q0 5 -8 21q0 57 41 57q29 -14 29 -53q0 -76 -95 -139q-420 -271 -839 -271q-110 0 -226 25z" />
    <glyph glyph-name="A" unicode="A" 
d="M57 446l705 2065q48 138 176.5 216.5t278.5 78.5q142 0 256.5 -78t156.5 -225l344 -1069q141 0 232.5 -101t91.5 -235q0 -173 -156 -283l139 -414q13 -46 13 -98q0 -103 -57.5 -191.5t-152 -141t-192.5 -52.5q-100 0 -172 49l-815 545l-131 -336q-45 -118 -144.5 -180
t-215.5 -62q-154 0 -269.5 98t-115.5 259q0 75 28 155zM729 745l-176 -503q-13 -38 -54.5 -64t-88.5 -26q-50 6 -50 32q0 41 66 41q17 0 44.5 21.5t33.5 40.5l168 495l-103 82q-106 75 -106 205q0 107 71 186.5t187 79.5h135l225 664q11 37 41 37q29 0 29 -54l-221 -647h53
l201 578l176 -578h319l-327 1049q0 70 28 70q25 0 37 -37l344 -1082h62l-353 1106q-26 83 -106 134t-176 51q-93 0 -167.5 -51t-107.5 -150l-688 -2015q-20 -56 -20 -119q0 -96 61 -150.5t144 -54.5q66 0 121 35.5t75 103.5l168 488l-24.5 18.5t-20.5 13.5zM1167 1544
l-49 -209h115zM1999 1110q0 45 24 45q22 0 33 -29q8 -24 8 -41q0 -44 -33 -77t-69 -33h-754q-61 0 -61 33q0 26 53 32h754q45 0 45 70zM1257 913h689q90 0 139 55.5t49 129.5q0 73 -44.5 124.5t-127.5 51.5h-1233q-75 0 -136 -65t-61 -144q0 -95 91 -152l1146 -778
q80 -49 136 -49q89 0 149 76t60 125q-22 145 -77 304.5t-108 170.5l127 -410q8 -32 8 -49q0 -62 -45 -109t-106 -47q-49 0 -90 29l-1102 729q-53 32 -53 58q0 20 32 20q31 0 54 -16l1093 -742q26 -16 70 -16q78 0 78 74q0 29 -13 69l-135 455q-24 12 -78 12
q-137 0 -184 -123q-180 112 -328 217z" />
    <glyph glyph-name="B" unicode="B" horiz-adv-x="2486" 
d="M0 2425q0 303 369 303h704q169 0 301.5 -89t204.5 -237.5t72 -316.5q0 -182 -82 -340q409 -311 409 -787q0 -244 -116 -466t-313 -357t-423 -135h-823q-117 0 -206 83.5t-89 235.5zM176 369q0 -134 55.5 -171.5t153.5 -37.5h725q190 0 349 118.5t249 310t90 398.5
q0 210 -103 394.5t-311 297.5q-26 17 -73 17q-71 0 -130 -45t-59 -119q0 -123 152 -275q127 -133 127 -303q0 -102 -48 -195.5t-125 -149.5t-155 -56h-368q-119 0 -119 111v294q-51 18 -58 25v-389q0 -33 -32 -33q-33 0 -33 45v418q-86 79 -86 184q0 114 110 226v647
q0 90 59 145t134 55h270q45 0 45 -24q0 -33 -45 -33h-262q-62 0 -102.5 -49.5t-40.5 -151.5v-536l49 49v463q0 82 26 125t109 43h168q152 0 152 -127q0 -117 -128.5 -288.5t-334.5 -317.5q-152 -107 -152 -226q0 -64 44 -113.5t108 -70.5q138 0 248.5 73.5t246.5 205.5
q4 4 4 24q0 49 -12 49q-116 -127 -216 -202.5t-218 -92.5q-37 0 -111 45q0 58 29 58q12 0 21 -8q21 -33 61 -33q82 6 197.5 98t220.5 229q0 109 59.5 185.5t132.5 89.5q107 159 107 328q0 222 -164 335q-12 13 -12 25q0 33 61 33q180 -140 180 -369q0 -160 -94 -336
q49 0 74 -8q65 155 65 324q0 134 -47.5 246.5t-142 178.5t-227.5 66h-639q-131 0 -182.5 -30t-51.5 -146v-2023zM745 1982v-221q127 153 127 221q0 33 -61 33q-66 0 -66 -33zM1434 1233q0 -49 -33 -49q-7 0 -17 8q-22 60 -127 151q-8 10 -8 21q0 15 10.5 28t22.5 13
q7 0 21 -12q81 -68 131 -160zM410 270h725q100 0 231 89t224 244.5t93 342.5q0 216 -131 430q-8 17 -8 37q0 29 25 29q30 0 49 -33q131 -221 131 -442q0 -154 -56.5 -291t-151 -243.5t-205.5 -165t-210 -58.5h-708q-53 0 -53 37q0 24 45 24zM762 881v-136h287
q81 13 128.5 70.5t47.5 134.5q0 96 -74 176q-195 -226 -389 -245z" />
    <glyph glyph-name="C" unicode="C" horiz-adv-x="2785" 
d="M2130 143q-352 -233 -762 -233q-277 0 -535.5 108t-462 300t-321 436.5t-123.5 511.5q0 409 196.5 762.5t536 561.5t738.5 208q308 0 626 -136q153 -65 228.5 -174.5t75.5 -230.5q0 -141 -93 -244.5t-239 -103.5q-103 0 -209 53q-206 98 -381 98q-203 0 -365.5 -107
t-253 -274.5t-90.5 -335.5q0 -176 93 -333.5t254.5 -254t353.5 -96.5q201 0 389 103q93 53 188 53q142 0 235 -108.5t93 -251.5q0 -197 -172 -312zM1831 606q-222 -114 -463 -114q-232 0 -425.5 114.5t-305.5 306t-117 414.5q0 226 114.5 433t317 333.5t449.5 126.5
q239 0 495 -131q38 -21 82 -21q73 0 124.5 59.5t51.5 137.5q0 168 -200 246q-272 110 -553 110q-275 0 -514 -106.5t-415 -293t-273 -427t-97 -500.5q7 -258 114.5 -479t292 -389t414.5 -260t466 -92q349 0 634 196q111 77 111 181q0 76 -55 130t-137 54q-60 0 -111 -29z
M1946 2200q22 -9 32 -9q54 0 54 66q0 50 -25 70q-8 16 -8 20q0 29 41 29q28 0 41 -25q20 -36 20 -82q0 -61 -39 -100t-92 -39q-25 0 -49 12q-29 22 -29 41q0 17 54 17zM938 225q-41 18 -41 41q0 21 37 21q31 0 57 -17q162 -86 398 -86q140 0 273 32.5t222.5 91.5t106.5 130
q23 70 49 70q33 0 33 -70q-3 -83 -103 -156t-261 -116t-329 -43q-254 0 -442 102zM791 647q36 -26 36 -53q0 -25 -24 -25q-25 0 -41 17q-361 325 -361 733q0 263 152 536q71 133 216.5 245.5t323.5 175.5t341 63q92 0 196 -29q58 -6 58 -37q0 -24 -37 -24q-9 0 -41 8
q-90 29 -189 29q-236 0 -473.5 -135t-349.5 -328q-135 -246 -135 -488q0 -381 328 -688z" />
    <glyph glyph-name="D" unicode="D" horiz-adv-x="2257" 
d="M8 2400q0 173 109.5 264.5t259.5 112.5q159 25 319 25q285 0 549.5 -82.5t458.5 -253.5q266 -228 266 -447q0 -84 -41 -172q197 -117 197 -487q0 -82 -12 -168q-116 -1206 -1459 -1266q-647 0 -647 418v2056zM184 2376v-2007q0 -135 129 -205t273 -70q383 0 678 119
t472.5 372.5t209.5 639.5q4 28 4 98q0 177 -52.5 307.5t-177.5 130.5q-78 -10 -127 -68.5t-49 -275.5q0 -234 -63 -448t-211.5 -352t-388.5 -138q-275 0 -275 303v1114q0 345 344 345q317 -15 492 -320q20 -46 64.5 -90.5t82.5 -44.5q13 0 29 8q61 29 143 29q37 7 37 98
q0 68 -28 151t-95.5 175.5t-179.5 177.5q-287 209 -786 209q-75 0 -197 -8q-118 -8 -223 -68t-105 -182zM594 586q0 -74 -33 -74q-26 0 -41 41q-41 70 -41 160v1249q0 165 124.5 285t387.5 120q90 -6 90 -36q0 -41 -90 -41q-222 0 -326 -114t-104 -239v-1241q0 -61 33 -110z
M1872 1561q24 -123 24 -246q0 -166 -43.5 -331.5t-125.5 -309.5t-191 -248q-149 -137 -366.5 -210t-440.5 -73q-192 0 -352 58q-58 25 -58 65q0 25 29 25q21 0 45 -12q147 -58 336 -58q341 0 655 180q208 117 325.5 380.5t117.5 553.5q0 106 -21 217q6 54 29 54q26 0 37 -45
zM1602 2241q80 -84 107 -140.5t44 -195.5q0 -50 -37 -50q-31 0 -37 41q-13 213 -118 287q-25 18 -25 45q0 33 25 33q20 0 41 -20zM1417 1704q-55 18 -107 85.5l-108.5 143.5t-111.5 99q-74 24 -132 24q-167 0 -167 -143v-1122q0 -144 151 -144q75 14 168 68t169.5 182
t80.5 336v168q0 237 57 303z" />
    <glyph glyph-name="E" unicode="E" horiz-adv-x="2265" 
d="M360 1815l-311 274q-135 117 -135 307q0 103 46 192t139.5 143t228.5 54h1048q170 0 273.5 -112t103.5 -265q0 -161 -123.5 -277t-363.5 -116l319 -295q111 -103 111 -274q0 -163 -106 -284.5t-296 -121.5h-495v-360l671 -8q158 0 251.5 -113.5t93.5 -263.5
q0 -156 -102 -266.5t-296 -110.5h-1057q-352 0 -352 385v1122q0 140 82.5 252.5t269.5 137.5zM401 94h1033q97 0 155 64t58 149t-58 145t-164 60h-626q-185 0 -185 143v385q0 168 160 168h475q99 0 174.5 73t75.5 173q0 116 -115 209l-630 537h540q132 0 205.5 64t73.5 153
q0 80 -61.5 136t-176.5 56h-958q-139 0 -211 -58t-72 -147q0 -134 139 -254l631 -528h-471q-96 0 -148 -68t-52 -145v-1057q0 -111 36 -184.5t172 -73.5zM430 217l995 -8q27 0 58.5 21.5t36.5 56.5q0 15 14 30t31 15q20 0 20 -53q-12 -56 -64 -96t-96 -40h-995q-45 0 -45 37
t45 37zM561 594q0 -86 -33 -86q-32 0 -32 86v516q0 92 68 154.5t149 62.5l544 8q33 0 69 35t42 72q12 37 33 37q33 0 33 -54q0 -62 -57 -106.5t-111 -44.5h-521q-63 0 -123.5 -41.5t-60.5 -126.5v-512zM922 1745q12 -12 12 -25q0 -28 -29 -28q-13 0 -41 20l-266 217
q-25 20 -25 41q0 29 33 29q17 0 33 -17zM672 2183q24 -18 24 -49q0 -25 -20 -25q-14 0 -45 25l-119 98q-16 18 -16 37q0 41 65 41h782q32 0 66.5 25t44.5 57q6 37 29 37q9 0 18.5 -9.5t9.5 -19.5q0 -67 -55 -109t-129 -42h-729z" />
    <glyph glyph-name="F" unicode="F" horiz-adv-x="2191" 
d="M360 1815l-319 282q-131 119 -131 307q0 158 105 269.5t304 111.5h1065q156 0 250.5 -103t94.5 -245q0 -105 -54.5 -198t-167.5 -150t-282 -57l344 -312q102 -96 102 -237q0 -103 -51 -202.5t-138.5 -161.5t-187.5 -62h-446q-43 0 -50 -8t-7 -58v-655q0 -195 -121 -302.5
t-285 -107.5q-159 0 -272 99.5t-113 277.5v1131q0 145 83 257.5t277 123.5zM606 352v713q0 69 29 110.5t139 41.5h475q78 0 154 79t76 179q0 106 -103 196l-622 529h532q131 0 205 66t74 155q0 82 -60 139t-170 57h-975q-135 0 -204.5 -58t-69.5 -146q0 -146 139 -254
l631 -512h-479q-201 0 -201 -238v-1057q0 -121 66.5 -191.5t154.5 -70.5q86 0 147.5 68.5t61.5 193.5zM426 135q-41 0 -41 17q0 27 45 41q49 16 49 77v836q0 118 74 177.5t152 59.5h544q25 0 61 33t42 66q6 37 37 37q28 0 28 -62q-18 -56 -71.5 -99.5t-96.5 -43.5l-512 8
q-68 0 -134 -37.5t-66 -134.5v-852q0 -87 -111 -123zM913 1769q17 -10 17 -32q0 -17 -10.5 -29t-22.5 -12q-16 0 -33 16l-270 225q-25 20 -25 41q0 29 29 29q16 0 33 -16zM664 2191q16 -11 16 -32q0 -37 -33 -37q-6 0 -24 12l-119 98q-12 13 -12 33q0 62 77 62h766
q31 0 62 21.5t37 51.5q12 37 32 37q29 0 29 -37q0 -51 -49.5 -93t-118.5 -42h-741z" />
    <glyph glyph-name="G" unicode="G" horiz-adv-x="2802" 
d="M1745 -16q-198 -62 -393 -62q-264 0 -517.5 102.5t-456.5 287.5t-323 431.5t-129 522.5q0 419 196 769t534 552t737 202q305 0 614 -127q155 -61 233 -172t78 -237q0 -96 -41.5 -178t-115.5 -130.5t-166 -48.5q-104 0 -217 66q-199 111 -389 111q-199 0 -359.5 -110
t-251 -280.5t-90.5 -339.5q0 -209 91 -348.5t222.5 -209.5t264.5 -89q49 0 49 25q0 28 -25 78.5t-89 164.5t-102 190.5t-75 172.5q-33 82 -33 172q0 152 97 250t247 98h631q232 0 312.5 -93.5t80.5 -258.5v-1159q0 -204 -124 -307t-285 -103q-128 0 -205 58zM1368 487
q-302 60 -485.5 164.5t-271 266.5t-99.5 401q0 223 116.5 434t320 341t448.5 130q242 0 483 -135q45 -25 86 -25q73 0 124.5 58t51.5 143q0 161 -196 246q-280 119 -562 119q-267 0 -502.5 -106.5t-411 -293.5t-272 -430.5t-96.5 -505.5q22 -345 203 -620.5t473 -429.5
t627 -154q152 0 283 29q-4 12 -4 35t-5 39q-70 -54 -249 -54q-138 0 -300.5 32t-224.5 62q0 70 37 70v0l25 -8q55 -29 175 -59.5t255 -30.5q166 0 282 53v709q0 19 -20.5 100t-20.5 125q0 82 66 82q70 -5 70 -94q0 -38 -10.5 -105t-10.5 -92v-713q0 -73 70 -122.5t155 -49.5
q82 0 139.5 53t57.5 160v1176q0 184 -176 184h-656q-172 0 -172 -168q0 -38 8 -71t13 -48l328 -671q28 -57 28 -107q0 -119 -180 -119zM1929 2200q23 -9 37 -9q57 0 57 70q0 46 -24 66q-8 8 -8 20q0 29 32 29q29 0 50 -33q20 -42 20 -74q0 -58 -40.5 -98.5t-94.5 -40.5
q-29 0 -53.5 12t-24.5 37q0 21 49 21zM1991 160q-70 0 -70 28q0 21 20 37.5t50 16.5q44 0 54.5 48t10.5 148v963q0 69 41 69q37 0 37 -77v-947q0 -188 -39.5 -237t-103.5 -49zM782 655q33 -26 33 -49q0 -28 -33 -28q-20 0 -37 16q-364 306 -364 729q0 272 147 541
q115 207 366.5 349t506.5 142q113 0 217 -37q53 -13 53 -49q0 -20 -29 -20q-8 0 -40 8q-96 29 -201 29q-242 0 -463 -133.5t-340 -329.5q-135 -214 -135 -500q0 -407 319 -668zM1266 1335q0 54 24 54q25 0 37 -29l303 -598q8 -12 8 -37q0 -29 -28 -29q-30 0 -41 33z
M1544 1294q14 44 70.5 75.5t114.5 31.5q40 -7 40 -33q0 -27 -57 -33q-60 -12 -94 -61q-15 -21 -33 -21q-41 8 -41 41z" />
    <glyph glyph-name="H" unicode="H" horiz-adv-x="2167" 
d="M8 2376q0 206 112 318t265 112q156 0 270.5 -110.5t114.5 -303.5v-688h303v688q0 188 112.5 290.5t268.5 102.5q148 0 258.5 -95t110.5 -265v-795q172 -107 172 -299q0 -95 -45.5 -179t-126.5 -136v-688q0 -120 -58 -211.5t-153.5 -141t-202.5 -49.5q-205 0 -344 168
l-311 377v-221q0 -152 -106 -242t-251 -90q-157 0 -273 108t-116 310v2040zM1655 1593v807q0 88 -56 134t-137 46q-83 0 -148 -50.5t-65 -137.5l8 -799h287v725q0 41 37 41t37 -49v-717h37zM528 905v-528q0 -63 -22.5 -132t-67.5 -85q-20 -8 -53 -8q-41 6 -41 24q0 39 74 57
q13 0 29 31.5t16 46.5v672l-168 234q-57 75 -57 155q0 83 58 145t167 76v725q0 66 29 66q36 0 36 -74v-717h66v750q0 122 -63 192t-146 70q-87 0 -148 -69.5t-61 -200.5v-1999q0 -122 55.5 -186t133.5 -64q82 0 147.5 61.5t65.5 155.5v537zM913 1118h672q98 0 157.5 67.5
t59.5 153.5q0 79 -53.5 134t-155.5 55h-1097q-65 0 -125 -46t-60 -122q0 -77 74 -168l799 -991q88 -107 217 -107q99 0 172.5 67t73.5 175q0 312 -10.5 445t-59.5 169v-590q0 -101 -56.5 -148.5t-136.5 -47.5q-88 0 -127 45l-786 958q-16 28 -16 54q0 24 20 24q23 0 45 -28
l783 -959q28 -41 86 -41q51 0 91 30t40 72v680q-25 41 -90 41q-74 0 -134 -73t-71 -238zM913 1184q-86 0 -86 28q0 29 95 29h680q55 0 77 62q19 40 41 40q33 0 33 -49q0 -39 -50 -74.5t-93 -35.5h-697z" />
    <glyph glyph-name="I" unicode="I" horiz-adv-x="958" 
d="M0 2392q0 190 119.5 298t277.5 108q153 0 263 -104t110 -294v-2040q0 -139 -53 -239t-140 -149.5t-184 -49.5q-158 0 -275.5 117.5t-117.5 320.5v2032zM168 2376v-1991q0 -138 61 -214.5t148 -76.5q84 0 150.5 73.5t66.5 192.5v2016q0 123 -61 188.5t-148 65.5
t-152 -67.5t-65 -186.5zM471 2343q0 74 41 74q33 0 33 -66v-1991q0 -103 -39.5 -151.5t-87.5 -48.5q-58 0 -58 49q0 24 33 24q42 0 60 38.5t18 80.5v1991z" />
    <glyph glyph-name="J" unicode="J" horiz-adv-x="1855" 
d="M799 2392q0 190 119 300t278 110q153 0 263 -108.5t110 -309.5v-1569q0 -146 -85 -351t-279 -361t-500 -156q-58 0 -91 4q-470 34 -639 409q-41 91 -41 189q0 157 98 271t238 114q151 0 283 -143q88 -95 147 -95q99 0 99 226v1470zM975 2376v-1504q0 -178 -77.5 -267
t-188.5 -89q-158 0 -254 131q-86 119 -176 119q-70 0 -117 -64.5t-47 -156.5q0 -38 12 -82q57 -181 222.5 -258.5t297.5 -93.5q275 0 440 125t231 283t66 263v1585q0 121 -60 185.5t-144 64.5t-144.5 -64t-60.5 -177zM1266 2327q0 65 37 65q32 0 32 -57v-1536
q0 -197 -90.5 -343.5t-238.5 -223t-310 -76.5q-138 0 -250 53q-73 33 -73 65q0 21 28 21q26 0 54 -16q117 -50 245 -50q150 0 279.5 69.5t208 201t78.5 307.5v1520z" />
    <glyph glyph-name="K" unicode="K" horiz-adv-x="2359" 
d="M8 2351q0 212 121.5 327t288.5 115q158 0 273.5 -106t115.5 -295v-225l487 495q136 136 299 136q160 0 279 -114t119 -267q0 -156 -127 -283l-623 -623l758 -1015q61 -80 61 -197q0 -149 -101 -261t-296 -112h-1319q-153 0 -244.5 114.5t-91.5 287.5v2023zM184 369
q0 -144 68 -209.5t166 -65.5h1270q94 0 145 60.5t51 136.5q0 74 -37 110l-872 1119l745 745q78 77 78 164q0 78 -58.5 135t-142.5 57q-94 0 -180 -86l-856 -872q-45 -40 -45 -119q0 -93 53 -168l680 -872h-495q-103 0 -131.5 49.5t-28.5 134.5v520q-7 15 -10.5 26t-9.5 17.5
t-21 14.5v-688q0 -70 -29 -70q-28 0 -28 61v799q-58 75 -58 164q0 95 58 188l-9 590q0 66 41 66t41 -66v-504q6 0 23 26.5t22 31.5v503q0 117 -63 181.5t-150 64.5t-152 -68.5t-65 -193.5v-1982zM762 856q0 -151 29 -176q32 -16 147 -16zM426 209h1245q90 0 90 135
q0 41 21 41q20 0 33 -41q8 -40 8 -65q-7 -136 -160 -136h-1237q-33 0 -33 29q0 12 10.5 24.5t22.5 12.5zM1294 537l-663 856q-13 19 -13 37q0 21 21 28q22 0 33 -16l671 -881q13 -17 13 -29q0 -24 -21 -24q-23 0 -41 29zM1630 2441q-8 8 -8 17q0 13 11.5 27t29.5 14
q22 0 41 -25q25 -33 25 -66q0 -57 -74 -127l-725 -745q0 -20 8 -33q8 -16 8 -24q0 -18 -11.5 -31.5t-25.5 -13.5q-9 0 -20 16q-37 35 -37 66q0 26 29 61l721 750q53 53 53 77q0 19 -25 37z" />
    <glyph glyph-name="L" unicode="L" horiz-adv-x="1696" 
d="M0 2367q0 142 54.5 242t142 150.5t184.5 50.5q151 0 262 -110t111 -308v-1577q0 -86 94 -86h250q187 0 290 -110.5t103 -262.5q0 -145 -93.5 -250.5t-262.5 -105.5h-766q-170 0 -269.5 121t-99.5 272v1974zM176 2392v-1974q0 -116 40.5 -183t193.5 -67h696q98 0 153.5 60
t55.5 145q0 78 -50 133t-147 55h-389q-95 0 -123 55t-28 97v1679q0 116 -58.5 179t-138.5 63q-83 0 -144 -64t-61 -178zM455 2351q0 66 37 66q36 0 36 -74v-1720q0 -54 -36 -54q-37 0 -37 62v1720zM418 279h708q37 0 59.5 20.5t22.5 52.5q6 21 25 21q33 0 33 -37
q-11 -56 -53 -87.5t-95 -31.5h-708q-45 0 -45 25q0 37 53 37z" />
    <glyph glyph-name="M" unicode="M" horiz-adv-x="3670" 
d="M623 2503q48 145 160 224t241 79q121 0 218.5 -64.5t141.5 -189.5l209 -570l168 545q36 126 137.5 192t227.5 66q129 0 234.5 -65t150.5 -185l737 -2080q17 -52 17 -111q0 -142 -119 -243t-361 -101h-938q-204 0 -318 47.5t-169 210.5l-328 975l-327 -1016
q-42 -138 -146 -210.5t-227 -72.5q-151 0 -262 99t-111 266q0 80 25 164zM983 1864l-487 -1577q-41 -127 -177 -127q-40 7 -40 37q0 28 40 28q82 0 99 70l504 1577q11 45 41 45q20 0 20 -53zM2150 1200q-99 -302 -176 -328q8 -30 20 -70t37.5 -68.5t73.5 -28.5h238z
M1847 250h1008q111 0 111 82q0 23 -13 69l-696 1966q0 78 16 78q34 0 45 -53l688 -1962q25 -60 25 -106q0 -131 -184 -131h-1000q-45 0 -45 28q0 29 45 29zM2048 1872q8 33 41 33q25 0 25 -33q0 -6 -9 -33l-233 -729q-17 -39 -67 -83t-109 -44q-45 0 -45 29q0 28 37 37
q64 16 90.5 52.5t44.5 90.5zM1024 1786l504 -1475q44 -159 278 -159h1057q99 0 154 49t55 135q0 53 -16 102l-713 2028q-24 67 -82 107t-127 40q-71 0 -131 -47.5t-90 -148.5l-377 -1143q-20 -75 -20 -119q0 -94 54 -151.5t130 -57.5q71 0 137 54t100 159l205 619l80 -231.5
l122 -337.5l141.5 -391.5t99.5 -289.5h-537q-87 0 -143 58q-76 70 -127 278q-25 0 -41 8l78 -274q0 -57 -25 -57q-23 0 -29 28l-106 312q-205 89 -205 270q0 82 37 184l-361 1057q0 57 29 57q24 0 37 -32l336 -963q0 20 11 50t13 40l-327 930q-64 160 -201 160
q-165 0 -242 -234l-622 -1970q-21 -56 -21 -123q0 -94 51 -147.5t125 -53.5t140 51t98 146z" />
    <glyph glyph-name="N" unicode="N" horiz-adv-x="2359" 
d="M8 2425q0 148 107.5 264.5t261.5 116.5q243 0 446 -312l631 -974v897q0 185 120 291t281 106q159 0 276.5 -107t117.5 -299v-1998q0 -238 -137.5 -328t-305.5 -90h-1446q-158 0 -255 90.5t-97 269.5v2073zM184 369q0 -104 61.5 -152.5t147.5 -48.5h1376q149 0 226.5 73
t77.5 169v2007q0 109 -67 169t-159 60q-90 0 -153.5 -56t-63.5 -157v-1008q0 -368 148 -577q53 -82 53 -164q0 -106 -83.5 -182t-195.5 -76q-153 0 -266 135h-581q-111 0 -111 176v975l758 -1098q86 -127 213 -127q80 0 138 53t58 136q0 66 -49 139l-1081 1643
q-120 188 -262 188q-81 0 -133 -62t-52 -159v-2056zM774 1167v-360q0 -17 16.5 -43.5t65.5 -26.5h201zM471 1778q0 32 29 32q16 0 30.5 -13.5t14.5 -35.5v-1147q0 -36 -33 -36q-41 0 -41 36v1164zM520 2417q-8 12 -8 32q0 29 25 29q27 0 49 -37l1110 -1687q20 -36 20 -70
q0 -42 -37 -98q-18 -25 -32 -25q-16 0 -26.5 12.5t-10.5 24.5l8 16q24 37 24 66q0 27 -49 111zM1954 2310q0 98 28 98q17 0 29 -26.5t12 -63.5v-1917q0 -96 -73 -144t-164 -48h-1348q-69 0 -69 33q0 37 69 37h1368q72 0 110 33.5t38 80.5v1917z" />
    <glyph glyph-name="O" unicode="O" horiz-adv-x="3281" 
d="M922 1954q0 -33 -73.5 -149.5t-121 -225t-47.5 -240.5q0 -208 135 -397q192 -270 545 -270q109 0 211 31t187.5 91t146.5 148q147 219 147 438q0 286 -237 484q-207 180 -426 180q-67 0 -126 -12t-133.5 -34.5t-119.5 -33t-88 -10.5zM586 2359q0 227 260.5 326.5
t587.5 99.5q252 0 493.5 -106t436 -300t308 -455.5t113.5 -563.5q-3 -403 -158 -685.5t-387.5 -445.5t-467.5 -233t-404 -70q-298 3 -564 118.5t-464 309.5t-308.5 434t-113.5 486q0 181 41.5 368.5t127.5 351t212 261.5t287 104zM614 2241q-136 -3 -257.5 -124.5t-196 -324
t-74.5 -428.5q0 -214 70 -422t228.5 -393.5t406.5 -315.5q250 -135 552 -135q313 0 600.5 151.5t472.5 448t201 703.5q0 215 -92 430t-261 391t-396.5 279.5t-487.5 103.5q-240 0 -483 -94q-102 -37 -151.5 -98t-49.5 -127q0 -79 59 -136t146 -57q58 0 115 29q186 86 364 86
q220 0 412.5 -110.5t308 -301t115.5 -416.5q0 -100 -25 -196q-82 -323 -320 -501.5t-528 -178.5q-186 0 -357.5 80t-289.5 231q-192 254 -192 520q0 152 52.5 282.5t116.5 223.5l97 141q12 25 12 41q0 24 -12.5 41t-36 36t-37.5 34q-6 8 -26.5 57.5t-55.5 49.5zM791 2200
q45 -58 106 -58q33 0 143 49q154 62 332 62q397 0 692 -332q8 -8 17 -8q33 0 33 53q-321 356 -730 356q-185 0 -368 -73q-89 -41 -115 -41q-40 0 -70 41q-13 20 -28 20q-25 0 -25 -33q0 -13 13 -36zM2478 1577q0 22 12.5 39.5t24.5 17.5q16 0 29 -41q12 -97 12 -188
q0 -273 -99.5 -502t-274.5 -398t-395 -259t-448 -90q-217 0 -417 86q-45 16 -45 41q0 20 32 20q5 0 29 -8q165 -70 377 -70q204 0 412 70.5t379 215t275.5 373.5t104.5 533q0 54 -8 160zM745 598q13 -12 37 -12q25 0 25 28q0 17 -8 25q-336 285 -336 696q0 178 65.5 345.5
t167.5 273.5q17 16 17 37q0 28 -21 28q-19 0 -53 -45q-238 -284 -238 -635q0 -215 92 -411.5t252 -329.5z" />
    <glyph glyph-name="P" unicode="P" horiz-adv-x="1946" 
d="M119 1118q-40 60 -75.5 154.5t-35.5 161.5v917q0 148 134 262.5t321 114.5h536q277 0 466.5 -134t281.5 -356t92 -485q-8 -233 -108.5 -445.5t-297.5 -367t-483 -219.5q-79 -22 -123.5 -72t-44.5 -162v-168q0 -191 -118.5 -298t-278.5 -107q-154 0 -265.5 100.5
t-111.5 280.5v577q0 67 36.5 152t74.5 94zM1143 2142q-129 66 -283 66q-86 0 -139 -8q-76 -11 -109.5 -70t-33.5 -123v-606q0 -191 -99 -234q-45 0 -45 29q0 18 21 37q34 16 41.5 52.5t7.5 123.5v590q0 132 74 207t294 75q167 0 312 -90q8 -4 8 -20q0 -29 -49 -29zM430 152
q-49 0 -49 36q0 34 45 45q61 23 61 160q0 292 100.5 432t301.5 183q187 35 335.5 149.5t232 284.5t83.5 360q0 127 -37 254q0 66 21 66q31 0 45 -41q49 -159 49 -299q0 -214 -98.5 -393t-262.5 -297t-352 -162q-101 -19 -170.5 -52.5t-125.5 -139.5t-56 -312
q0 -99 -21.5 -168t-101.5 -106zM807 1966v-532q148 66 211 154.5t63 242.5q-5 87 -72 111t-202 24zM152 1434q0 -149 79 -240.5t179 -91.5q85 0 144.5 70t59.5 204v520q0 119 21.5 172t74 67.5t171.5 14.5q368 0 368 -372q-6 -182 -93.5 -301.5t-291.5 -227.5l-125.5 -102
t-140.5 -97t-152 -51q-82 0 -184 33q-94 -28 -94 -201v-536q0 -91 62.5 -146t146.5 -55q93 0 161 67t68 191v168q0 145 62.5 235t212.5 126q257 55 434.5 197t264.5 332.5t87 391.5q0 169 -65 328q-194 446 -586 446h-553q-121 0 -216 -90t-95 -188v-864z" />
    <glyph glyph-name="Q" unicode="Q" horiz-adv-x="3400" 
d="M729 2527q79 143 221 193q195 73 430 73q311 0 607.5 -123.5t478.5 -342.5q364 -443 364 -951q0 -544 -430 -1024l152 -258q61 -106 61 -217q0 -153 -116.5 -252.5t-268.5 -99.5q-197 0 -291 164l-176 303q-170 -53 -381 -53q-343 0 -662.5 153.5t-516.5 444.5
q-258 367 -258 827q0 197 53.5 390.5t167.5 368.5t291 318q111 94 221 94q21 0 53 -8zM1688 201q-147 -33 -316 -33q-403 0 -741 233q-25 19 -25 41q0 25 29 25q19 0 45 -21q82 -65 208.5 -115t266 -76t270.5 -26q163 0 271 41q0 58 -127 267q-91 -29 -201 -29
q-226 0 -436 122.5t-309 307.5q-111 184 -111 418q0 391 287 659q90 80 90 176q0 79 -56 134t-137 55q-77 0 -151 -62q-193 -170 -314.5 -428.5t-128.5 -521.5q0 -393 223.5 -718.5t657.5 -481.5q165 -57 418 -57q280 0 287 90zM1360 680l-590 1008q-90 -103 -90 -308
q0 -196 82 -348q86 -145 244 -248.5t354 -103.5zM1442 2048l565 -983q86 130 86 307q0 191 -94 348q-77 141 -235 234.5t-322 93.5zM614 754q-217 263 -217 606q0 219 86 412t222 301q37 32 65 32q16 0 16 -16q0 -19 -24 -49q-143 -140 -225 -321t-82 -371q0 -310 217 -578
q16 -16 16 -37q0 -16 -20 -16q-29 0 -54 37zM1135 2249q75 98 270 98q155 0 321.5 -56.5t247.5 -131.5q33 -28 33 -50q0 -12 -16 -12q-23 0 -54 25q-95 67 -243.5 115.5t-280.5 48.5q-171 0 -229 -86q-20 -33 -49 -33q-25 0 -25 28q0 23 25 54zM2249 446
q198 180 303.5 428.5t105.5 514.5q0 431 -258 745q-165 213 -428 360.5t-559 147.5q-158 0 -315 -49q-92 -28 -145.5 -63t-104.5 -122q115 -78 115 -221q0 -96 -50 -164l1278 -2191q17 -16 107 -16q20 -7 20 -33t-20 -33q-34 -8 -53 -8q-84 0 -115 57l-1241 2130
q-12 0 -12 -28q0 -54 12 -78l1167 -2007q73 -131 201 -131q76 0 132 54t56 138q0 74 -45 148l-1159 2007q-24 48 -24 82q0 55 49.5 86.5t101.5 31.5q205 0 408 -95.5t321 -256.5q164 -204 164 -512q0 -212 -78 -336q-94 -183 -94 -266q0 -88 94 -221q365 397 365 831
q0 191 -74 402q-12 30 -12 53q0 33 20 33q19 0 37 -41q82 -206 82 -430q0 -231 -92 -467t-285 -439q8 -24 25 -41z" />
    <glyph glyph-name="R" unicode="R" horiz-adv-x="2367" 
d="M311 1663l-262 442q-57 89 -57 213q0 166 115.5 288t347.5 122h561q243 0 426.5 -122t280 -322t96.5 -424q0 -210 -87.5 -399t-261.5 -318l369 -598q86 -143 86 -271q0 -160 -119 -256t-274 -96q-208 0 -299 160q-421 704 -479 807v-586q0 -177 -117 -275t-277 -98
q-146 0 -253 88t-107 244v1057q0 149 73 246.5t238 97.5zM942 1999l47 -80.5l44.5 -77l47.5 -80.5q21 40 21 74q0 65 -49.5 114.5t-110.5 49.5zM1008 905q0 -114 8 -131l368 -614q41 -70 140 -70q83 0 154 53.5t71 135.5q0 53 -37 114l-369 623q-38 65 -143 65
q-136 0 -160 -106l213.5 -375.5t184 -311.5t106.5 -87q9 0 25 8q28 0 28 -21q0 -18 -20 -28q-26 -13 -49 -13q-62 0 -108.5 67t-169 290.5t-242.5 400.5zM680 1569q225 0 319 33q-43 84 -144 251t-101 215q0 49 53 66q48 20 106 20q123 0 221.5 -78.5t98.5 -220.5
q0 -55 -16 -110q-44 -154 -159.5 -202t-291.5 -48h-119h-217q-108 0 -160 -13.5t-73 -53.5t-21 -125v-1008q0 -87 53 -135.5t127 -48.5q83 0 148 49.5t65 126.5l-8 626q0 100 52.5 140.5t128 45.5t122.5 7q264 26 434.5 143t249 285.5t78.5 345.5q0 251 -123 393
q-122 143 -244.5 212t-300.5 75h-471q-137 0 -222 -78.5t-85 -191.5q0 -81 45 -156l328 -565h53l-327 573q-5 12 -5 33q0 20 13 20q23 0 41 -28zM688 2216q98 61 225 61q235 0 361 -180q8 -12 8 -29q0 -24 -25 -32q-18 0 -24 12q-56 69 -146 119t-182 53q-92 0 -160 -45
q-24 -12 -40 -12q-29 6 -29 24q0 23 12 29zM369 217q102 45 102 102v697q0 99 78 154t172 55q270 0 440 84.5t254.5 228t120.5 342.5q6 45 29 45q20 0 20 -37q-6 -337 -241.5 -533t-622.5 -196q-65 0 -133 -39t-68 -96v-721q0 -64 -127 -143q-41 14 -41 37q0 15 17 20z" />
    <glyph glyph-name="S" unicode="S" horiz-adv-x="2408" 
d="M279 1528q-156 220 -156 450q0 214 135 430q115 188 336 284.5t455 96.5q98 0 200 -20q260 -63 386 -188.5t126 -266.5q0 -139 -109.5 -239.5t-275.5 -100.5q-147 0 -295 82q-44 25 -98 25q-102 -6 -102 -82q0 -62 69 -103q74 -50 183.5 -91l233 -87.5t210.5 -99.5
q207 -122 304 -306.5t97 -398.5q0 -193 -71.5 -370.5t-194.5 -300.5q-154 -157 -362.5 -236.5t-431.5 -79.5q-319 0 -583.5 147t-350.5 390q-58 166 -58 336q0 428 353 729zM385 1401q-137 -96 -208 -252t-71 -326q0 -183 74.5 -343t204.5 -238q244 -152 533 -152
q209 0 397 85.5t313.5 237.5t157.5 341q12 73 12 147q0 467 -471 651q-66 27 -161.5 60t-165.5 62.5t-136 70.5q-159 88 -159 254q0 103 76.5 172.5t226.5 69.5q78 -7 286 -107q31 -12 66 -12q81 0 149 55.5t68 132.5q0 117 -168 217q-166 99 -389 99q-205 0 -383.5 -90
t-267.5 -263q-70 -140 -70 -299q0 -263 197 -430q12 -12 28 -12q17 0 17 12q0 6 -13 25q-4 8 -21 26t-20 23q0 49 29 49q17 0 29 -12q107 -118 235 -189.5t326 -138.5q29 -6 29 -24q0 -37 -37 -37q-56 11 -95 25t-106.5 41.5t-89.5 35.5q-16 -5 -16 -16q0 -25 24 -33
l192.5 -66t149.5 -66t147 -106.5t80 -142.5q9 -33 9 -90q0 -168 -128.5 -269t-281.5 -108q-168 0 -313.5 83.5t-145.5 252.5q0 89 54 209q14 36 64.5 108t62.5 109q16 39 16 82q0 68 -37 114t-106 46q-84 0 -193 -74zM655 2023q-6 -77 -28 -77q-14 0 -27.5 22.5t-13.5 54.5
q17 164 125.5 254t255.5 90q71 0 139 -24q31 -11 108 -42.5t118 -45.5t61 -14q44 0 57 40q4 9 16 9q29 0 29 -49q-40 -66 -111 -66q-56 4 -153 42.5t-152 55.5t-149 17q-107 0 -191 -96.5t-84 -170.5zM745 233q99 -24 193 -24q190 0 359.5 84t263.5 227q114 177 114 385
q0 283 -205 430q-16 11 -16 25q0 13 21.5 23t35.5 10q242 -186 242 -475q0 -216 -123 -414q-95 -169 -286.5 -265t-421.5 -96q-107 0 -193 17q-57 7 -57 49q0 24 73 24zM623 520q20 -20 20 -41q0 -28 -25 -28q-13 0 -40 20q-97 86 -132.5 171.5t-35.5 221.5q3 51 26.5 109.5
t68.5 141.5t67 131.5t22 88.5q0 54 20 54q39 0 58 -54q0 -48 -25.5 -101.5t-72.5 -132.5t-70 -134q-25 -66 -25 -148q0 -209 144 -299zM831 1118q-114 -144 -114 -278q0 -100 82 -152q64 -45 172 -45q101 0 173.5 51.5t72.5 153.5q-5 110 -109 167.5t-277 102.5z" />
    <glyph glyph-name="T" unicode="T" horiz-adv-x="2298" 
d="M418 303v1122q0 138 -28 200.5t-148 160.5l-93 72t-98.5 80t-94.5 84t-58 67q-82 112 -82 258q0 157 97 269t280 112h1167q135 0 231 -56.5t145.5 -148t49.5 -192.5q0 -149 -100 -257t-277 -108h-319q54 -28 70 -90.5t16 -196.5v-1400q0 -177 -102.5 -271t-250.5 -94
q-102 0 -195.5 46.5t-151.5 134.5t-58 208zM586 1561v-1258q0 -96 68 -154.5t157 -58.5q79 0 133.5 51.5t54.5 153.5v1425q0 92 -49 146t-161 138.5t-158 145.5h753q106 0 164 55t58 134q0 84 -70 148.5t-193 64.5h-1167q-69 0 -128.5 -63.5t-59.5 -149.5q0 -119 114 -209
l163 -133l138 -114.5t109 -104.5q74 -74 74 -217zM586 1786l-377 319q-21 23 -21 33q0 29 33 29q13 0 21 -8l389 -336q28 -24 28 -41t-24 -17q-14 0 -49 21zM889 1720q0 78 29 78q24 0 24 -53v-1442q0 -60 -35 -114t-92 -54q-29 0 -29 33q0 25 13 25q90 18 90 102v1425z
M586 2265h798q103 0 103 78q5 20 24 20q33 0 33 -28q-8 -66 -39.5 -100.5t-128.5 -34.5h-798q-41 0 -41 28q0 37 49 37z" />
    <glyph glyph-name="U" unicode="U" horiz-adv-x="1929" 
d="M1442 2290v-1483q0 -166 -94.5 -322t-259 -253t-367.5 -97q-50 0 -152 17q-49 11 -49 36q0 21 49 21q55 -16 140 -16q158 0 314.5 73.5t258.5 217t102 339.5v1467q0 24 25 24q33 0 33 -24zM-184 2466q0 161 110 250.5t262 89.5q148 0 256.5 -91t108.5 -257v-1500
q0 -128 55.5 -199t132.5 -71q66 0 115 57t49 160v1528q0 174 110.5 273.5t258.5 99.5q152 0 266.5 -107t114.5 -299v-1626q0 -210 -126 -404t-338.5 -313t-453.5 -123q-261 0 -472.5 126.5t-330 331.5t-118.5 423v1651zM279 2367q0 54 36 54q29 0 29 -54v-1425
q0 -254 119 -373q8 -8 8 -24q0 -33 -29 -33q-21 0 -32 16q-75 73 -103 157.5t-28 244.5v1437zM-16 2408v-1593q0 -181 98.5 -348.5t272.5 -270t390 -102.5q140 7 273.5 65t238 157t163.5 225.5t59 265.5v1585q0 125 -59 193.5t-142 68.5t-144 -72.5t-61 -205.5v-1471
q0 -196 -101.5 -309t-238.5 -113q-139 0 -239.5 113.5t-100.5 316.5v1512q0 111 -58 172t-138 61q-87 0 -150 -67t-63 -183z" />
    <glyph glyph-name="V" unicode="V" horiz-adv-x="2384" 
d="M-49 2318q-17 58 -17 111q0 107 56 193t144.5 133t184.5 47q113 0 199 -64t121 -194l299 -1057l319 1040q41 135 137 203t216 68q145 0 254.5 -96t109.5 -248q0 -52 -20 -127l-611 -2069q-46 -152 -165 -238t-260 -86q-143 0 -257.5 85t-156.5 243zM401 2367q0 70 25 70
q26 0 37 -53l426 -1593q0 -50 -25 -50q-21 0 -33 33zM1655 2310q6 25 33 25q24 0 24 -45l-586 -1962q-21 -60 -82.5 -97.5t-138.5 -37.5q-45 0 -45 24q0 25 53 25q55 0 101.5 30.5t58.5 79.5zM930 872l-434 1606q-43 139 -185 139q-82 0 -145.5 -58t-63.5 -151q0 -22 9 -65
l536 -1983q30 -117 105 -181t161 -64q90 0 168.5 63.5t110.5 181.5l606 2016q8 20 8 61q0 84 -61 132t-143 48q-143 0 -185 -131z" />
    <glyph glyph-name="W" unicode="W" horiz-adv-x="4002" 
d="M-41 2298q-29 71 -29 139q0 158 126 263.5t284 105.5q106 0 193 -55t131 -166l503 -1250l58 74l-344 856q-37 98 -37 176q0 146 117.5 216.5t312.5 70.5h823q406 0 406 -283q0 -103 -62 -245l-352 -791l33 -106l581 1282q105 225 340 225q154 0 274 -100.5t120 -251.5
q0 -72 -37 -160l-926 -2097q-114 -262 -369 -262q-110 0 -205 52.5t-139 135.5l-139 291l-143 -291q-49 -100 -141 -154.5t-195 -54.5q-109 0 -204.5 62.5t-139.5 179.5zM418 2408q0 54 20 54q24 0 41 -29l631 -1618q0 -53 -20 -53q-22 0 -33 29zM1159 856l-655 1647
q-53 135 -180 135q-85 0 -149 -61.5t-64 -155.5q0 -51 16 -94l823 -2094q47 -122 185 -122q140 0 192 114q142 287 188 405.5t46 217.5l-275 -598q-12 -39 -50.5 -64.5t-80.5 -25.5q-13 0 -37 8q-33 8 -33 41q0 24 50 24q77 0 90 46l286 651q9 12 9 41q0 55 -50 101t-110 46
q-81 0 -127 -86q-20 -36 -41 -94.5t-33 -81.5zM3166 2318l-917 -2056q-41 -86 -160 -86q-53 0 -53 29q0 28 28 28q101 0 127 62l906 2040q20 41 49 41q28 0 28 -33q0 -7 -8 -25zM2064 807q0 -62 -28 -62q-25 0 -37 29l-574 1401q-12 37 -12 61q0 91 98 91h242q37 0 37 -29
q0 -41 -45 -41h-201q-65 0 -65 -29q0 -11 16 -45zM2847 2503l-742 -1639l-126.5 300l-148.5 352l-135.5 325l-133.5 326q-9 7 -9 20q0 29 217 29q-40 -100 -40 -201q0 -110 45 -192.5t106 -102.5l287 607q31 49 53 49q16 0 16 -29q0 -19 -12 -49l-270 -594q48 0 94.5 71.5
t115.5 231l142 328.5q12 36 12 65q0 75 -61 121.5t-152 46.5h-770q-136 0 -217.5 -24t-81.5 -115q0 -55 29 -123l807 -2044q69 -156 213 -156q69 0 131.5 38.5t89.5 97.5l942 2109q17 41 17 86q0 87 -65.5 146t-152.5 59q-136 0 -200 -139z" />
    <glyph glyph-name="X" unicode="X" horiz-adv-x="2359" 
d="M471 1511l-369 697q-69 132 -69 250q0 162 114.5 257t266.5 95q207 0 299 -164l200 -373l205 369q100 164 303 164q150 0 263.5 -95.5t113.5 -252.5q0 -115 -69 -242l-386 -705l512 -942q50 -92 50 -184q0 -99 -50 -189t-135.5 -143t-183.5 -53h-1266q-162 0 -271.5 92
t-109.5 244q0 118 78 262zM1233 2511l-1131 -1999q-36 -68 -36 -139q0 -89 59 -147t125 -58h1270q92 0 150.5 64t58.5 141q0 45 -17 73l-201.5 379.5l-151.5 287t-64.5 98.5t-61.5 38l422 -803q16 -27 16 -65q0 -64 -41 -114t-110 -50h-1184q-70 0 -70 33q0 29 70 29h1175
q36 0 69.5 28.5t33.5 69.5q0 23 -12 41l-451 831q-172 -43 -172 -221q0 -75 37 -147l127 -242q16 -32 16 -37q0 -16 -53 -16l-418 -8q-53 0 -53 24q0 19 12 37l946 1679q29 46 29 99q0 85 -65.5 144.5t-151.5 59.5q-114 0 -172 -110zM528 664l942 1671q11 20 33 20
q25 0 25 -49l-942 -1675q-28 -49 -49 -49t-21 32q0 24 12 50zM905 848l-98 -160h176zM623 1593l168 287l-271 545q-8 16 -8 20q0 25 33 25q18 0 33 -21l237 -458q10 -21 29 -21q20 0 20 37l-270 528q-53 95 -156 95q-86 0 -163.5 -66.5t-77.5 -146.5q0 -34 20 -74z" />
    <glyph glyph-name="Y" unicode="Y" horiz-adv-x="2519" 
d="M598 377q-25 -58 -25 -103q0 -81 63 -134.5t142 -53.5q130 0 189 123l995 2040q16 32 16 86q-4 94 -57 163.5t-160 69.5h-1503q-93 0 -161 -70.5t-68 -142.5q0 -31 12 -49l639 -1216q59 -107 172 -107q78 0 141.5 55t63.5 138q0 49 -25 98l-434 848q0 37 25 37h802
q25 0 25 -45l-360 -754q0 -33 8 -49q37 -63 37 -127q0 -100 -76 -180t-195 -99zM856 1982l184 -344l152 344h-336zM647 864q-30 0 -122 162t-300 558l-336 624q-32 66 -32 139q0 93 45 181t133 144t207 56h1487q210 0 309.5 -116.5t99.5 -276.5q0 -97 -33 -168l-995 -2032
q-48 -100 -136 -150.5t-188 -50.5q-149 0 -260.5 93t-111.5 243q0 84 41 176zM127 2249q-12 18 -12 32q0 29 24 29q25 0 45 -37l590 -1122q25 -53 115 -53q37 0 37 -21q0 -26 -37 -45q-24 -8 -37 -8q-73 0 -131 82zM606 2216q-49 0 -49 37q0 28 41 28h856q45 0 45 -32
q0 -33 -45 -33h-848zM1847 2474q32 -6 57 -40t25 -75q0 -28 -8 -41l-999 -2101q-16 -26 -63 -45.5t-97 -19.5q-37 12 -37 41q0 16 57 16q61 0 90 53l1000 2065q0 85 -41 106q-16 0 -16 21q0 20 32 20z" />
    <glyph glyph-name="Z" unicode="Z" horiz-adv-x="2335" 
d="M745 1999h-401q-154 0 -247 109.5t-93 254.5q0 151 100.5 258t288.5 107h950q179 0 276 -98.5t97 -245.5q0 -116 -61 -225l-783 -1430h590q122 0 206.5 -47.5t125.5 -126.5t41 -170q0 -151 -97 -268t-259 -117h-1254q-134 0 -239 103t-105 257q0 115 70 238zM1032 2150
l-930 -1638q-41 -72 -41 -147q0 -88 50 -146.5t131 -58.5h1220q80 0 132.5 64t52.5 149q0 79 -53 133.5t-160 54.5h-856l942 1680q20 33 20 98q0 89 -62 155t-204 66h-881q-110 0 -163.5 -54t-53.5 -134t50 -146.5t118 -66.5zM295 279h1139q73 0 86 57q0 49 32 49
q41 0 41 -57q-12 -51 -50 -81t-89 -30h-1167q-41 0 -41 25q0 13 13.5 25t35.5 12zM1450 2232l-913 -1646q-5 -8 -21 -8q-37 0 -37 28q0 12 8 25l906 1610q11 28 37 28q20 0 20 -37zM418 2281h590q57 0 57 -32q0 -33 -57 -33h-582q-41 0 -41 33q0 32 33 32z" />
    <glyph glyph-name="bracketleft" unicode="[" horiz-adv-x="1425" 
d="M0 168v2384q0 167 105 272t239 105h455q200 0 309 -106.5t109 -250.5q0 -140 -103.5 -240t-298.5 -100h-119v-1761h119q120 0 207.5 -47.5t130.5 -124.5t43 -164q0 -139 -99.5 -241.5t-273.5 -102.5h-504q-117 0 -218 112.5t-101 264.5zM152 176q0 -90 51.5 -166
t115.5 -76h496q109 7 165 60.5t56 124.5q0 79 -60 135.5t-169 56.5h-270v2081h270q113 3 177.5 58.5t64.5 129.5q0 81 -67.5 139t-190.5 58h-455q-60 0 -122 -79.5t-62 -178.5v-2343zM479 2511h295q74 0 74 -33q0 -29 -57 -29h-312v-2089q0 -32 -28 -32q-33 0 -33 57v2048
q0 50 13.5 64t47.5 14zM319 33h537q19 0 47.5 22.5t34.5 38.5q6 29 29 29q24 0 24 -41q-41 -107 -176 -107h-496q-28 0 -28 25q0 33 28 33z" />
    <glyph glyph-name="backslash" unicode="\" horiz-adv-x="2023" 
d="M983 119l-1016 2216q-37 88 -37 159q0 128 88.5 213.5t206.5 85.5q194 0 287 -208l1016 -2208q37 -89 37 -156q0 -127 -91.5 -209t-211.5 -82q-194 0 -279 189zM1106 193q57 -132 168 -132q60 0 105.5 46.5t45.5 117.5q0 47 -24 103l-1000 2191q-65 135 -184 135
q-65 0 -108 -41.5t-43 -113.5q0 -58 28 -115zM369 2486l999 -2183q21 -35 21 -74q0 -47 -37 -86q-17 -16 -33 -16q-25 0 -25 29q0 18 17 28q20 16 20 49q0 20 -20 70l-1000 2171q0 45 25 45q19 0 33 -33z" />
    <glyph glyph-name="bracketright" unicode="]" horiz-adv-x="1434" 
d="M1151 168q0 -152 -101 -264.5t-219 -112.5h-503q-174 0 -275.5 104.5t-101.5 243.5q0 134 100.5 233t284.5 99h119v1761h-119q-191 0 -298.5 101t-107.5 243q0 91 46.5 172t140 131t227.5 50h463q134 0 239 -105t105 -272v-2384zM999 176v2343q0 102 -62 180t-122 78
h-455q-122 0 -192 -58.5t-70 -138.5q0 -75 63 -130t175 -58h278v-2081h-270q-106 0 -169.5 -58.5t-63.5 -133.5q0 -72 58 -125t167 -60h495q67 0 117.5 75t50.5 167zM672 2511q33 0 45 -13.5t12 -64.5v-2048q0 -57 -33 -57q-24 0 -24 32v2089h-312q-61 0 -61 29q0 33 78 33
h295zM831 33q25 0 25 -29t-25 -29h-495q-135 0 -176 107q0 37 28 37q23 0 29 -25q6 -16 31.5 -38.5t38.5 -22.5h544z" />
    <glyph glyph-name="asciicircum" unicode="^" horiz-adv-x="2552" 
d="M639 2642q97 90 233 90q157 0 271 -106l635 -627q94 -95 94 -217q0 -94 -56 -184t-147.5 -145.5t-193.5 -55.5q-148 0 -258 106l-275 242q-41 41 -61 41q-16 0 -90 -74l-177 -184q-113 -119 -274 -119q-158 0 -282 112t-124 269q0 163 152 315zM184 1921
q-57 -57 -57 -131q0 -76 56.5 -138.5t131.5 -62.5q79 0 140 66l344 344q53 61 61 61q25 0 62 -37l421 -393q55 -49 119 -49q76 0 134.5 61t58.5 140q0 69 -53 123l-553 544q-52 55 -81.5 79t-78.5 24q-82 0 -193 -111zM279 1679q-13 9 -13 29q0 37 37 37q18 -12 37 -12
q25 0 45 20l287 287q24 24 49 24q24 0 24 -20q0 -21 -24 -45l-303 -295q-45 -45 -90 -45q-29 0 -49 20zM1016 2310q-29 29 -29 57q0 29 25 29q24 0 45 -20l512 -504q24 -25 24 -143q-11 -29 -32 -29q-41 0 -41 45q0 61 -25 94z" />
    <glyph glyph-name="underscore" unicode="_" horiz-adv-x="2626" 
d="M328 -127h1679q141 0 220 -82t79 -197t-81.5 -198.5t-225.5 -83.5h-1663q-149 0 -234.5 84.5t-85.5 197.5q0 114 82.5 196.5t229.5 82.5zM336 -270q-79 0 -125.5 -41.5t-46.5 -98.5q0 -53 45 -90t127 -37h1655q79 0 123.5 40.5t44.5 95.5q0 52 -41 91.5t-111 39.5h-1671z
M1999 -496h-1663q-103 0 -119 66q7 49 29 49q18 0 24 -37q5 -28 82 -28h1639q37 0 37 -25t-29 -25z" />
    <glyph glyph-name="grave" unicode="`" horiz-adv-x="1282" 
d="M594 2720l328 -312q106 -106 106 -225q0 -106 -79 -186t-183 -80q-100 0 -188 82l-369 344q-74 63 -74 168q0 110 81 202.5t190 92.5q101 0 188 -86zM487 2609q-32 33 -77 33q-46 -3 -78.5 -35.5t-32.5 -79.5q0 -49 45 -94l328 -311q40 -41 90 -41q43 0 74.5 33t31.5 77
q0 46 -37 82zM430 2478l283 -262q30 -37 53 -37q11 0 25 12q40 0 40 -20q0 -23 -24 -41q-18 -12 -49 -12q-33 0 -45 12l-312 295q-28 17 -28 41t28 24q17 0 29 -12z" />
    <glyph glyph-name="a" unicode="a" 
d="M57 446l705 2065q48 138 176.5 216.5t278.5 78.5q142 0 256.5 -78t156.5 -225l344 -1069q141 0 232.5 -101t91.5 -235q0 -173 -156 -283l139 -414q13 -46 13 -98q0 -103 -57.5 -191.5t-152 -141t-192.5 -52.5q-100 0 -172 49l-815 545l-131 -336q-45 -118 -144.5 -180
t-215.5 -62q-154 0 -269.5 98t-115.5 259q0 75 28 155zM729 745l-176 -503q-13 -38 -54.5 -64t-88.5 -26q-50 6 -50 32q0 41 66 41q17 0 44.5 21.5t33.5 40.5l168 495l-103 82q-106 75 -106 205q0 107 71 186.5t187 79.5h135l225 664q11 37 41 37q29 0 29 -54l-221 -647h53
l201 578l176 -578h319l-327 1049q0 70 28 70q25 0 37 -37l344 -1082h62l-353 1106q-26 83 -106 134t-176 51q-93 0 -167.5 -51t-107.5 -150l-688 -2015q-20 -56 -20 -119q0 -96 61 -150.5t144 -54.5q66 0 121 35.5t75 103.5l168 488l-24.5 18.5t-20.5 13.5zM1167 1544
l-49 -209h115zM1999 1110q0 45 24 45q22 0 33 -29q8 -24 8 -41q0 -44 -33 -77t-69 -33h-754q-61 0 -61 33q0 26 53 32h754q45 0 45 70zM1257 913h689q90 0 139 55.5t49 129.5q0 73 -44.5 124.5t-127.5 51.5h-1233q-75 0 -136 -65t-61 -144q0 -95 91 -152l1146 -778
q80 -49 136 -49q89 0 149 76t60 125q-22 145 -77 304.5t-108 170.5l127 -410q8 -32 8 -49q0 -62 -45 -109t-106 -47q-49 0 -90 29l-1102 729q-53 32 -53 58q0 20 32 20q31 0 54 -16l1093 -742q26 -16 70 -16q78 0 78 74q0 29 -13 69l-135 455q-24 12 -78 12
q-137 0 -184 -123q-180 112 -328 217z" />
    <glyph glyph-name="b" unicode="b" horiz-adv-x="2486" 
d="M0 2425q0 303 369 303h704q169 0 301.5 -89t204.5 -237.5t72 -316.5q0 -182 -82 -340q409 -311 409 -787q0 -244 -116 -466t-313 -357t-423 -135h-823q-117 0 -206 83.5t-89 235.5zM176 369q0 -134 55.5 -171.5t153.5 -37.5h725q190 0 349 118.5t249 310t90 398.5
q0 210 -103 394.5t-311 297.5q-26 17 -73 17q-71 0 -130 -45t-59 -119q0 -123 152 -275q127 -133 127 -303q0 -102 -48 -195.5t-125 -149.5t-155 -56h-368q-119 0 -119 111v294q-51 18 -58 25v-389q0 -33 -32 -33q-33 0 -33 45v418q-86 79 -86 184q0 114 110 226v647
q0 90 59 145t134 55h270q45 0 45 -24q0 -33 -45 -33h-262q-62 0 -102.5 -49.5t-40.5 -151.5v-536l49 49v463q0 82 26 125t109 43h168q152 0 152 -127q0 -117 -128.5 -288.5t-334.5 -317.5q-152 -107 -152 -226q0 -64 44 -113.5t108 -70.5q138 0 248.5 73.5t246.5 205.5
q4 4 4 24q0 49 -12 49q-116 -127 -216 -202.5t-218 -92.5q-37 0 -111 45q0 58 29 58q12 0 21 -8q21 -33 61 -33q82 6 197.5 98t220.5 229q0 109 59.5 185.5t132.5 89.5q107 159 107 328q0 222 -164 335q-12 13 -12 25q0 33 61 33q180 -140 180 -369q0 -160 -94 -336
q49 0 74 -8q65 155 65 324q0 134 -47.5 246.5t-142 178.5t-227.5 66h-639q-131 0 -182.5 -30t-51.5 -146v-2023zM745 1982v-221q127 153 127 221q0 33 -61 33q-66 0 -66 -33zM1434 1233q0 -49 -33 -49q-7 0 -17 8q-22 60 -127 151q-8 10 -8 21q0 15 10.5 28t22.5 13
q7 0 21 -12q81 -68 131 -160zM410 270h725q100 0 231 89t224 244.5t93 342.5q0 216 -131 430q-8 17 -8 37q0 29 25 29q30 0 49 -33q131 -221 131 -442q0 -154 -56.5 -291t-151 -243.5t-205.5 -165t-210 -58.5h-708q-53 0 -53 37q0 24 45 24zM762 881v-136h287
q81 13 128.5 70.5t47.5 134.5q0 96 -74 176q-195 -226 -389 -245z" />
    <glyph glyph-name="c" unicode="c" horiz-adv-x="2785" 
d="M2130 143q-352 -233 -762 -233q-277 0 -535.5 108t-462 300t-321 436.5t-123.5 511.5q0 409 196.5 762.5t536 561.5t738.5 208q308 0 626 -136q153 -65 228.5 -174.5t75.5 -230.5q0 -141 -93 -244.5t-239 -103.5q-103 0 -209 53q-206 98 -381 98q-203 0 -365.5 -107
t-253 -274.5t-90.5 -335.5q0 -176 93 -333.5t254.5 -254t353.5 -96.5q201 0 389 103q93 53 188 53q142 0 235 -108.5t93 -251.5q0 -197 -172 -312zM1831 606q-222 -114 -463 -114q-232 0 -425.5 114.5t-305.5 306t-117 414.5q0 226 114.5 433t317 333.5t449.5 126.5
q239 0 495 -131q38 -21 82 -21q73 0 124.5 59.5t51.5 137.5q0 168 -200 246q-272 110 -553 110q-275 0 -514 -106.5t-415 -293t-273 -427t-97 -500.5q7 -258 114.5 -479t292 -389t414.5 -260t466 -92q349 0 634 196q111 77 111 181q0 76 -55 130t-137 54q-60 0 -111 -29z
M1946 2200q22 -9 32 -9q54 0 54 66q0 50 -25 70q-8 16 -8 20q0 29 41 29q28 0 41 -25q20 -36 20 -82q0 -61 -39 -100t-92 -39q-25 0 -49 12q-29 22 -29 41q0 17 54 17zM938 225q-41 18 -41 41q0 21 37 21q31 0 57 -17q162 -86 398 -86q140 0 273 32.5t222.5 91.5t106.5 130
q23 70 49 70q33 0 33 -70q-3 -83 -103 -156t-261 -116t-329 -43q-254 0 -442 102zM791 647q36 -26 36 -53q0 -25 -24 -25q-25 0 -41 17q-361 325 -361 733q0 263 152 536q71 133 216.5 245.5t323.5 175.5t341 63q92 0 196 -29q58 -6 58 -37q0 -24 -37 -24q-9 0 -41 8
q-90 29 -189 29q-236 0 -473.5 -135t-349.5 -328q-135 -246 -135 -488q0 -381 328 -688z" />
    <glyph glyph-name="d" unicode="d" horiz-adv-x="2257" 
d="M8 2400q0 173 109.5 264.5t259.5 112.5q159 25 319 25q285 0 549.5 -82.5t458.5 -253.5q266 -228 266 -447q0 -84 -41 -172q197 -117 197 -487q0 -82 -12 -168q-116 -1206 -1459 -1266q-647 0 -647 418v2056zM184 2376v-2007q0 -135 129 -205t273 -70q383 0 678 119
t472.5 372.5t209.5 639.5q4 28 4 98q0 177 -52.5 307.5t-177.5 130.5q-78 -10 -127 -68.5t-49 -275.5q0 -234 -63 -448t-211.5 -352t-388.5 -138q-275 0 -275 303v1114q0 345 344 345q317 -15 492 -320q20 -46 64.5 -90.5t82.5 -44.5q13 0 29 8q61 29 143 29q37 7 37 98
q0 68 -28 151t-95.5 175.5t-179.5 177.5q-287 209 -786 209q-75 0 -197 -8q-118 -8 -223 -68t-105 -182zM594 586q0 -74 -33 -74q-26 0 -41 41q-41 70 -41 160v1249q0 165 124.5 285t387.5 120q90 -6 90 -36q0 -41 -90 -41q-222 0 -326 -114t-104 -239v-1241q0 -61 33 -110z
M1872 1561q24 -123 24 -246q0 -166 -43.5 -331.5t-125.5 -309.5t-191 -248q-149 -137 -366.5 -210t-440.5 -73q-192 0 -352 58q-58 25 -58 65q0 25 29 25q21 0 45 -12q147 -58 336 -58q341 0 655 180q208 117 325.5 380.5t117.5 553.5q0 106 -21 217q6 54 29 54q26 0 37 -45
zM1602 2241q80 -84 107 -140.5t44 -195.5q0 -50 -37 -50q-31 0 -37 41q-13 213 -118 287q-25 18 -25 45q0 33 25 33q20 0 41 -20zM1417 1704q-55 18 -107 85.5l-108.5 143.5t-111.5 99q-74 24 -132 24q-167 0 -167 -143v-1122q0 -144 151 -144q75 14 168 68t169.5 182
t80.5 336v168q0 237 57 303z" />
    <glyph glyph-name="e" unicode="e" horiz-adv-x="2265" 
d="M360 1815l-311 274q-135 117 -135 307q0 103 46 192t139.5 143t228.5 54h1048q170 0 273.5 -112t103.5 -265q0 -161 -123.5 -277t-363.5 -116l319 -295q111 -103 111 -274q0 -163 -106 -284.5t-296 -121.5h-495v-360l671 -8q158 0 251.5 -113.5t93.5 -263.5
q0 -156 -102 -266.5t-296 -110.5h-1057q-352 0 -352 385v1122q0 140 82.5 252.5t269.5 137.5zM401 94h1033q97 0 155 64t58 149t-58 145t-164 60h-626q-185 0 -185 143v385q0 168 160 168h475q99 0 174.5 73t75.5 173q0 116 -115 209l-630 537h540q132 0 205.5 64t73.5 153
q0 80 -61.5 136t-176.5 56h-958q-139 0 -211 -58t-72 -147q0 -134 139 -254l631 -528h-471q-96 0 -148 -68t-52 -145v-1057q0 -111 36 -184.5t172 -73.5zM430 217l995 -8q27 0 58.5 21.5t36.5 56.5q0 15 14 30t31 15q20 0 20 -53q-12 -56 -64 -96t-96 -40h-995q-45 0 -45 37
t45 37zM561 594q0 -86 -33 -86q-32 0 -32 86v516q0 92 68 154.5t149 62.5l544 8q33 0 69 35t42 72q12 37 33 37q33 0 33 -54q0 -62 -57 -106.5t-111 -44.5h-521q-63 0 -123.5 -41.5t-60.5 -126.5v-512zM922 1745q12 -12 12 -25q0 -28 -29 -28q-13 0 -41 20l-266 217
q-25 20 -25 41q0 29 33 29q17 0 33 -17zM672 2183q24 -18 24 -49q0 -25 -20 -25q-14 0 -45 25l-119 98q-16 18 -16 37q0 41 65 41h782q32 0 66.5 25t44.5 57q6 37 29 37q9 0 18.5 -9.5t9.5 -19.5q0 -67 -55 -109t-129 -42h-729z" />
    <glyph glyph-name="f" unicode="f" horiz-adv-x="2191" 
d="M360 1815l-319 282q-131 119 -131 307q0 158 105 269.5t304 111.5h1065q156 0 250.5 -103t94.5 -245q0 -105 -54.5 -198t-167.5 -150t-282 -57l344 -312q102 -96 102 -237q0 -103 -51 -202.5t-138.5 -161.5t-187.5 -62h-446q-43 0 -50 -8t-7 -58v-655q0 -195 -121 -302.5
t-285 -107.5q-159 0 -272 99.5t-113 277.5v1131q0 145 83 257.5t277 123.5zM606 352v713q0 69 29 110.5t139 41.5h475q78 0 154 79t76 179q0 106 -103 196l-622 529h532q131 0 205 66t74 155q0 82 -60 139t-170 57h-975q-135 0 -204.5 -58t-69.5 -146q0 -146 139 -254
l631 -512h-479q-201 0 -201 -238v-1057q0 -121 66.5 -191.5t154.5 -70.5q86 0 147.5 68.5t61.5 193.5zM426 135q-41 0 -41 17q0 27 45 41q49 16 49 77v836q0 118 74 177.5t152 59.5h544q25 0 61 33t42 66q6 37 37 37q28 0 28 -62q-18 -56 -71.5 -99.5t-96.5 -43.5l-512 8
q-68 0 -134 -37.5t-66 -134.5v-852q0 -87 -111 -123zM913 1769q17 -10 17 -32q0 -17 -10.5 -29t-22.5 -12q-16 0 -33 16l-270 225q-25 20 -25 41q0 29 29 29q16 0 33 -16zM664 2191q16 -11 16 -32q0 -37 -33 -37q-6 0 -24 12l-119 98q-12 13 -12 33q0 62 77 62h766
q31 0 62 21.5t37 51.5q12 37 32 37q29 0 29 -37q0 -51 -49.5 -93t-118.5 -42h-741z" />
    <glyph glyph-name="g" unicode="g" horiz-adv-x="2802" 
d="M1745 -16q-198 -62 -393 -62q-264 0 -517.5 102.5t-456.5 287.5t-323 431.5t-129 522.5q0 419 196 769t534 552t737 202q305 0 614 -127q155 -61 233 -172t78 -237q0 -96 -41.5 -178t-115.5 -130.5t-166 -48.5q-104 0 -217 66q-199 111 -389 111q-199 0 -359.5 -110
t-251 -280.5t-90.5 -339.5q0 -209 91 -348.5t222.5 -209.5t264.5 -89q49 0 49 25q0 28 -25 78.5t-89 164.5t-102 190.5t-75 172.5q-33 82 -33 172q0 152 97 250t247 98h631q232 0 312.5 -93.5t80.5 -258.5v-1159q0 -204 -124 -307t-285 -103q-128 0 -205 58zM1368 487
q-302 60 -485.5 164.5t-271 266.5t-99.5 401q0 223 116.5 434t320 341t448.5 130q242 0 483 -135q45 -25 86 -25q73 0 124.5 58t51.5 143q0 161 -196 246q-280 119 -562 119q-267 0 -502.5 -106.5t-411 -293.5t-272 -430.5t-96.5 -505.5q22 -345 203 -620.5t473 -429.5
t627 -154q152 0 283 29q-4 12 -4 35t-5 39q-70 -54 -249 -54q-138 0 -300.5 32t-224.5 62q0 70 37 70v0l25 -8q55 -29 175 -59.5t255 -30.5q166 0 282 53v709q0 19 -20.5 100t-20.5 125q0 82 66 82q70 -5 70 -94q0 -38 -10.5 -105t-10.5 -92v-713q0 -73 70 -122.5t155 -49.5
q82 0 139.5 53t57.5 160v1176q0 184 -176 184h-656q-172 0 -172 -168q0 -38 8 -71t13 -48l328 -671q28 -57 28 -107q0 -119 -180 -119zM1929 2200q23 -9 37 -9q57 0 57 70q0 46 -24 66q-8 8 -8 20q0 29 32 29q29 0 50 -33q20 -42 20 -74q0 -58 -40.5 -98.5t-94.5 -40.5
q-29 0 -53.5 12t-24.5 37q0 21 49 21zM1991 160q-70 0 -70 28q0 21 20 37.5t50 16.5q44 0 54.5 48t10.5 148v963q0 69 41 69q37 0 37 -77v-947q0 -188 -39.5 -237t-103.5 -49zM782 655q33 -26 33 -49q0 -28 -33 -28q-20 0 -37 16q-364 306 -364 729q0 272 147 541
q115 207 366.5 349t506.5 142q113 0 217 -37q53 -13 53 -49q0 -20 -29 -20q-8 0 -40 8q-96 29 -201 29q-242 0 -463 -133.5t-340 -329.5q-135 -214 -135 -500q0 -407 319 -668zM1266 1335q0 54 24 54q25 0 37 -29l303 -598q8 -12 8 -37q0 -29 -28 -29q-30 0 -41 33z
M1544 1294q14 44 70.5 75.5t114.5 31.5q40 -7 40 -33q0 -27 -57 -33q-60 -12 -94 -61q-15 -21 -33 -21q-41 8 -41 41z" />
    <glyph glyph-name="h" unicode="h" horiz-adv-x="2167" 
d="M8 2376q0 206 112 318t265 112q156 0 270.5 -110.5t114.5 -303.5v-688h303v688q0 188 112.5 290.5t268.5 102.5q148 0 258.5 -95t110.5 -265v-795q172 -107 172 -299q0 -95 -45.5 -179t-126.5 -136v-688q0 -120 -58 -211.5t-153.5 -141t-202.5 -49.5q-205 0 -344 168
l-311 377v-221q0 -152 -106 -242t-251 -90q-157 0 -273 108t-116 310v2040zM1655 1593v807q0 88 -56 134t-137 46q-83 0 -148 -50.5t-65 -137.5l8 -799h287v725q0 41 37 41t37 -49v-717h37zM528 905v-528q0 -63 -22.5 -132t-67.5 -85q-20 -8 -53 -8q-41 6 -41 24q0 39 74 57
q13 0 29 31.5t16 46.5v672l-168 234q-57 75 -57 155q0 83 58 145t167 76v725q0 66 29 66q36 0 36 -74v-717h66v750q0 122 -63 192t-146 70q-87 0 -148 -69.5t-61 -200.5v-1999q0 -122 55.5 -186t133.5 -64q82 0 147.5 61.5t65.5 155.5v537zM913 1118h672q98 0 157.5 67.5
t59.5 153.5q0 79 -53.5 134t-155.5 55h-1097q-65 0 -125 -46t-60 -122q0 -77 74 -168l799 -991q88 -107 217 -107q99 0 172.5 67t73.5 175q0 312 -10.5 445t-59.5 169v-590q0 -101 -56.5 -148.5t-136.5 -47.5q-88 0 -127 45l-786 958q-16 28 -16 54q0 24 20 24q23 0 45 -28
l783 -959q28 -41 86 -41q51 0 91 30t40 72v680q-25 41 -90 41q-74 0 -134 -73t-71 -238zM913 1184q-86 0 -86 28q0 29 95 29h680q55 0 77 62q19 40 41 40q33 0 33 -49q0 -39 -50 -74.5t-93 -35.5h-697z" />
    <glyph glyph-name="i" unicode="i" horiz-adv-x="958" 
d="M0 2392q0 190 119.5 298t277.5 108q153 0 263 -104t110 -294v-2040q0 -139 -53 -239t-140 -149.5t-184 -49.5q-158 0 -275.5 117.5t-117.5 320.5v2032zM168 2376v-1991q0 -138 61 -214.5t148 -76.5q84 0 150.5 73.5t66.5 192.5v2016q0 123 -61 188.5t-148 65.5
t-152 -67.5t-65 -186.5zM471 2343q0 74 41 74q33 0 33 -66v-1991q0 -103 -39.5 -151.5t-87.5 -48.5q-58 0 -58 49q0 24 33 24q42 0 60 38.5t18 80.5v1991z" />
    <glyph glyph-name="j" unicode="j" horiz-adv-x="1855" 
d="M799 2392q0 190 119 300t278 110q153 0 263 -108.5t110 -309.5v-1569q0 -146 -85 -351t-279 -361t-500 -156q-58 0 -91 4q-470 34 -639 409q-41 91 -41 189q0 157 98 271t238 114q151 0 283 -143q88 -95 147 -95q99 0 99 226v1470zM975 2376v-1504q0 -178 -77.5 -267
t-188.5 -89q-158 0 -254 131q-86 119 -176 119q-70 0 -117 -64.5t-47 -156.5q0 -38 12 -82q57 -181 222.5 -258.5t297.5 -93.5q275 0 440 125t231 283t66 263v1585q0 121 -60 185.5t-144 64.5t-144.5 -64t-60.5 -177zM1266 2327q0 65 37 65q32 0 32 -57v-1536
q0 -197 -90.5 -343.5t-238.5 -223t-310 -76.5q-138 0 -250 53q-73 33 -73 65q0 21 28 21q26 0 54 -16q117 -50 245 -50q150 0 279.5 69.5t208 201t78.5 307.5v1520z" />
    <glyph glyph-name="k" unicode="k" horiz-adv-x="2359" 
d="M8 2351q0 212 121.5 327t288.5 115q158 0 273.5 -106t115.5 -295v-225l487 495q136 136 299 136q160 0 279 -114t119 -267q0 -156 -127 -283l-623 -623l758 -1015q61 -80 61 -197q0 -149 -101 -261t-296 -112h-1319q-153 0 -244.5 114.5t-91.5 287.5v2023zM184 369
q0 -144 68 -209.5t166 -65.5h1270q94 0 145 60.5t51 136.5q0 74 -37 110l-872 1119l745 745q78 77 78 164q0 78 -58.5 135t-142.5 57q-94 0 -180 -86l-856 -872q-45 -40 -45 -119q0 -93 53 -168l680 -872h-495q-103 0 -131.5 49.5t-28.5 134.5v520q-7 15 -10.5 26t-9.5 17.5
t-21 14.5v-688q0 -70 -29 -70q-28 0 -28 61v799q-58 75 -58 164q0 95 58 188l-9 590q0 66 41 66t41 -66v-504q6 0 23 26.5t22 31.5v503q0 117 -63 181.5t-150 64.5t-152 -68.5t-65 -193.5v-1982zM762 856q0 -151 29 -176q32 -16 147 -16zM426 209h1245q90 0 90 135
q0 41 21 41q20 0 33 -41q8 -40 8 -65q-7 -136 -160 -136h-1237q-33 0 -33 29q0 12 10.5 24.5t22.5 12.5zM1294 537l-663 856q-13 19 -13 37q0 21 21 28q22 0 33 -16l671 -881q13 -17 13 -29q0 -24 -21 -24q-23 0 -41 29zM1630 2441q-8 8 -8 17q0 13 11.5 27t29.5 14
q22 0 41 -25q25 -33 25 -66q0 -57 -74 -127l-725 -745q0 -20 8 -33q8 -16 8 -24q0 -18 -11.5 -31.5t-25.5 -13.5q-9 0 -20 16q-37 35 -37 66q0 26 29 61l721 750q53 53 53 77q0 19 -25 37z" />
    <glyph glyph-name="l" unicode="l" horiz-adv-x="1696" 
d="M0 2367q0 142 54.5 242t142 150.5t184.5 50.5q151 0 262 -110t111 -308v-1577q0 -86 94 -86h250q187 0 290 -110.5t103 -262.5q0 -145 -93.5 -250.5t-262.5 -105.5h-766q-170 0 -269.5 121t-99.5 272v1974zM176 2392v-1974q0 -116 40.5 -183t193.5 -67h696q98 0 153.5 60
t55.5 145q0 78 -50 133t-147 55h-389q-95 0 -123 55t-28 97v1679q0 116 -58.5 179t-138.5 63q-83 0 -144 -64t-61 -178zM455 2351q0 66 37 66q36 0 36 -74v-1720q0 -54 -36 -54q-37 0 -37 62v1720zM418 279h708q37 0 59.5 20.5t22.5 52.5q6 21 25 21q33 0 33 -37
q-11 -56 -53 -87.5t-95 -31.5h-708q-45 0 -45 25q0 37 53 37z" />
    <glyph glyph-name="m" unicode="m" horiz-adv-x="3670" 
d="M623 2503q48 145 160 224t241 79q121 0 218.5 -64.5t141.5 -189.5l209 -570l168 545q36 126 137.5 192t227.5 66q129 0 234.5 -65t150.5 -185l737 -2080q17 -52 17 -111q0 -142 -119 -243t-361 -101h-938q-204 0 -318 47.5t-169 210.5l-328 975l-327 -1016
q-42 -138 -146 -210.5t-227 -72.5q-151 0 -262 99t-111 266q0 80 25 164zM983 1864l-487 -1577q-41 -127 -177 -127q-40 7 -40 37q0 28 40 28q82 0 99 70l504 1577q11 45 41 45q20 0 20 -53zM2150 1200q-99 -302 -176 -328q8 -30 20 -70t37.5 -68.5t73.5 -28.5h238z
M1847 250h1008q111 0 111 82q0 23 -13 69l-696 1966q0 78 16 78q34 0 45 -53l688 -1962q25 -60 25 -106q0 -131 -184 -131h-1000q-45 0 -45 28q0 29 45 29zM2048 1872q8 33 41 33q25 0 25 -33q0 -6 -9 -33l-233 -729q-17 -39 -67 -83t-109 -44q-45 0 -45 29q0 28 37 37
q64 16 90.5 52.5t44.5 90.5zM1024 1786l504 -1475q44 -159 278 -159h1057q99 0 154 49t55 135q0 53 -16 102l-713 2028q-24 67 -82 107t-127 40q-71 0 -131 -47.5t-90 -148.5l-377 -1143q-20 -75 -20 -119q0 -94 54 -151.5t130 -57.5q71 0 137 54t100 159l205 619l80 -231.5
l122 -337.5l141.5 -391.5t99.5 -289.5h-537q-87 0 -143 58q-76 70 -127 278q-25 0 -41 8l78 -274q0 -57 -25 -57q-23 0 -29 28l-106 312q-205 89 -205 270q0 82 37 184l-361 1057q0 57 29 57q24 0 37 -32l336 -963q0 20 11 50t13 40l-327 930q-64 160 -201 160
q-165 0 -242 -234l-622 -1970q-21 -56 -21 -123q0 -94 51 -147.5t125 -53.5t140 51t98 146z" />
    <glyph glyph-name="n" unicode="n" horiz-adv-x="2359" 
d="M8 2425q0 148 107.5 264.5t261.5 116.5q243 0 446 -312l631 -974v897q0 185 120 291t281 106q159 0 276.5 -107t117.5 -299v-1998q0 -238 -137.5 -328t-305.5 -90h-1446q-158 0 -255 90.5t-97 269.5v2073zM184 369q0 -104 61.5 -152.5t147.5 -48.5h1376q149 0 226.5 73
t77.5 169v2007q0 109 -67 169t-159 60q-90 0 -153.5 -56t-63.5 -157v-1008q0 -368 148 -577q53 -82 53 -164q0 -106 -83.5 -182t-195.5 -76q-153 0 -266 135h-581q-111 0 -111 176v975l758 -1098q86 -127 213 -127q80 0 138 53t58 136q0 66 -49 139l-1081 1643
q-120 188 -262 188q-81 0 -133 -62t-52 -159v-2056zM774 1167v-360q0 -17 16.5 -43.5t65.5 -26.5h201zM471 1778q0 32 29 32q16 0 30.5 -13.5t14.5 -35.5v-1147q0 -36 -33 -36q-41 0 -41 36v1164zM520 2417q-8 12 -8 32q0 29 25 29q27 0 49 -37l1110 -1687q20 -36 20 -70
q0 -42 -37 -98q-18 -25 -32 -25q-16 0 -26.5 12.5t-10.5 24.5l8 16q24 37 24 66q0 27 -49 111zM1954 2310q0 98 28 98q17 0 29 -26.5t12 -63.5v-1917q0 -96 -73 -144t-164 -48h-1348q-69 0 -69 33q0 37 69 37h1368q72 0 110 33.5t38 80.5v1917z" />
    <glyph glyph-name="o" unicode="o" horiz-adv-x="3281" 
d="M922 1954q0 -33 -73.5 -149.5t-121 -225t-47.5 -240.5q0 -208 135 -397q192 -270 545 -270q109 0 211 31t187.5 91t146.5 148q147 219 147 438q0 286 -237 484q-207 180 -426 180q-67 0 -126 -12t-133.5 -34.5t-119.5 -33t-88 -10.5zM586 2359q0 227 260.5 326.5
t587.5 99.5q252 0 493.5 -106t436 -300t308 -455.5t113.5 -563.5q-3 -403 -158 -685.5t-387.5 -445.5t-467.5 -233t-404 -70q-298 3 -564 118.5t-464 309.5t-308.5 434t-113.5 486q0 181 41.5 368.5t127.5 351t212 261.5t287 104zM614 2241q-136 -3 -257.5 -124.5t-196 -324
t-74.5 -428.5q0 -214 70 -422t228.5 -393.5t406.5 -315.5q250 -135 552 -135q313 0 600.5 151.5t472.5 448t201 703.5q0 215 -92 430t-261 391t-396.5 279.5t-487.5 103.5q-240 0 -483 -94q-102 -37 -151.5 -98t-49.5 -127q0 -79 59 -136t146 -57q58 0 115 29q186 86 364 86
q220 0 412.5 -110.5t308 -301t115.5 -416.5q0 -100 -25 -196q-82 -323 -320 -501.5t-528 -178.5q-186 0 -357.5 80t-289.5 231q-192 254 -192 520q0 152 52.5 282.5t116.5 223.5l97 141q12 25 12 41q0 24 -12.5 41t-36 36t-37.5 34q-6 8 -26.5 57.5t-55.5 49.5zM791 2200
q45 -58 106 -58q33 0 143 49q154 62 332 62q397 0 692 -332q8 -8 17 -8q33 0 33 53q-321 356 -730 356q-185 0 -368 -73q-89 -41 -115 -41q-40 0 -70 41q-13 20 -28 20q-25 0 -25 -33q0 -13 13 -36zM2478 1577q0 22 12.5 39.5t24.5 17.5q16 0 29 -41q12 -97 12 -188
q0 -273 -99.5 -502t-274.5 -398t-395 -259t-448 -90q-217 0 -417 86q-45 16 -45 41q0 20 32 20q5 0 29 -8q165 -70 377 -70q204 0 412 70.5t379 215t275.5 373.5t104.5 533q0 54 -8 160zM745 598q13 -12 37 -12q25 0 25 28q0 17 -8 25q-336 285 -336 696q0 178 65.5 345.5
t167.5 273.5q17 16 17 37q0 28 -21 28q-19 0 -53 -45q-238 -284 -238 -635q0 -215 92 -411.5t252 -329.5z" />
    <glyph glyph-name="p" unicode="p" horiz-adv-x="1946" 
d="M119 1118q-40 60 -75.5 154.5t-35.5 161.5v917q0 148 134 262.5t321 114.5h536q277 0 466.5 -134t281.5 -356t92 -485q-8 -233 -108.5 -445.5t-297.5 -367t-483 -219.5q-79 -22 -123.5 -72t-44.5 -162v-168q0 -191 -118.5 -298t-278.5 -107q-154 0 -265.5 100.5
t-111.5 280.5v577q0 67 36.5 152t74.5 94zM1143 2142q-129 66 -283 66q-86 0 -139 -8q-76 -11 -109.5 -70t-33.5 -123v-606q0 -191 -99 -234q-45 0 -45 29q0 18 21 37q34 16 41.5 52.5t7.5 123.5v590q0 132 74 207t294 75q167 0 312 -90q8 -4 8 -20q0 -29 -49 -29zM430 152
q-49 0 -49 36q0 34 45 45q61 23 61 160q0 292 100.5 432t301.5 183q187 35 335.5 149.5t232 284.5t83.5 360q0 127 -37 254q0 66 21 66q31 0 45 -41q49 -159 49 -299q0 -214 -98.5 -393t-262.5 -297t-352 -162q-101 -19 -170.5 -52.5t-125.5 -139.5t-56 -312
q0 -99 -21.5 -168t-101.5 -106zM807 1966v-532q148 66 211 154.5t63 242.5q-5 87 -72 111t-202 24zM152 1434q0 -149 79 -240.5t179 -91.5q85 0 144.5 70t59.5 204v520q0 119 21.5 172t74 67.5t171.5 14.5q368 0 368 -372q-6 -182 -93.5 -301.5t-291.5 -227.5l-125.5 -102
t-140.5 -97t-152 -51q-82 0 -184 33q-94 -28 -94 -201v-536q0 -91 62.5 -146t146.5 -55q93 0 161 67t68 191v168q0 145 62.5 235t212.5 126q257 55 434.5 197t264.5 332.5t87 391.5q0 169 -65 328q-194 446 -586 446h-553q-121 0 -216 -90t-95 -188v-864z" />
    <glyph glyph-name="q" unicode="q" horiz-adv-x="3400" 
d="M729 2527q79 143 221 193q195 73 430 73q311 0 607.5 -123.5t478.5 -342.5q364 -443 364 -951q0 -544 -430 -1024l152 -258q61 -106 61 -217q0 -153 -116.5 -252.5t-268.5 -99.5q-197 0 -291 164l-176 303q-170 -53 -381 -53q-343 0 -662.5 153.5t-516.5 444.5
q-258 367 -258 827q0 197 53.5 390.5t167.5 368.5t291 318q111 94 221 94q21 0 53 -8zM1688 201q-147 -33 -316 -33q-403 0 -741 233q-25 19 -25 41q0 25 29 25q19 0 45 -21q82 -65 208.5 -115t266 -76t270.5 -26q163 0 271 41q0 58 -127 267q-91 -29 -201 -29
q-226 0 -436 122.5t-309 307.5q-111 184 -111 418q0 391 287 659q90 80 90 176q0 79 -56 134t-137 55q-77 0 -151 -62q-193 -170 -314.5 -428.5t-128.5 -521.5q0 -393 223.5 -718.5t657.5 -481.5q165 -57 418 -57q280 0 287 90zM1360 680l-590 1008q-90 -103 -90 -308
q0 -196 82 -348q86 -145 244 -248.5t354 -103.5zM1442 2048l565 -983q86 130 86 307q0 191 -94 348q-77 141 -235 234.5t-322 93.5zM614 754q-217 263 -217 606q0 219 86 412t222 301q37 32 65 32q16 0 16 -16q0 -19 -24 -49q-143 -140 -225 -321t-82 -371q0 -310 217 -578
q16 -16 16 -37q0 -16 -20 -16q-29 0 -54 37zM1135 2249q75 98 270 98q155 0 321.5 -56.5t247.5 -131.5q33 -28 33 -50q0 -12 -16 -12q-23 0 -54 25q-95 67 -243.5 115.5t-280.5 48.5q-171 0 -229 -86q-20 -33 -49 -33q-25 0 -25 28q0 23 25 54zM2249 446
q198 180 303.5 428.5t105.5 514.5q0 431 -258 745q-165 213 -428 360.5t-559 147.5q-158 0 -315 -49q-92 -28 -145.5 -63t-104.5 -122q115 -78 115 -221q0 -96 -50 -164l1278 -2191q17 -16 107 -16q20 -7 20 -33t-20 -33q-34 -8 -53 -8q-84 0 -115 57l-1241 2130
q-12 0 -12 -28q0 -54 12 -78l1167 -2007q73 -131 201 -131q76 0 132 54t56 138q0 74 -45 148l-1159 2007q-24 48 -24 82q0 55 49.5 86.5t101.5 31.5q205 0 408 -95.5t321 -256.5q164 -204 164 -512q0 -212 -78 -336q-94 -183 -94 -266q0 -88 94 -221q365 397 365 831
q0 191 -74 402q-12 30 -12 53q0 33 20 33q19 0 37 -41q82 -206 82 -430q0 -231 -92 -467t-285 -439q8 -24 25 -41z" />
    <glyph glyph-name="r" unicode="r" horiz-adv-x="2367" 
d="M311 1663l-262 442q-57 89 -57 213q0 166 115.5 288t347.5 122h561q243 0 426.5 -122t280 -322t96.5 -424q0 -210 -87.5 -399t-261.5 -318l369 -598q86 -143 86 -271q0 -160 -119 -256t-274 -96q-208 0 -299 160q-421 704 -479 807v-586q0 -177 -117 -275t-277 -98
q-146 0 -253 88t-107 244v1057q0 149 73 246.5t238 97.5zM942 1999l47 -80.5l44.5 -77l47.5 -80.5q21 40 21 74q0 65 -49.5 114.5t-110.5 49.5zM1008 905q0 -114 8 -131l368 -614q41 -70 140 -70q83 0 154 53.5t71 135.5q0 53 -37 114l-369 623q-38 65 -143 65
q-136 0 -160 -106l213.5 -375.5t184 -311.5t106.5 -87q9 0 25 8q28 0 28 -21q0 -18 -20 -28q-26 -13 -49 -13q-62 0 -108.5 67t-169 290.5t-242.5 400.5zM680 1569q225 0 319 33q-43 84 -144 251t-101 215q0 49 53 66q48 20 106 20q123 0 221.5 -78.5t98.5 -220.5
q0 -55 -16 -110q-44 -154 -159.5 -202t-291.5 -48h-119h-217q-108 0 -160 -13.5t-73 -53.5t-21 -125v-1008q0 -87 53 -135.5t127 -48.5q83 0 148 49.5t65 126.5l-8 626q0 100 52.5 140.5t128 45.5t122.5 7q264 26 434.5 143t249 285.5t78.5 345.5q0 251 -123 393
q-122 143 -244.5 212t-300.5 75h-471q-137 0 -222 -78.5t-85 -191.5q0 -81 45 -156l328 -565h53l-327 573q-5 12 -5 33q0 20 13 20q23 0 41 -28zM688 2216q98 61 225 61q235 0 361 -180q8 -12 8 -29q0 -24 -25 -32q-18 0 -24 12q-56 69 -146 119t-182 53q-92 0 -160 -45
q-24 -12 -40 -12q-29 6 -29 24q0 23 12 29zM369 217q102 45 102 102v697q0 99 78 154t172 55q270 0 440 84.5t254.5 228t120.5 342.5q6 45 29 45q20 0 20 -37q-6 -337 -241.5 -533t-622.5 -196q-65 0 -133 -39t-68 -96v-721q0 -64 -127 -143q-41 14 -41 37q0 15 17 20z" />
    <glyph glyph-name="s" unicode="s" horiz-adv-x="2408" 
d="M279 1528q-156 220 -156 450q0 214 135 430q115 188 336 284.5t455 96.5q98 0 200 -20q260 -63 386 -188.5t126 -266.5q0 -139 -109.5 -239.5t-275.5 -100.5q-147 0 -295 82q-44 25 -98 25q-102 -6 -102 -82q0 -62 69 -103q74 -50 183.5 -91l233 -87.5t210.5 -99.5
q207 -122 304 -306.5t97 -398.5q0 -193 -71.5 -370.5t-194.5 -300.5q-154 -157 -362.5 -236.5t-431.5 -79.5q-319 0 -583.5 147t-350.5 390q-58 166 -58 336q0 428 353 729zM385 1401q-137 -96 -208 -252t-71 -326q0 -183 74.5 -343t204.5 -238q244 -152 533 -152
q209 0 397 85.5t313.5 237.5t157.5 341q12 73 12 147q0 467 -471 651q-66 27 -161.5 60t-165.5 62.5t-136 70.5q-159 88 -159 254q0 103 76.5 172.5t226.5 69.5q78 -7 286 -107q31 -12 66 -12q81 0 149 55.5t68 132.5q0 117 -168 217q-166 99 -389 99q-205 0 -383.5 -90
t-267.5 -263q-70 -140 -70 -299q0 -263 197 -430q12 -12 28 -12q17 0 17 12q0 6 -13 25q-4 8 -21 26t-20 23q0 49 29 49q17 0 29 -12q107 -118 235 -189.5t326 -138.5q29 -6 29 -24q0 -37 -37 -37q-56 11 -95 25t-106.5 41.5t-89.5 35.5q-16 -5 -16 -16q0 -25 24 -33
l192.5 -66t149.5 -66t147 -106.5t80 -142.5q9 -33 9 -90q0 -168 -128.5 -269t-281.5 -108q-168 0 -313.5 83.5t-145.5 252.5q0 89 54 209q14 36 64.5 108t62.5 109q16 39 16 82q0 68 -37 114t-106 46q-84 0 -193 -74zM655 2023q-6 -77 -28 -77q-14 0 -27.5 22.5t-13.5 54.5
q17 164 125.5 254t255.5 90q71 0 139 -24q31 -11 108 -42.5t118 -45.5t61 -14q44 0 57 40q4 9 16 9q29 0 29 -49q-40 -66 -111 -66q-56 4 -153 42.5t-152 55.5t-149 17q-107 0 -191 -96.5t-84 -170.5zM745 233q99 -24 193 -24q190 0 359.5 84t263.5 227q114 177 114 385
q0 283 -205 430q-16 11 -16 25q0 13 21.5 23t35.5 10q242 -186 242 -475q0 -216 -123 -414q-95 -169 -286.5 -265t-421.5 -96q-107 0 -193 17q-57 7 -57 49q0 24 73 24zM623 520q20 -20 20 -41q0 -28 -25 -28q-13 0 -40 20q-97 86 -132.5 171.5t-35.5 221.5q3 51 26.5 109.5
t68.5 141.5t67 131.5t22 88.5q0 54 20 54q39 0 58 -54q0 -48 -25.5 -101.5t-72.5 -132.5t-70 -134q-25 -66 -25 -148q0 -209 144 -299zM831 1118q-114 -144 -114 -278q0 -100 82 -152q64 -45 172 -45q101 0 173.5 51.5t72.5 153.5q-5 110 -109 167.5t-277 102.5z" />
    <glyph glyph-name="t" unicode="t" horiz-adv-x="2298" 
d="M418 303v1122q0 138 -28 200.5t-148 160.5l-93 72t-98.5 80t-94.5 84t-58 67q-82 112 -82 258q0 157 97 269t280 112h1167q135 0 231 -56.5t145.5 -148t49.5 -192.5q0 -149 -100 -257t-277 -108h-319q54 -28 70 -90.5t16 -196.5v-1400q0 -177 -102.5 -271t-250.5 -94
q-102 0 -195.5 46.5t-151.5 134.5t-58 208zM586 1561v-1258q0 -96 68 -154.5t157 -58.5q79 0 133.5 51.5t54.5 153.5v1425q0 92 -49 146t-161 138.5t-158 145.5h753q106 0 164 55t58 134q0 84 -70 148.5t-193 64.5h-1167q-69 0 -128.5 -63.5t-59.5 -149.5q0 -119 114 -209
l163 -133l138 -114.5t109 -104.5q74 -74 74 -217zM586 1786l-377 319q-21 23 -21 33q0 29 33 29q13 0 21 -8l389 -336q28 -24 28 -41t-24 -17q-14 0 -49 21zM889 1720q0 78 29 78q24 0 24 -53v-1442q0 -60 -35 -114t-92 -54q-29 0 -29 33q0 25 13 25q90 18 90 102v1425z
M586 2265h798q103 0 103 78q5 20 24 20q33 0 33 -28q-8 -66 -39.5 -100.5t-128.5 -34.5h-798q-41 0 -41 28q0 37 49 37z" />
    <glyph glyph-name="u" unicode="u" horiz-adv-x="1929" 
d="M1442 2290v-1483q0 -166 -94.5 -322t-259 -253t-367.5 -97q-50 0 -152 17q-49 11 -49 36q0 21 49 21q55 -16 140 -16q158 0 314.5 73.5t258.5 217t102 339.5v1467q0 24 25 24q33 0 33 -24zM-184 2466q0 161 110 250.5t262 89.5q148 0 256.5 -91t108.5 -257v-1500
q0 -128 55.5 -199t132.5 -71q66 0 115 57t49 160v1528q0 174 110.5 273.5t258.5 99.5q152 0 266.5 -107t114.5 -299v-1626q0 -210 -126 -404t-338.5 -313t-453.5 -123q-261 0 -472.5 126.5t-330 331.5t-118.5 423v1651zM279 2367q0 54 36 54q29 0 29 -54v-1425
q0 -254 119 -373q8 -8 8 -24q0 -33 -29 -33q-21 0 -32 16q-75 73 -103 157.5t-28 244.5v1437zM-16 2408v-1593q0 -181 98.5 -348.5t272.5 -270t390 -102.5q140 7 273.5 65t238 157t163.5 225.5t59 265.5v1585q0 125 -59 193.5t-142 68.5t-144 -72.5t-61 -205.5v-1471
q0 -196 -101.5 -309t-238.5 -113q-139 0 -239.5 113.5t-100.5 316.5v1512q0 111 -58 172t-138 61q-87 0 -150 -67t-63 -183z" />
    <glyph glyph-name="v" unicode="v" horiz-adv-x="2384" 
d="M-49 2318q-17 58 -17 111q0 107 56 193t144.5 133t184.5 47q113 0 199 -64t121 -194l299 -1057l319 1040q41 135 137 203t216 68q145 0 254.5 -96t109.5 -248q0 -52 -20 -127l-611 -2069q-46 -152 -165 -238t-260 -86q-143 0 -257.5 85t-156.5 243zM401 2367q0 70 25 70
q26 0 37 -53l426 -1593q0 -50 -25 -50q-21 0 -33 33zM1655 2310q6 25 33 25q24 0 24 -45l-586 -1962q-21 -60 -82.5 -97.5t-138.5 -37.5q-45 0 -45 24q0 25 53 25q55 0 101.5 30.5t58.5 79.5zM930 872l-434 1606q-43 139 -185 139q-82 0 -145.5 -58t-63.5 -151q0 -22 9 -65
l536 -1983q30 -117 105 -181t161 -64q90 0 168.5 63.5t110.5 181.5l606 2016q8 20 8 61q0 84 -61 132t-143 48q-143 0 -185 -131z" />
    <glyph glyph-name="w" unicode="w" horiz-adv-x="4002" 
d="M-41 2298q-29 71 -29 139q0 158 126 263.5t284 105.5q106 0 193 -55t131 -166l503 -1250l58 74l-344 856q-37 98 -37 176q0 146 117.5 216.5t312.5 70.5h823q406 0 406 -283q0 -103 -62 -245l-352 -791l33 -106l581 1282q105 225 340 225q154 0 274 -100.5t120 -251.5
q0 -72 -37 -160l-926 -2097q-114 -262 -369 -262q-110 0 -205 52.5t-139 135.5l-139 291l-143 -291q-49 -100 -141 -154.5t-195 -54.5q-109 0 -204.5 62.5t-139.5 179.5zM418 2408q0 54 20 54q24 0 41 -29l631 -1618q0 -53 -20 -53q-22 0 -33 29zM1159 856l-655 1647
q-53 135 -180 135q-85 0 -149 -61.5t-64 -155.5q0 -51 16 -94l823 -2094q47 -122 185 -122q140 0 192 114q142 287 188 405.5t46 217.5l-275 -598q-12 -39 -50.5 -64.5t-80.5 -25.5q-13 0 -37 8q-33 8 -33 41q0 24 50 24q77 0 90 46l286 651q9 12 9 41q0 55 -50 101t-110 46
q-81 0 -127 -86q-20 -36 -41 -94.5t-33 -81.5zM3166 2318l-917 -2056q-41 -86 -160 -86q-53 0 -53 29q0 28 28 28q101 0 127 62l906 2040q20 41 49 41q28 0 28 -33q0 -7 -8 -25zM2064 807q0 -62 -28 -62q-25 0 -37 29l-574 1401q-12 37 -12 61q0 91 98 91h242q37 0 37 -29
q0 -41 -45 -41h-201q-65 0 -65 -29q0 -11 16 -45zM2847 2503l-742 -1639l-126.5 300l-148.5 352l-135.5 325l-133.5 326q-9 7 -9 20q0 29 217 29q-40 -100 -40 -201q0 -110 45 -192.5t106 -102.5l287 607q31 49 53 49q16 0 16 -29q0 -19 -12 -49l-270 -594q48 0 94.5 71.5
t115.5 231l142 328.5q12 36 12 65q0 75 -61 121.5t-152 46.5h-770q-136 0 -217.5 -24t-81.5 -115q0 -55 29 -123l807 -2044q69 -156 213 -156q69 0 131.5 38.5t89.5 97.5l942 2109q17 41 17 86q0 87 -65.5 146t-152.5 59q-136 0 -200 -139z" />
    <glyph glyph-name="x" unicode="x" horiz-adv-x="2359" 
d="M471 1511l-369 697q-69 132 -69 250q0 162 114.5 257t266.5 95q207 0 299 -164l200 -373l205 369q100 164 303 164q150 0 263.5 -95.5t113.5 -252.5q0 -115 -69 -242l-386 -705l512 -942q50 -92 50 -184q0 -99 -50 -189t-135.5 -143t-183.5 -53h-1266q-162 0 -271.5 92
t-109.5 244q0 118 78 262zM1233 2511l-1131 -1999q-36 -68 -36 -139q0 -89 59 -147t125 -58h1270q92 0 150.5 64t58.5 141q0 45 -17 73l-201.5 379.5l-151.5 287t-64.5 98.5t-61.5 38l422 -803q16 -27 16 -65q0 -64 -41 -114t-110 -50h-1184q-70 0 -70 33q0 29 70 29h1175
q36 0 69.5 28.5t33.5 69.5q0 23 -12 41l-451 831q-172 -43 -172 -221q0 -75 37 -147l127 -242q16 -32 16 -37q0 -16 -53 -16l-418 -8q-53 0 -53 24q0 19 12 37l946 1679q29 46 29 99q0 85 -65.5 144.5t-151.5 59.5q-114 0 -172 -110zM528 664l942 1671q11 20 33 20
q25 0 25 -49l-942 -1675q-28 -49 -49 -49t-21 32q0 24 12 50zM905 848l-98 -160h176zM623 1593l168 287l-271 545q-8 16 -8 20q0 25 33 25q18 0 33 -21l237 -458q10 -21 29 -21q20 0 20 37l-270 528q-53 95 -156 95q-86 0 -163.5 -66.5t-77.5 -146.5q0 -34 20 -74z" />
    <glyph glyph-name="y" unicode="y" horiz-adv-x="2519" 
d="M598 377q-25 -58 -25 -103q0 -81 63 -134.5t142 -53.5q130 0 189 123l995 2040q16 32 16 86q-4 94 -57 163.5t-160 69.5h-1503q-93 0 -161 -70.5t-68 -142.5q0 -31 12 -49l639 -1216q59 -107 172 -107q78 0 141.5 55t63.5 138q0 49 -25 98l-434 848q0 37 25 37h802
q25 0 25 -45l-360 -754q0 -33 8 -49q37 -63 37 -127q0 -100 -76 -180t-195 -99zM856 1982l184 -344l152 344h-336zM647 864q-30 0 -122 162t-300 558l-336 624q-32 66 -32 139q0 93 45 181t133 144t207 56h1487q210 0 309.5 -116.5t99.5 -276.5q0 -97 -33 -168l-995 -2032
q-48 -100 -136 -150.5t-188 -50.5q-149 0 -260.5 93t-111.5 243q0 84 41 176zM127 2249q-12 18 -12 32q0 29 24 29q25 0 45 -37l590 -1122q25 -53 115 -53q37 0 37 -21q0 -26 -37 -45q-24 -8 -37 -8q-73 0 -131 82zM606 2216q-49 0 -49 37q0 28 41 28h856q45 0 45 -32
q0 -33 -45 -33h-848zM1847 2474q32 -6 57 -40t25 -75q0 -28 -8 -41l-999 -2101q-16 -26 -63 -45.5t-97 -19.5q-37 12 -37 41q0 16 57 16q61 0 90 53l1000 2065q0 85 -41 106q-16 0 -16 21q0 20 32 20z" />
    <glyph glyph-name="z" unicode="z" horiz-adv-x="2335" 
d="M745 1999h-401q-154 0 -247 109.5t-93 254.5q0 151 100.5 258t288.5 107h950q179 0 276 -98.5t97 -245.5q0 -116 -61 -225l-783 -1430h590q122 0 206.5 -47.5t125.5 -126.5t41 -170q0 -151 -97 -268t-259 -117h-1254q-134 0 -239 103t-105 257q0 115 70 238zM1032 2150
l-930 -1638q-41 -72 -41 -147q0 -88 50 -146.5t131 -58.5h1220q80 0 132.5 64t52.5 149q0 79 -53 133.5t-160 54.5h-856l942 1680q20 33 20 98q0 89 -62 155t-204 66h-881q-110 0 -163.5 -54t-53.5 -134t50 -146.5t118 -66.5zM295 279h1139q73 0 86 57q0 49 32 49
q41 0 41 -57q-12 -51 -50 -81t-89 -30h-1167q-41 0 -41 25q0 13 13.5 25t35.5 12zM1450 2232l-913 -1646q-5 -8 -21 -8q-37 0 -37 28q0 12 8 25l906 1610q11 28 37 28q20 0 20 -37zM418 2281h590q57 0 57 -32q0 -33 -57 -33h-582q-41 0 -41 33q0 32 33 32z" />
    <glyph glyph-name="braceleft" unicode="{" horiz-adv-x="2081" 
d="M578 119v1147h-308q-150 0 -238.5 92.5t-88.5 214.5q0 126 90.5 216.5t253.5 90.5h299v729q0 328 311 328h406q180 0 278 -95t98 -225q0 -126 -94.5 -216.5t-265.5 -90.5h-102v-1880h110q165 0 254.5 -89.5t89.5 -217.5q0 -129 -91.5 -226.5t-252.5 -97.5h-463
q-109 0 -197.5 89.5t-88.5 230.5zM713 160q0 -68 55.5 -142.5t103.5 -74.5h447q95 3 148 49.5t53 109.5q0 67 -56 117.5t-153 50.5h-254v2196h254q103 0 162 48.5t59 115.5q0 70 -60 121t-169 51h-406q-176 0 -176 -217v-840h-434q-94 0 -147.5 -51t-53.5 -117
q0 -69 52.5 -118.5t148.5 -49.5h426v-1249zM1016 2568h278q78 0 78 -33q0 -32 -78 -32h-278v-2175q0 -29 -21 -29q-12 0 -24.5 10.5t-12.5 26.5v2158q0 74 58 74zM897 41h463q47 0 65 45q0 12 17 12q28 0 28 -24q-6 -36 -40 -63t-62 -27h-471q-25 0 -25 28q0 29 25 29z
M696 1495q54 0 54 -25q0 -20 -54 -20h-438q-40 0 -78.5 27t-44.5 67q5 37 25 37q33 0 33 -29q0 -23 20 -40t49 -17h434z" />
    <glyph glyph-name="bar" unicode="|" horiz-adv-x="721" 
d="M0 258v2200q0 166 101.5 257t238.5 91q139 0 239.5 -91t100.5 -257l8 -2196q0 -162 -105.5 -257t-246.5 -95q-136 0 -236 92t-100 256zM143 279q0 -98 60 -153.5t141 -55.5q77 0 130.5 52t53.5 148v2163q0 102 -59.5 159.5t-140.5 57.5q-77 0 -131 -55.5t-54 -153.5
v-2162zM479 2408v-2146q0 -42 -23 -88t-71 -63q-57 0 -57 28q0 26 41 37q57 8 57 111v2121q0 50 25 50q28 0 28 -50z" />
    <glyph glyph-name="braceright" unicode="}" horiz-adv-x="2073" 
d="M1024 119q0 -94 -40.5 -168t-106.5 -113t-140 -39h-467q-156 0 -248 97.5t-92 226.5q0 126 89.5 216.5t250.5 90.5h115v1880h-106q-168 0 -262.5 89.5t-94.5 213.5q0 131 97.5 227.5t275.5 96.5h418q303 0 303 -328v-729h295q166 0 257 -92.5t91 -218.5
q0 -122 -86.5 -212.5t-237.5 -90.5h-311v-1147zM889 160v1249h430q92 0 144.5 48.5t52.5 115.5q0 70 -54 121t-151 51h-430v840q0 217 -168 217h-410q-111 0 -170 -50.5t-59 -121.5q0 -67 56.5 -115.5t156.5 -48.5h266l-8 -2196h-258q-95 0 -150 -52t-55 -120
q0 -64 50.5 -108t146.5 -47h450q52 0 106 73t54 144zM586 2568q53 0 53 -74v-2158q0 -16 -11.5 -26.5t-21.5 -10.5q-20 0 -20 29v2175h-283q-70 0 -70 32q0 33 78 33h275zM713 41q16 0 16 -25q0 -32 -24 -32h-463q-34 0 -70.5 28t-36.5 62q6 24 25 24q18 0 24 -12
q20 -45 66 -45h463zM905 1495h438q27 0 50.5 17t23.5 40q7 29 21 29q24 0 24 -37q-6 -43 -39.5 -68.5t-79.5 -25.5h-438q-53 0 -53 20q0 25 53 25z" />
    <glyph glyph-name="asciitilde" unicode="~" horiz-adv-x="2392" 
d="M233 1098q210 143 484 143q134 0 282 -33q245 -53 295 -53q90 0 234 62q61 24 123 24q132 0 225.5 -97.5t93.5 -221.5q0 -177 -184 -275q-242 -135 -471 -135q-138 0 -357 57q-101 29 -204 29q-132 0 -291 -61q-38 -17 -90 -17q-76 0 -144 44.5t-109.5 117t-41.5 154.5
q0 158 155 262zM295 950q-57 -57 -57 -119q0 -58 39.5 -98.5t95.5 -40.5q28 0 57 13q176 69 328 69q104 0 217 -29q206 -45 356 -45q222 0 381 91q82 46 82 135q0 57 -37 100t-98 43q-27 0 -57 -12q-178 -53 -353 -53q-149 0 -266 45q-113 49 -254 49q-128 0 -245 -39.5
t-189 -108.5zM848 975q-41 4 -119 4q-180 -7 -291 -66q-61 -40 -61 -106q-7 -41 -41 -41q-27 0 -33 25q0 100 41 131q158 118 365 118q41 0 147 -8q53 -6 53 -28q0 -29 -61 -29zM1249 799q41 -4 115 -4q168 7 266 61q66 42 66 82q7 37 28 37q5 0 21 -8q16 -17 16 -41
q0 -56 -65 -95q-169 -94 -328 -94q-37 0 -135 8q-41 7 -41 25q0 29 57 29z" />
    <glyph glyph-name="Adieresis" unicode="&#xc4;" 
d="M57 446l705 2065q48 138 176.5 216.5t278.5 78.5q142 0 256.5 -78t156.5 -225l344 -1069q141 0 232.5 -101t91.5 -235q0 -173 -156 -283l139 -414q13 -46 13 -98q0 -103 -57.5 -191.5t-152 -141t-192.5 -52.5q-100 0 -172 49l-815 545l-131 -336q-45 -118 -144.5 -180
t-215.5 -62q-154 0 -269.5 98t-115.5 259q0 75 28 155zM729 745l-176 -503q-13 -38 -54.5 -64t-88.5 -26q-50 6 -50 32q0 41 66 41q17 0 44.5 21.5t33.5 40.5l168 495l-103 82q-106 75 -106 205q0 107 71 186.5t187 79.5h135l225 664q11 37 41 37q29 0 29 -54l-221 -647h53
l201 578l176 -578h319l-327 1049q0 70 28 70q25 0 37 -37l344 -1082h62l-353 1106q-26 83 -106 134t-176 51q-93 0 -167.5 -51t-107.5 -150l-688 -2015q-20 -56 -20 -119q0 -96 61 -150.5t144 -54.5q66 0 121 35.5t75 103.5l168 488l-24.5 18.5t-20.5 13.5zM1167 1544
l-49 -209h115zM1999 1110q0 45 24 45q22 0 33 -29q8 -24 8 -41q0 -44 -33 -77t-69 -33h-754q-61 0 -61 33q0 26 53 32h754q45 0 45 70zM1257 913h689q90 0 139 55.5t49 129.5q0 73 -44.5 124.5t-127.5 51.5h-1233q-75 0 -136 -65t-61 -144q0 -95 91 -152l1146 -778
q80 -49 136 -49q89 0 149 76t60 125q-22 145 -77 304.5t-108 170.5l127 -410q8 -32 8 -49q0 -62 -45 -109t-106 -47q-49 0 -90 29l-1102 729q-53 32 -53 58q0 20 32 20q31 0 54 -16l1093 -742q26 -16 70 -16q78 0 78 74q0 29 -13 69l-135 455q-24 12 -78 12
q-137 0 -184 -123q-180 112 -328 217zM901 3002q135 14 135 136q0 58 -36 100.5t-99 42.5q-151 0 -151 -135q0 -144 151 -144zM901 2892q-101 0 -179.5 71t-78.5 166q0 104 72 181t178 77q103 0 178.5 -79t75.5 -170q-6 -91 -80 -168.5t-166 -77.5zM950 3170q5 0 12.5 8.5
t8.5 8.5v0q12 -19 12 -41q0 -36 -26 -65t-64 -29q-29 0 -41 8q-16 0 -16 12q0 8 41 8q73 0 73 90zM1548 3002q127 13 127 136q0 135 -127 135q-159 0 -159 -135q0 -58 47 -97t112 -39zM1532 2896q-95 0 -170.5 69.5t-75.5 163.5q0 104 74 181t180 77q108 0 183 -75t75 -183
q0 -98 -81 -165.5t-185 -67.5zM1589 3170q0 33 8 33q14 0 25 -16q8 -26 8 -37q0 -39 -23.5 -68.5t-62.5 -29.5q-28 0 -45 8q-16 0 -16 8q0 20 41 20q73 0 73 58q0 8 -8 24z" />
    <glyph glyph-name="Aring" unicode="&#xc5;" 
d="M57 446l705 2065q48 138 176.5 216.5t278.5 78.5q142 0 256.5 -78t156.5 -225l344 -1069q141 0 232.5 -101t91.5 -235q0 -173 -156 -283l139 -414q13 -46 13 -98q0 -103 -57.5 -191.5t-152 -141t-192.5 -52.5q-100 0 -172 49l-815 545l-131 -336q-45 -118 -144.5 -180
t-215.5 -62q-154 0 -269.5 98t-115.5 259q0 75 28 155zM729 745l-176 -503q-13 -38 -54.5 -64t-88.5 -26q-50 6 -50 32q0 41 66 41q17 0 44.5 21.5t33.5 40.5l168 495l-103 82q-106 75 -106 205q0 107 71 186.5t187 79.5h135l225 664q11 37 41 37q29 0 29 -54l-221 -647h53
l201 578l176 -578h319l-327 1049q0 70 28 70q25 0 37 -37l344 -1082h62l-353 1106q-26 83 -106 134t-176 51q-93 0 -167.5 -51t-107.5 -150l-688 -2015q-20 -56 -20 -119q0 -96 61 -150.5t144 -54.5q66 0 121 35.5t75 103.5l168 488l-24.5 18.5t-20.5 13.5zM1167 1544
l-49 -209h115zM1999 1110q0 45 24 45q22 0 33 -29q8 -24 8 -41q0 -44 -33 -77t-69 -33h-754q-61 0 -61 33q0 26 53 32h754q45 0 45 70zM1257 913h689q90 0 139 55.5t49 129.5q0 73 -44.5 124.5t-127.5 51.5h-1233q-75 0 -136 -65t-61 -144q0 -95 91 -152l1146 -778
q80 -49 136 -49q89 0 149 76t60 125q-22 145 -77 304.5t-108 170.5l127 -410q8 -32 8 -49q0 -62 -45 -109t-106 -47q-49 0 -90 29l-1102 729q-53 32 -53 58q0 20 32 20q31 0 54 -16l1093 -742q26 -16 70 -16q78 0 78 74q0 29 -13 69l-135 455q-24 12 -78 12
q-137 0 -184 -123q-180 112 -328 217zM1294 3265q-1 0 -34 18t-60 18q-32 0 -57 -20q-45 -34 -45 -90q0 -43 28 -78q23 -29 70 -29q53 0 90 37q29 29 29 62q0 22 -10.5 49t-10.5 33zM1303 3318q16 -8 24 -8q37 0 37 41q0 21 -16 32q-67 49 -144 49q-68 0 -123.5 -34.5
t-85.5 -92.5q-24 -60 -24 -114q0 -98 71.5 -166t165.5 -68q43 0 78 13q164 62 164 221q0 84 -45 135h-33q-17 -17 -24 -21q0 -6 1.5 -18t6.5 -22q16 -33 16 -74q0 -67 -51.5 -115.5t-116.5 -48.5q-29 0 -53 12q-107 47 -107 156q0 67 58 119q37 37 98 37q58 0 103 -33z
M1339 3334q0 5 -3 10t-5 7h-12q-46 28 -102 28q-106 0 -164 -74q-37 -49 -37 -114q0 -92 69 -144q17 0 17 9q-66 53 -66 135q0 58 33 98q63 70 135 70q46 0 107 -33q20 0 28 8zM1143 2998q24 -8 69 -8q89 0 149 56t60 141q0 44 -24 94q0 12 8 20q2 0 8 -12q25 -43 25 -94
q0 -88 -67 -156.5t-159 -68.5q-35 0 -77 12q0 16 8 16zM1421 3375q62 0 86 -143q0 -148 -85.5 -244t-213.5 -96q-74 0 -147 37q-143 75 -143 258q0 96 57 175.5t168 110.5q36 9 61 9q78 0 144.5 -31t72.5 -76z" />
    <glyph glyph-name="Ccedilla" unicode="&#xc7;" horiz-adv-x="2785" 
d="M1946 2200q22 -9 32 -9q54 0 54 66q0 50 -25 70q-8 16 -8 20q0 29 41 29q28 0 41 -25q20 -36 20 -82q0 -61 -39 -100t-92 -39q-25 0 -49 12q-29 22 -29 41q0 17 54 17zM938 225q-41 18 -41 41q0 21 37 21q31 0 57 -17q162 -86 398 -86q140 0 273 32.5t222.5 91.5
t106.5 130q23 70 49 70q33 0 33 -70q-3 -83 -103 -156t-261 -116t-329 -43q-254 0 -442 102zM791 647q36 -26 36 -53q0 -25 -24 -25q-25 0 -41 17q-361 325 -361 733q0 263 152 536q71 133 216.5 245.5t323.5 175.5t341 63q92 0 196 -29q58 -6 58 -37q0 -24 -37 -24
q-9 0 -41 8q-90 29 -189 29q-236 0 -473.5 -135t-349.5 -328q-135 -246 -135 -488q0 -381 328 -688zM1118 -82q-571 121 -878.5 478t-313.5 870q0 409 196.5 762.5t536 561.5t738.5 208q308 0 626 -136q153 -65 228.5 -174.5t75.5 -230.5q0 -141 -93 -244.5t-239 -103.5
q-103 0 -209 53q-206 98 -381 98q-203 0 -365.5 -107t-253 -274.5t-90.5 -335.5q0 -175 93.5 -333t257 -254.5t354.5 -96.5q203 0 385 103q86 49 184 49q144 0 238 -108.5t94 -251.5q0 -195 -172 -308q-201 -132 -306.5 -180.5t-262.5 -56.5l-66 -148q157 0 224 -95t67 -208
q0 -463 -483 -463q-266 12 -348.5 107t-82.5 188q15 163 152 176q-45 23 -45 86q0 50 29 107zM1462 74q295 18 561 196q111 77 111 181q0 76 -55 130t-137 54q-60 0 -111 -29q-222 -114 -463 -114q-232 0 -425.5 114.5t-305.5 306t-117 414.5q0 226 114.5 433t317 333.5
t449.5 126.5q239 0 495 -131q51 -21 82 -21q73 0 124.5 61.5t51.5 139.5q0 170 -200 242q-272 110 -553 110q-275 0 -514 -106.5t-415 -293t-273 -427t-97 -500.5q7 -254 113.5 -477.5t284.5 -387.5t401 -257t459 -98l-201 -443q-16 -27 -16 -53q0 -57 139 -57
q101 -12 144.5 -28.5t43.5 -98.5q0 -107 -127 -107q-59 0 -141.5 33t-128.5 33q-25 0 -41 -21.5t-16 -52.5q0 -64 109.5 -103.5t217.5 -39.5q127 0 207 83t80 220q0 201 -241 201q-15 0 -107 -9zM1544 -418q31 -15 52.5 -55.5t21.5 -79.5q0 -110 -75 -202.5t-208 -92.5
q-49 0 -61 8q-12 4 -12 13q0 12 20 12q4 0 26 -4t35 -4q103 0 173.5 75.5t76.5 194.5q0 36 -23 73t-50 54q0 16 4 16t20 -8z" />
    <glyph glyph-name="Eacute" unicode="&#xc9;" horiz-adv-x="2265" 
d="M360 1815l-311 274q-135 117 -135 307q0 103 46 192t139.5 143t228.5 54h1048q170 0 273.5 -112t103.5 -265q0 -161 -123.5 -277t-363.5 -116l319 -295q111 -103 111 -274q0 -163 -106 -284.5t-296 -121.5h-495v-360l671 -8q158 0 251.5 -113.5t93.5 -263.5
q0 -156 -102 -266.5t-296 -110.5h-1057q-352 0 -352 385v1122q0 140 82.5 252.5t269.5 137.5zM401 94h1033q97 0 155 64t58 149t-58 145t-164 60h-626q-185 0 -185 143v385q0 168 160 168h475q99 0 174.5 73t75.5 173q0 116 -115 209l-630 537h540q132 0 205.5 64t73.5 153
q0 80 -61.5 136t-176.5 56h-958q-139 0 -211 -58t-72 -147q0 -134 139 -254l631 -528h-471q-96 0 -148 -68t-52 -145v-1057q0 -111 36 -184.5t172 -73.5zM430 217l995 -8q27 0 58.5 21.5t36.5 56.5q0 15 14 30t31 15q20 0 20 -53q-12 -56 -64 -96t-96 -40h-995q-45 0 -45 37
t45 37zM561 594q0 -86 -33 -86q-32 0 -32 86v516q0 92 68 154.5t149 62.5l544 8q33 0 69 35t42 72q12 37 33 37q33 0 33 -54q0 -62 -57 -106.5t-111 -44.5h-521q-63 0 -123.5 -41.5t-60.5 -126.5v-512zM922 1745q12 -12 12 -25q0 -28 -29 -28q-13 0 -41 20l-266 217
q-25 20 -25 41q0 29 33 29q17 0 33 -17zM672 2183q24 -18 24 -49q0 -25 -20 -25q-14 0 -45 25l-119 98q-16 18 -16 37q0 41 65 41h782q32 0 66.5 25t44.5 57q6 37 29 37q9 0 18.5 -9.5t9.5 -19.5q0 -67 -55 -109t-129 -42h-729zM614 3334l312 328q94 106 225 106
q106 0 184 -75t78 -179q0 -102 -82 -188l-344 -369q-67 -73 -172 -73q-106 0 -196.5 79t-90.5 183q0 102 86 188zM725 3232q-33 -33 -33 -82q3 -46 33.5 -76.5t77.5 -30.5q49 0 90 45l319 328q37 37 37 86q0 47 -33 79t-77 32q-41 0 -78 -37zM852 3183l266 270q33 39 33 57
q0 15 -12 33q0 37 28 37q22 0 37 -21q13 -19 13 -53q0 -33 -13 -53l-303 -311q-18 -25 -37 -25q-24 0 -24 29q0 23 12 37z" />
    <glyph glyph-name="Ntilde" unicode="&#xd1;" horiz-adv-x="2359" 
d="M8 2425q0 148 107.5 264.5t261.5 116.5q243 0 446 -312l631 -974v897q0 185 120 291t281 106q159 0 276.5 -107t117.5 -299v-1998q0 -238 -137.5 -328t-305.5 -90h-1446q-158 0 -255 90.5t-97 269.5v2073zM184 369q0 -104 61.5 -152.5t147.5 -48.5h1376q149 0 226.5 73
t77.5 169v2007q0 109 -67 169t-159 60q-90 0 -153.5 -56t-63.5 -157v-1008q0 -368 148 -577q53 -82 53 -164q0 -106 -83.5 -182t-195.5 -76q-153 0 -266 135h-581q-111 0 -111 176v975l758 -1098q86 -127 213 -127q80 0 138 53t58 136q0 66 -49 139l-1081 1643
q-120 188 -262 188q-81 0 -133 -62t-52 -159v-2056zM774 1167v-360q0 -17 16.5 -43.5t65.5 -26.5h201zM471 1778q0 32 29 32q16 0 30.5 -13.5t14.5 -35.5v-1147q0 -36 -33 -36q-41 0 -41 36v1164zM520 2417q-8 12 -8 32q0 29 25 29q27 0 49 -37l1110 -1687q20 -36 20 -70
q0 -42 -37 -98q-18 -25 -32 -25q-16 0 -26.5 12.5t-10.5 24.5l8 16q24 37 24 66q0 27 -49 111zM1954 2310q0 98 28 98q17 0 29 -26.5t12 -63.5v-1917q0 -96 -73 -144t-164 -48h-1348q-69 0 -69 33q0 37 69 37h1368q72 0 110 33.5t38 80.5v1917zM651 3256q125 86 291 86
q77 0 172 -20q129 -33 176 -33q62 0 144 33q32 16 73 16q77 0 131 -58.5t54 -137.5q0 -109 -115 -172q-121 -78 -274 -78q-101 0 -238 37q-41 12 -102 12q-66 -5 -160 -37q-31 -12 -58 -12q-72 0 -128 63.5t-56 141.5q0 102 90 159zM709 3146q-29 -11 -29 -49
q0 -29 21.5 -55.5t48.5 -26.5q16 0 28 8q112 49 185 49q63 0 135 -25q91 -32 188 -32q124 0 238 57q49 31 49 74q0 25 -20.5 43t-53.5 18q-17 0 -41 -8q-103 -29 -176 -29t-176 29q-46 20 -119 20q-132 0 -278 -73zM1020 3162q-91 0 -225 -41q-15 0 -32.5 -11.5t-17.5 -29.5
q-5 -20 -20 -20q-16 0 -16 28q10 50 61 66q134 45 250 45q33 0 33 -16q0 -21 -33 -21zM1257 3072q131 0 218 41q30 10 41 41q0 12 12 12t12 -12q8 -8 8 -16q0 -29 -41 -50q-102 -49 -258 -49q-24 0 -24 13q0 20 32 20z" />
    <glyph glyph-name="Odieresis" unicode="&#xd6;" horiz-adv-x="3281" 
d="M922 1954q0 -33 -73.5 -149.5t-121 -225t-47.5 -240.5q0 -208 135 -397q192 -270 545 -270q109 0 211 31t187.5 91t146.5 148q147 219 147 438q0 286 -237 484q-207 180 -426 180q-67 0 -126 -12t-133.5 -34.5t-119.5 -33t-88 -10.5zM586 2359q0 227 260.5 326.5
t587.5 99.5q252 0 493.5 -106t436 -300t308 -455.5t113.5 -563.5q-3 -403 -158 -685.5t-387.5 -445.5t-467.5 -233t-404 -70q-298 3 -564 118.5t-464 309.5t-308.5 434t-113.5 486q0 181 41.5 368.5t127.5 351t212 261.5t287 104zM614 2241q-136 -3 -257.5 -124.5t-196 -324
t-74.5 -428.5q0 -214 70 -422t228.5 -393.5t406.5 -315.5q250 -135 552 -135q313 0 600.5 151.5t472.5 448t201 703.5q0 215 -92 430t-261 391t-396.5 279.5t-487.5 103.5q-240 0 -483 -94q-102 -37 -151.5 -98t-49.5 -127q0 -79 59 -136t146 -57q58 0 115 29q186 86 364 86
q220 0 412.5 -110.5t308 -301t115.5 -416.5q0 -100 -25 -196q-82 -323 -320 -501.5t-528 -178.5q-186 0 -357.5 80t-289.5 231q-192 254 -192 520q0 152 52.5 282.5t116.5 223.5l97 141q12 25 12 41q0 24 -12.5 41t-36 36t-37.5 34q-6 8 -26.5 57.5t-55.5 49.5zM791 2200
q45 -58 106 -58q33 0 143 49q154 62 332 62q397 0 692 -332q8 -8 17 -8q33 0 33 53q-321 356 -730 356q-185 0 -368 -73q-89 -41 -115 -41q-40 0 -70 41q-13 20 -28 20q-25 0 -25 -33q0 -13 13 -36zM2478 1577q0 22 12.5 39.5t24.5 17.5q16 0 29 -41q12 -97 12 -188
q0 -273 -99.5 -502t-274.5 -398t-395 -259t-448 -90q-217 0 -417 86q-45 16 -45 41q0 20 32 20q5 0 29 -8q165 -70 377 -70q204 0 412 70.5t379 215t275.5 373.5t104.5 533q0 54 -8 160zM745 598q13 -12 37 -12q25 0 25 28q0 17 -8 25q-336 285 -336 696q0 178 65.5 345.5
t167.5 273.5q17 16 17 37q0 28 -21 28q-19 0 -53 -45q-238 -284 -238 -635q0 -215 92 -411.5t252 -329.5zM1024 3002q135 14 135 136q0 58 -36 100.5t-99 42.5q-152 0 -152 -135q0 -62 38.5 -103t113.5 -41zM1024 2892q-101 0 -179.5 71t-78.5 166q0 104 72 181t178 77
q103 0 178.5 -79t75.5 -170q-6 -91 -80 -168.5t-166 -77.5zM1073 3170q5 0 12.5 8.5t8.5 8.5v0q12 -19 12 -41q0 -36 -26 -65t-64 -29q-29 0 -41 8q-17 0 -17 12q0 8 41 8q74 0 74 90zM1671 3002q127 13 127 136q0 135 -127 135q-160 0 -160 -135q0 -57 47.5 -96.5
t112.5 -39.5zM1655 2896q-95 0 -170.5 69.5t-75.5 163.5q0 104 74 181t180 77q108 0 183 -75t75 -183q0 -98 -81 -165.5t-185 -67.5zM1712 3170q0 33 8 33q14 0 25 -16q8 -26 8 -37q0 -39 -23.5 -68.5t-62.5 -29.5q-29 0 -45 8q-16 0 -16 8q0 20 41 20q73 0 73 58q0 8 -8 24
z" />
    <glyph glyph-name="Udieresis" unicode="&#xdc;" horiz-adv-x="1929" 
d="M1442 2290v-1483q0 -166 -94.5 -322t-259 -253t-367.5 -97q-50 0 -152 17q-49 11 -49 36q0 21 49 21q55 -16 140 -16q158 0 314.5 73.5t258.5 217t102 339.5v1467q0 24 25 24q33 0 33 -24zM-184 2466q0 161 110 250.5t262 89.5q148 0 256.5 -91t108.5 -257v-1500
q0 -128 55.5 -199t132.5 -71q66 0 115 57t49 160v1528q0 174 110.5 273.5t258.5 99.5q152 0 266.5 -107t114.5 -299v-1626q0 -210 -126 -404t-338.5 -313t-453.5 -123q-261 0 -472.5 126.5t-330 331.5t-118.5 423v1651zM279 2367q0 54 36 54q29 0 29 -54v-1425
q0 -254 119 -373q8 -8 8 -24q0 -33 -29 -33q-21 0 -32 16q-75 73 -103 157.5t-28 244.5v1437zM-16 2408v-1593q0 -181 98.5 -348.5t272.5 -270t390 -102.5q140 7 273.5 65t238 157t163.5 225.5t59 265.5v1585q0 125 -59 193.5t-142 68.5t-144 -72.5t-61 -205.5v-1471
q0 -196 -101.5 -309t-238.5 -113q-139 0 -239.5 113.5t-100.5 316.5v1512q0 111 -58 172t-138 61q-87 0 -150 -67t-63 -183zM496 3002q135 14 135 136q0 58 -36 100.5t-99 42.5q-152 0 -152 -135q0 -144 152 -144zM496 2892q-101 0 -179.5 71t-78.5 166q0 104 71 181t178 77
q104 0 179 -78t75 -171q-6 -93 -79.5 -169.5t-165.5 -76.5zM545 3170q5 0 13 10q6 7 7 7v0q13 -21 13 -41q0 -36 -26 -65t-65 -29q-28 0 -41 8q-16 0 -16 12q0 8 41 8q74 0 74 90zM1143 3002q127 13 127 136q0 135 -127 135q-160 0 -160 -135q0 -57 47.5 -96.5t112.5 -39.5z
M1126 2896q-96 0 -170.5 69.5t-74.5 163.5q0 68 33.5 127t91.5 95t129 36q108 0 183 -75t75 -183q0 -99 -81 -166t-186 -67zM1184 3170q0 33 8 33q13 0 25 -16q8 -26 8 -37q0 -39 -23.5 -68.5t-62.5 -29.5q-29 0 -45 8q-17 0 -17 8q0 20 41 20q74 0 74 58q0 8 -8 24z" />
    <glyph glyph-name="aacute" unicode="&#xe1;" 
d="M57 446l705 2065q48 138 176.5 216.5t278.5 78.5q142 0 256.5 -78t156.5 -225l344 -1069q141 0 232.5 -101t91.5 -235q0 -173 -156 -283l139 -414q13 -46 13 -98q0 -103 -57.5 -191.5t-152 -141t-192.5 -52.5q-100 0 -172 49l-815 545l-131 -336q-45 -118 -144.5 -180
t-215.5 -62q-154 0 -269.5 98t-115.5 259q0 75 28 155zM729 745l-176 -503q-13 -38 -54.5 -64t-88.5 -26q-50 6 -50 32q0 41 66 41q17 0 44.5 21.5t33.5 40.5l168 495l-103 82q-106 75 -106 205q0 107 71 186.5t187 79.5h135l225 664q11 37 41 37q29 0 29 -54l-221 -647h53
l201 578l176 -578h319l-327 1049q0 70 28 70q25 0 37 -37l344 -1082h62l-353 1106q-26 83 -106 134t-176 51q-93 0 -167.5 -51t-107.5 -150l-688 -2015q-20 -56 -20 -119q0 -96 61 -150.5t144 -54.5q66 0 121 35.5t75 103.5l168 488l-24.5 18.5t-20.5 13.5zM1167 1544
l-49 -209h115zM1999 1110q0 45 24 45q22 0 33 -29q8 -24 8 -41q0 -44 -33 -77t-69 -33h-754q-61 0 -61 33q0 26 53 32h754q45 0 45 70zM1257 913h689q90 0 139 55.5t49 129.5q0 73 -44.5 124.5t-127.5 51.5h-1233q-75 0 -136 -65t-61 -144q0 -95 91 -152l1146 -778
q80 -49 136 -49q89 0 149 76t60 125q-22 145 -77 304.5t-108 170.5l127 -410q8 -32 8 -49q0 -62 -45 -109t-106 -47q-49 0 -90 29l-1102 729q-53 32 -53 58q0 20 32 20q31 0 54 -16l1093 -742q26 -16 70 -16q78 0 78 74q0 29 -13 69l-135 455q-24 12 -78 12
q-137 0 -184 -123q-180 112 -328 217zM905 3334l311 328q95 106 225 106q107 0 185 -75t78 -178q0 -100 -82 -189l-344 -369q-69 -73 -172 -73q-108 0 -197.5 79t-89.5 183q0 103 86 188zM1015 3232q-32 -33 -32 -82q3 -44 34.5 -75.5t75.5 -31.5q51 0 90 46l320 327
q37 37 37 86q0 47 -34 79t-77 32q-41 0 -78 -37zM1142 3183l267 270q32 40 32 57q0 15 -12 33q0 37 29 37q21 0 37 -20q12 -19 12 -54t-12 -53l-303 -311q-19 -25 -37 -25q-25 0 -25 29q0 25 12 37z" />
    <glyph glyph-name="agrave" unicode="&#xe0;" 
d="M57 446l705 2065q48 138 176.5 216.5t278.5 78.5q142 0 256.5 -78t156.5 -225l344 -1069q141 0 232.5 -101t91.5 -235q0 -173 -156 -283l139 -414q13 -46 13 -98q0 -103 -57.5 -191.5t-152 -141t-192.5 -52.5q-100 0 -172 49l-815 545l-131 -336q-45 -118 -144.5 -180
t-215.5 -62q-154 0 -269.5 98t-115.5 259q0 75 28 155zM729 745l-176 -503q-13 -38 -54.5 -64t-88.5 -26q-50 6 -50 32q0 41 66 41q17 0 44.5 21.5t33.5 40.5l168 495l-103 82q-106 75 -106 205q0 107 71 186.5t187 79.5h135l225 664q11 37 41 37q29 0 29 -54l-221 -647h53
l201 578l176 -578h319l-327 1049q0 70 28 70q25 0 37 -37l344 -1082h62l-353 1106q-26 83 -106 134t-176 51q-93 0 -167.5 -51t-107.5 -150l-688 -2015q-20 -56 -20 -119q0 -96 61 -150.5t144 -54.5q66 0 121 35.5t75 103.5l168 488l-24.5 18.5t-20.5 13.5zM1167 1544
l-49 -209h115zM1999 1110q0 45 24 45q22 0 33 -29q8 -24 8 -41q0 -44 -33 -77t-69 -33h-754q-61 0 -61 33q0 26 53 32h754q45 0 45 70zM1257 913h689q90 0 139 55.5t49 129.5q0 73 -44.5 124.5t-127.5 51.5h-1233q-75 0 -136 -65t-61 -144q0 -95 91 -152l1146 -778
q80 -49 136 -49q89 0 149 76t60 125q-22 145 -77 304.5t-108 170.5l127 -410q8 -32 8 -49q0 -62 -45 -109t-106 -47q-49 0 -90 29l-1102 729q-53 32 -53 58q0 20 32 20q31 0 54 -16l1093 -742q26 -16 70 -16q78 0 78 74q0 29 -13 69l-135 455q-24 12 -78 12
q-137 0 -184 -123q-180 112 -328 217zM1098 3695l328 -312q106 -106 106 -225q0 -106 -79 -186t-183 -80q-100 0 -188 82l-369 344q-74 63 -74 168q0 110 81 202.5t190 92.5q101 0 188 -86zM991 3584q-32 33 -77 33q-46 -3 -78.5 -35.5t-32.5 -79.5q0 -49 45 -94l328 -311
q40 -41 90 -41q43 0 74.5 33t31.5 77q0 46 -37 82zM934 3453l283 -262q30 -37 53 -37q11 0 25 12q40 0 40 -20q0 -23 -24 -41q-18 -12 -49 -12q-33 0 -45 12l-312 295q-28 17 -28 41t28 24q17 0 29 -12z" />
    <glyph glyph-name="acircumflex" unicode="&#xe2;" 
d="M57 446l705 2065q48 138 176.5 216.5t278.5 78.5q142 0 256.5 -78t156.5 -225l344 -1069q141 0 232.5 -101t91.5 -235q0 -173 -156 -283l139 -414q13 -46 13 -98q0 -103 -57.5 -191.5t-152 -141t-192.5 -52.5q-100 0 -172 49l-815 545l-131 -336q-45 -118 -144.5 -180
t-215.5 -62q-154 0 -269.5 98t-115.5 259q0 75 28 155zM729 745l-176 -503q-13 -38 -54.5 -64t-88.5 -26q-50 6 -50 32q0 41 66 41q17 0 44.5 21.5t33.5 40.5l168 495l-103 82q-106 75 -106 205q0 107 71 186.5t187 79.5h135l225 664q11 37 41 37q29 0 29 -54l-221 -647h53
l201 578l176 -578h319l-327 1049q0 70 28 70q25 0 37 -37l344 -1082h62l-353 1106q-26 83 -106 134t-176 51q-93 0 -167.5 -51t-107.5 -150l-688 -2015q-20 -56 -20 -119q0 -96 61 -150.5t144 -54.5q66 0 121 35.5t75 103.5l168 488l-24.5 18.5t-20.5 13.5zM1167 1544
l-49 -209h115zM1999 1110q0 45 24 45q22 0 33 -29q8 -24 8 -41q0 -44 -33 -77t-69 -33h-754q-61 0 -61 33q0 26 53 32h754q45 0 45 70zM1257 913h689q90 0 139 55.5t49 129.5q0 73 -44.5 124.5t-127.5 51.5h-1233q-75 0 -136 -65t-61 -144q0 -95 91 -152l1146 -778
q80 -49 136 -49q89 0 149 76t60 125q-22 145 -77 304.5t-108 170.5l127 -410q8 -32 8 -49q0 -62 -45 -109t-106 -47q-49 0 -90 29l-1102 729q-53 32 -53 58q0 20 32 20q31 0 54 -16l1093 -742q26 -16 70 -16q78 0 78 74q0 29 -13 69l-135 455q-24 12 -78 12
q-137 0 -184 -123q-180 112 -328 217zM1061 3552q57 49 143 49q82 0 139 -49l303 -304q66 -65 66 -143q0 -86 -72 -155.5t-157 -69.5q-68 0 -123 49l-115 111q-30 24 -45 24q-18 0 -49 -33l-90 -90q-51 -57 -135 -57q-85 0 -153.5 61t-68.5 148q0 104 95 192zM860 3175
q-25 -26 -25 -62q0 -38 27.5 -68t67.5 -30q37 0 69 33l168 168q23 28 29 28q12 0 33 -20l200 -193q31 -24 62 -24q37 0 65.5 30t28.5 68q0 39 -29 61l-270 267q-66 53 -86 53q-42 0 -90 -53zM909 3048q0 10 1.5 27t6.5 22q33 0 41 8l144 143q8 5 20 5q25 0 25 -13
q0 -12 -13 -24l-151 -144q-25 -24 -74 -24zM1261 3359q-12 12 -12 25q0 20 17 20q8 0 20 -12l250 -250q12 -8 12 -70q0 -16 -24 -16q-21 0 -21 16q0 33 -8 45z" />
    <glyph glyph-name="adieresis" unicode="&#xe4;" 
d="M57 446l705 2065q48 138 176.5 216.5t278.5 78.5q142 0 256.5 -78t156.5 -225l344 -1069q141 0 232.5 -101t91.5 -235q0 -173 -156 -283l139 -414q13 -46 13 -98q0 -103 -57.5 -191.5t-152 -141t-192.5 -52.5q-100 0 -172 49l-815 545l-131 -336q-45 -118 -144.5 -180
t-215.5 -62q-154 0 -269.5 98t-115.5 259q0 75 28 155zM729 745l-176 -503q-13 -38 -54.5 -64t-88.5 -26q-50 6 -50 32q0 41 66 41q17 0 44.5 21.5t33.5 40.5l168 495l-103 82q-106 75 -106 205q0 107 71 186.5t187 79.5h135l225 664q11 37 41 37q29 0 29 -54l-221 -647h53
l201 578l176 -578h319l-327 1049q0 70 28 70q25 0 37 -37l344 -1082h62l-353 1106q-26 83 -106 134t-176 51q-93 0 -167.5 -51t-107.5 -150l-688 -2015q-20 -56 -20 -119q0 -96 61 -150.5t144 -54.5q66 0 121 35.5t75 103.5l168 488l-24.5 18.5t-20.5 13.5zM1167 1544
l-49 -209h115zM1999 1110q0 45 24 45q22 0 33 -29q8 -24 8 -41q0 -44 -33 -77t-69 -33h-754q-61 0 -61 33q0 26 53 32h754q45 0 45 70zM1257 913h689q90 0 139 55.5t49 129.5q0 73 -44.5 124.5t-127.5 51.5h-1233q-75 0 -136 -65t-61 -144q0 -95 91 -152l1146 -778
q80 -49 136 -49q89 0 149 76t60 125q-22 145 -77 304.5t-108 170.5l127 -410q8 -32 8 -49q0 -62 -45 -109t-106 -47q-49 0 -90 29l-1102 729q-53 32 -53 58q0 20 32 20q31 0 54 -16l1093 -742q26 -16 70 -16q78 0 78 74q0 29 -13 69l-135 455q-24 12 -78 12
q-137 0 -184 -123q-180 112 -328 217zM873 3003q135 13 135 135q0 59 -36 101t-99 42q-152 0 -152 -135q0 -143 152 -143zM873 2892q-102 0 -180.5 72t-78.5 166q0 103 73 180.5t177 77.5t179 -78t75 -172q-6 -91 -80 -168.5t-165 -77.5zM922 3171q5 0 13 9q6 7 7 7v0
q12 -18 12 -41q0 -36 -25 -65t-65 -29q-28 0 -41 8q-16 0 -16 12q0 8 41 8q74 0 74 91zM1520 3003q127 11 127 135q0 135 -127 135q-160 0 -160 -135q0 -57 47 -96t113 -39zM1503 2896q-96 0 -170.5 70.5t-74.5 163.5q0 102 74 180t179 78q108 0 183.5 -75.5t75.5 -182.5
q0 -98 -81.5 -166t-185.5 -68zM1561 3171q0 32 8 32q13 0 24 -16q9 -22 9 -37q0 -39 -23.5 -68.5t-62.5 -29.5q-29 0 -45 8q-17 0 -17 8q0 21 41 21q74 0 74 57q0 7 -8 25z" />
    <glyph glyph-name="atilde" unicode="&#xe3;" 
d="M57 446l705 2065q48 138 176.5 216.5t278.5 78.5q142 0 256.5 -78t156.5 -225l344 -1069q141 0 232.5 -101t91.5 -235q0 -173 -156 -283l139 -414q13 -46 13 -98q0 -103 -57.5 -191.5t-152 -141t-192.5 -52.5q-100 0 -172 49l-815 545l-131 -336q-45 -118 -144.5 -180
t-215.5 -62q-154 0 -269.5 98t-115.5 259q0 75 28 155zM729 745l-176 -503q-13 -38 -54.5 -64t-88.5 -26q-50 6 -50 32q0 41 66 41q17 0 44.5 21.5t33.5 40.5l168 495l-103 82q-106 75 -106 205q0 107 71 186.5t187 79.5h135l225 664q11 37 41 37q29 0 29 -54l-221 -647h53
l201 578l176 -578h319l-327 1049q0 70 28 70q25 0 37 -37l344 -1082h62l-353 1106q-26 83 -106 134t-176 51q-93 0 -167.5 -51t-107.5 -150l-688 -2015q-20 -56 -20 -119q0 -96 61 -150.5t144 -54.5q66 0 121 35.5t75 103.5l168 488l-24.5 18.5t-20.5 13.5zM1167 1544
l-49 -209h115zM1999 1110q0 45 24 45q22 0 33 -29q8 -24 8 -41q0 -44 -33 -77t-69 -33h-754q-61 0 -61 33q0 26 53 32h754q45 0 45 70zM1257 913h689q90 0 139 55.5t49 129.5q0 73 -44.5 124.5t-127.5 51.5h-1233q-75 0 -136 -65t-61 -144q0 -95 91 -152l1146 -778
q80 -49 136 -49q89 0 149 76t60 125q-22 145 -77 304.5t-108 170.5l127 -410q8 -32 8 -49q0 -62 -45 -109t-106 -47q-49 0 -90 29l-1102 729q-53 32 -53 58q0 20 32 20q31 0 54 -16l1093 -742q26 -16 70 -16q78 0 78 74q0 29 -13 69l-135 455q-24 12 -78 12
q-137 0 -184 -123q-180 112 -328 217zM712 3257q127 86 291 86q72 0 172 -21q135 -33 176 -33q59 0 144 33q32 16 73 16q77 0 131 -58.5t54 -137.5q0 -109 -115 -172q-121 -78 -274 -78q-101 0 -238 37q-41 12 -102 12q-66 -5 -160 -37q-31 -12 -57 -12q-73 0 -129 63.5
t-56 141.5q0 103 90 160zM770 3146q-29 -11 -29 -49q0 -29 21.5 -55.5t48.5 -26.5q16 0 28 8q112 49 185 49q61 0 135 -24q90 -33 188 -33q124 0 238 57q49 31 49 74q0 26 -20.5 43.5t-53.5 17.5q-15 0 -41 -8q-100 -28 -176 -28t-176 28q-46 21 -119 21q-130 0 -278 -74z
M1081 3162q-91 0 -225 -41q-15 0 -32 -12t-17 -29q-6 -20 -21 -20q-16 0 -16 29q9 48 61 65q134 45 250 45q33 0 33 -16q0 -21 -33 -21zM1319 3072q130 0 217 41q29 10 41 41q0 12 12 12t12 -12q8 -8 8 -16q0 -29 -41 -49q-102 -50 -258 -50q-24 0 -24 13q0 20 33 20z" />
    <glyph glyph-name="aring" unicode="&#xe5;" 
d="M57 446l705 2065q48 138 176.5 216.5t278.5 78.5q142 0 256.5 -78t156.5 -225l344 -1069q141 0 232.5 -101t91.5 -235q0 -173 -156 -283l139 -414q13 -46 13 -98q0 -103 -57.5 -191.5t-152 -141t-192.5 -52.5q-100 0 -172 49l-815 545l-131 -336q-45 -118 -144.5 -180
t-215.5 -62q-154 0 -269.5 98t-115.5 259q0 75 28 155zM729 745l-176 -503q-13 -38 -54.5 -64t-88.5 -26q-50 6 -50 32q0 41 66 41q17 0 44.5 21.5t33.5 40.5l168 495l-103 82q-106 75 -106 205q0 107 71 186.5t187 79.5h135l225 664q11 37 41 37q29 0 29 -54l-221 -647h53
l201 578l176 -578h319l-327 1049q0 70 28 70q25 0 37 -37l344 -1082h62l-353 1106q-26 83 -106 134t-176 51q-93 0 -167.5 -51t-107.5 -150l-688 -2015q-20 -56 -20 -119q0 -96 61 -150.5t144 -54.5q66 0 121 35.5t75 103.5l168 488l-24.5 18.5t-20.5 13.5zM1167 1544
l-49 -209h115zM1999 1110q0 45 24 45q22 0 33 -29q8 -24 8 -41q0 -44 -33 -77t-69 -33h-754q-61 0 -61 33q0 26 53 32h754q45 0 45 70zM1257 913h689q90 0 139 55.5t49 129.5q0 73 -44.5 124.5t-127.5 51.5h-1233q-75 0 -136 -65t-61 -144q0 -95 91 -152l1146 -778
q80 -49 136 -49q89 0 149 76t60 125q-22 145 -77 304.5t-108 170.5l127 -410q8 -32 8 -49q0 -62 -45 -109t-106 -47q-49 0 -90 29l-1102 729q-53 32 -53 58q0 20 32 20q31 0 54 -16l1093 -742q26 -16 70 -16q78 0 78 74q0 29 -13 69l-135 455q-24 12 -78 12
q-137 0 -184 -123q-180 112 -328 217zM1265 3265q-1 0 -33 18.5t-61 18.5q-32 0 -57 -21q-45 -33 -45 -90q0 -41 28 -78q24 -28 70 -28q52 0 90 36q29 29 29 62q0 24 -10.5 50t-10.5 32zM1273 3318q18 -8 25 -8q37 0 37 41q0 21 -17 33q-69 49 -143 49q-68 0 -124 -35.5
t-85 -91.5q-24 -61 -24 -115q0 -98 71.5 -165.5t165.5 -67.5q40 0 78 12q164 62 164 221q0 82 -45 135h-33q-16 -16 -25 -20q0 -6 1.5 -17t7.5 -24q16 -33 16 -74q0 -67 -51.5 -115.5t-116.5 -48.5q-29 0 -53 12q-107 47 -107 156q0 67 58 119q37 37 98 37q60 0 102 -33z
M1310 3334q0 6 -3 10.5t-5 6.5h-12q-46 28 -103 28q-106 0 -163 -73q-37 -51 -37 -115q0 -91 69 -143q17 0 17 8q-66 54 -66 135q0 60 33 98q63 70 135 70q49 0 107 -33q20 0 28 8zM1114 2999q24 -9 69 -9q89 0 149 56t60 141q0 44 -24 94q0 13 8 21q2 0 8 -13
q25 -44 25 -94q0 -88 -67 -156.5t-159 -68.5q-34 0 -78 12q0 17 9 17zM1392 3375q63 0 86 -143q0 -148 -85.5 -244t-213.5 -96q-74 0 -147 37q-68 36 -106 108t-38 150q0 95 57.5 175.5t168.5 111.5q40 8 61 8q77 0 144 -31t73 -76z" />
    <glyph glyph-name="ccedilla" unicode="&#xe7;" horiz-adv-x="2785" 
d="M1946 2200q22 -9 32 -9q54 0 54 66q0 50 -25 70q-8 16 -8 20q0 29 41 29q28 0 41 -25q20 -36 20 -82q0 -61 -39 -100t-92 -39q-25 0 -49 12q-29 22 -29 41q0 17 54 17zM938 225q-41 18 -41 41q0 21 37 21q31 0 57 -17q162 -86 398 -86q140 0 273 32.5t222.5 91.5
t106.5 130q23 70 49 70q33 0 33 -70q-3 -83 -103 -156t-261 -116t-329 -43q-254 0 -442 102zM791 647q36 -26 36 -53q0 -25 -24 -25q-25 0 -41 17q-361 325 -361 733q0 263 152 536q71 133 216.5 245.5t323.5 175.5t341 63q92 0 196 -29q58 -6 58 -37q0 -24 -37 -24
q-9 0 -41 8q-90 29 -189 29q-236 0 -473.5 -135t-349.5 -328q-135 -246 -135 -488q0 -381 328 -688zM1118 -82q-571 121 -878.5 478t-313.5 870q0 409 196.5 762.5t536 561.5t738.5 208q308 0 626 -136q153 -65 228.5 -174.5t75.5 -230.5q0 -141 -93 -244.5t-239 -103.5
q-103 0 -209 53q-206 98 -381 98q-203 0 -365.5 -107t-253 -274.5t-90.5 -335.5q0 -175 93.5 -333t257 -254.5t354.5 -96.5q203 0 385 103q86 49 184 49q144 0 238 -108.5t94 -251.5q0 -195 -172 -308q-201 -132 -306.5 -180.5t-262.5 -56.5l-66 -148q157 0 224 -95t67 -208
q0 -463 -483 -463q-266 12 -348.5 107t-82.5 188q15 163 152 176q-45 23 -45 86q0 50 29 107zM1462 74q295 18 561 196q111 77 111 181q0 76 -55 130t-137 54q-60 0 -111 -29q-222 -114 -463 -114q-232 0 -425.5 114.5t-305.5 306t-117 414.5q0 226 114.5 433t317 333.5
t449.5 126.5q239 0 495 -131q51 -21 82 -21q73 0 124.5 61.5t51.5 139.5q0 170 -200 242q-272 110 -553 110q-275 0 -514 -106.5t-415 -293t-273 -427t-97 -500.5q7 -254 113.5 -477.5t284.5 -387.5t401 -257t459 -98l-201 -443q-16 -27 -16 -53q0 -57 139 -57
q101 -12 144.5 -28.5t43.5 -98.5q0 -107 -127 -107q-59 0 -141.5 33t-128.5 33q-25 0 -41 -21.5t-16 -52.5q0 -64 109.5 -103.5t217.5 -39.5q127 0 207 83t80 220q0 201 -241 201q-15 0 -107 -9zM1544 -418q31 -15 52.5 -55.5t21.5 -79.5q0 -110 -75 -202.5t-208 -92.5
q-49 0 -61 8q-12 4 -12 13q0 12 20 12q4 0 26 -4t35 -4q103 0 173.5 75.5t76.5 194.5q0 36 -23 73t-50 54q0 16 4 16t20 -8z" />
    <glyph glyph-name="eacute" unicode="&#xe9;" horiz-adv-x="2265" 
d="M360 1815l-311 274q-135 117 -135 307q0 103 46 192t139.5 143t228.5 54h1048q170 0 273.5 -112t103.5 -265q0 -161 -123.5 -277t-363.5 -116l319 -295q111 -103 111 -274q0 -163 -106 -284.5t-296 -121.5h-495v-360l671 -8q158 0 251.5 -113.5t93.5 -263.5
q0 -156 -102 -266.5t-296 -110.5h-1057q-352 0 -352 385v1122q0 140 82.5 252.5t269.5 137.5zM401 94h1033q97 0 155 64t58 149t-58 145t-164 60h-626q-185 0 -185 143v385q0 168 160 168h475q99 0 174.5 73t75.5 173q0 116 -115 209l-630 537h540q132 0 205.5 64t73.5 153
q0 80 -61.5 136t-176.5 56h-958q-139 0 -211 -58t-72 -147q0 -134 139 -254l631 -528h-471q-96 0 -148 -68t-52 -145v-1057q0 -111 36 -184.5t172 -73.5zM430 217l995 -8q27 0 58.5 21.5t36.5 56.5q0 15 14 30t31 15q20 0 20 -53q-12 -56 -64 -96t-96 -40h-995q-45 0 -45 37
t45 37zM561 594q0 -86 -33 -86q-32 0 -32 86v516q0 92 68 154.5t149 62.5l544 8q33 0 69 35t42 72q12 37 33 37q33 0 33 -54q0 -62 -57 -106.5t-111 -44.5h-521q-63 0 -123.5 -41.5t-60.5 -126.5v-512zM922 1745q12 -12 12 -25q0 -28 -29 -28q-13 0 -41 20l-266 217
q-25 20 -25 41q0 29 33 29q17 0 33 -17zM672 2183q24 -18 24 -49q0 -25 -20 -25q-14 0 -45 25l-119 98q-16 18 -16 37q0 41 65 41h782q32 0 66.5 25t44.5 57q6 37 29 37q9 0 18.5 -9.5t9.5 -19.5q0 -67 -55 -109t-129 -42h-729zM610 3334l311 328q95 106 225 106
q107 0 185 -75t78 -178q0 -100 -82 -189l-344 -369q-69 -73 -172 -73q-108 0 -197.5 79t-89.5 183q0 103 86 188zM720 3232q-32 -33 -32 -82q3 -44 34.5 -75.5t75.5 -31.5q51 0 90 46l320 327q37 37 37 86q0 47 -34 79t-77 32q-41 0 -78 -37zM847 3183l267 270q32 40 32 57
q0 15 -12 33q0 37 29 37q21 0 37 -20q12 -19 12 -54t-12 -53l-303 -311q-19 -25 -37 -25q-25 0 -25 29q0 25 12 37z" />
    <glyph glyph-name="egrave" unicode="&#xe8;" horiz-adv-x="2265" 
d="M360 1815l-311 274q-135 117 -135 307q0 103 46 192t139.5 143t228.5 54h1048q170 0 273.5 -112t103.5 -265q0 -161 -123.5 -277t-363.5 -116l319 -295q111 -103 111 -274q0 -163 -106 -284.5t-296 -121.5h-495v-360l671 -8q158 0 251.5 -113.5t93.5 -263.5
q0 -156 -102 -266.5t-296 -110.5h-1057q-352 0 -352 385v1122q0 140 82.5 252.5t269.5 137.5zM401 94h1033q97 0 155 64t58 149t-58 145t-164 60h-626q-185 0 -185 143v385q0 168 160 168h475q99 0 174.5 73t75.5 173q0 116 -115 209l-630 537h540q132 0 205.5 64t73.5 153
q0 80 -61.5 136t-176.5 56h-958q-139 0 -211 -58t-72 -147q0 -134 139 -254l631 -528h-471q-96 0 -148 -68t-52 -145v-1057q0 -111 36 -184.5t172 -73.5zM430 217l995 -8q27 0 58.5 21.5t36.5 56.5q0 15 14 30t31 15q20 0 20 -53q-12 -56 -64 -96t-96 -40h-995q-45 0 -45 37
t45 37zM561 594q0 -86 -33 -86q-32 0 -32 86v516q0 92 68 154.5t149 62.5l544 8q33 0 69 35t42 72q12 37 33 37q33 0 33 -54q0 -62 -57 -106.5t-111 -44.5h-521q-63 0 -123.5 -41.5t-60.5 -126.5v-512zM922 1745q12 -12 12 -25q0 -28 -29 -28q-13 0 -41 20l-266 217
q-25 20 -25 41q0 29 33 29q17 0 33 -17zM672 2183q24 -18 24 -49q0 -25 -20 -25q-14 0 -45 25l-119 98q-16 18 -16 37q0 41 65 41h782q32 0 66.5 25t44.5 57q6 37 29 37q9 0 18.5 -9.5t9.5 -19.5q0 -67 -55 -109t-129 -42h-729zM836 3687l328 -312q106 -106 106 -225
q0 -106 -79 -186t-183 -80q-100 0 -188 82l-369 344q-74 63 -74 168q0 110 81 202.5t190 92.5q101 0 188 -86zM729 3576q-32 33 -77 33q-46 -3 -78.5 -35.5t-32.5 -79.5q0 -49 45 -94l328 -311q40 -41 90 -41q43 0 74.5 33t31.5 77q0 46 -37 82zM672 3445l283 -262
q30 -37 53 -37q11 0 25 12q40 0 40 -20q0 -23 -24 -41q-18 -12 -49 -12q-33 0 -45 12l-312 295q-28 17 -28 41t28 24q17 0 29 -12z" />
    <glyph glyph-name="ecircumflex" unicode="&#xea;" horiz-adv-x="2265" 
d="M360 1815l-311 274q-135 117 -135 307q0 103 46 192t139.5 143t228.5 54h1048q170 0 273.5 -112t103.5 -265q0 -161 -123.5 -277t-363.5 -116l319 -295q111 -103 111 -274q0 -163 -106 -284.5t-296 -121.5h-495v-360l671 -8q158 0 251.5 -113.5t93.5 -263.5
q0 -156 -102 -266.5t-296 -110.5h-1057q-352 0 -352 385v1122q0 140 82.5 252.5t269.5 137.5zM401 94h1033q97 0 155 64t58 149t-58 145t-164 60h-626q-185 0 -185 143v385q0 168 160 168h475q99 0 174.5 73t75.5 173q0 116 -115 209l-630 537h540q132 0 205.5 64t73.5 153
q0 80 -61.5 136t-176.5 56h-958q-139 0 -211 -58t-72 -147q0 -134 139 -254l631 -528h-471q-96 0 -148 -68t-52 -145v-1057q0 -111 36 -184.5t172 -73.5zM430 217l995 -8q27 0 58.5 21.5t36.5 56.5q0 15 14 30t31 15q20 0 20 -53q-12 -56 -64 -96t-96 -40h-995q-45 0 -45 37
t45 37zM561 594q0 -86 -33 -86q-32 0 -32 86v516q0 92 68 154.5t149 62.5l544 8q33 0 69 35t42 72q12 37 33 37q33 0 33 -54q0 -62 -57 -106.5t-111 -44.5h-521q-63 0 -123.5 -41.5t-60.5 -126.5v-512zM922 1745q12 -12 12 -25q0 -28 -29 -28q-13 0 -41 20l-266 217
q-25 20 -25 41q0 29 33 29q17 0 33 -17zM672 2183q24 -18 24 -49q0 -25 -20 -25q-14 0 -45 25l-119 98q-16 18 -16 37q0 41 65 41h782q32 0 66.5 25t44.5 57q6 37 29 37q9 0 18.5 -9.5t9.5 -19.5q0 -67 -55 -109t-129 -42h-729zM750 3560q57 49 143 49q82 0 139 -49
l303 -304q66 -65 66 -143q0 -86 -72 -155.5t-157 -69.5q-68 0 -123 49l-115 111q-30 24 -45 24q-18 0 -49 -33l-90 -90q-51 -57 -135 -57q-85 0 -153.5 61t-68.5 148q0 104 95 192zM549 3183q-25 -26 -25 -62q0 -38 27.5 -68t67.5 -30q37 0 69 33l168 168q23 28 29 28
q12 0 33 -20l200 -193q31 -24 62 -24q37 0 65.5 30t28.5 68q0 39 -29 61l-270 267q-66 53 -86 53q-42 0 -90 -53zM598 3056q0 10 1.5 27t6.5 22q33 0 41 8l144 143q8 5 20 5q25 0 25 -13q0 -12 -13 -24l-151 -144q-25 -24 -74 -24zM950 3367q-12 12 -12 25q0 20 17 20
q8 0 20 -12l250 -250q12 -8 12 -70q0 -16 -24 -16q-21 0 -21 16q0 33 -8 45z" />
    <glyph glyph-name="edieresis" unicode="&#xeb;" horiz-adv-x="2265" 
d="M360 1815l-311 274q-135 117 -135 307q0 103 46 192t139.5 143t228.5 54h1048q170 0 273.5 -112t103.5 -265q0 -161 -123.5 -277t-363.5 -116l319 -295q111 -103 111 -274q0 -163 -106 -284.5t-296 -121.5h-495v-360l671 -8q158 0 251.5 -113.5t93.5 -263.5
q0 -156 -102 -266.5t-296 -110.5h-1057q-352 0 -352 385v1122q0 140 82.5 252.5t269.5 137.5zM401 94h1033q97 0 155 64t58 149t-58 145t-164 60h-626q-185 0 -185 143v385q0 168 160 168h475q99 0 174.5 73t75.5 173q0 116 -115 209l-630 537h540q132 0 205.5 64t73.5 153
q0 80 -61.5 136t-176.5 56h-958q-139 0 -211 -58t-72 -147q0 -134 139 -254l631 -528h-471q-96 0 -148 -68t-52 -145v-1057q0 -111 36 -184.5t172 -73.5zM430 217l995 -8q27 0 58.5 21.5t36.5 56.5q0 15 14 30t31 15q20 0 20 -53q-12 -56 -64 -96t-96 -40h-995q-45 0 -45 37
t45 37zM561 594q0 -86 -33 -86q-32 0 -32 86v516q0 92 68 154.5t149 62.5l544 8q33 0 69 35t42 72q12 37 33 37q33 0 33 -54q0 -62 -57 -106.5t-111 -44.5h-521q-63 0 -123.5 -41.5t-60.5 -126.5v-512zM922 1745q12 -12 12 -25q0 -28 -29 -28q-13 0 -41 20l-266 217
q-25 20 -25 41q0 29 33 29q17 0 33 -17zM672 2183q24 -18 24 -49q0 -25 -20 -25q-14 0 -45 25l-119 98q-16 18 -16 37q0 41 65 41h782q32 0 66.5 25t44.5 57q6 37 29 37q9 0 18.5 -9.5t9.5 -19.5q0 -67 -55 -109t-129 -42h-729zM553 3003q135 13 135 135q0 59 -36 101
t-99 42q-152 0 -152 -135q0 -143 152 -143zM553 2892q-102 0 -180.5 72t-78.5 166q0 103 73 180.5t177 77.5t179 -78t75 -172q-6 -91 -80 -168.5t-165 -77.5zM602 3171q5 0 13 9q6 7 7 7v0q12 -18 12 -41q0 -36 -25 -65t-65 -29q-28 0 -41 8q-16 0 -16 12q0 8 41 8
q74 0 74 91zM1200 3003q127 11 127 135q0 135 -127 135q-160 0 -160 -135q0 -57 47 -96t113 -39zM1183 2896q-96 0 -170.5 70.5t-74.5 163.5q0 102 74 180t179 78q108 0 183.5 -75.5t75.5 -182.5q0 -98 -81.5 -166t-185.5 -68zM1241 3171q0 32 8 32q13 0 24 -16q9 -22 9 -37
q0 -39 -23.5 -68.5t-62.5 -29.5q-29 0 -45 8q-17 0 -17 8q0 21 41 21q74 0 74 57q0 7 -8 25z" />
    <glyph glyph-name="iacute" unicode="&#xed;" horiz-adv-x="1294" 
d="M0 2392q0 190 119.5 298t277.5 108q153 0 263 -104t110 -294v-2040q0 -139 -53 -239t-140 -149.5t-184 -49.5q-158 0 -275.5 117.5t-117.5 320.5v2032zM168 2376v-1991q0 -138 61 -214.5t148 -76.5q84 0 150.5 73.5t66.5 192.5v2016q0 123 -61 188.5t-148 65.5
t-152 -67.5t-65 -186.5zM471 2343q0 74 41 74q33 0 33 -66v-1991q0 -103 -39.5 -151.5t-87.5 -48.5q-58 0 -58 49q0 24 33 24q42 0 60 38.5t18 80.5v1991zM107 3326l311 328q95 106 225 106q107 0 185 -75t78 -178q0 -100 -82 -189l-344 -369q-69 -73 -172 -73
q-108 0 -197.5 79t-89.5 183q0 103 86 188zM217 3224q-32 -33 -32 -82q3 -44 34.5 -75.5t75.5 -31.5q51 0 90 46l320 327q37 37 37 86q0 47 -34 79t-77 32q-41 0 -78 -37zM344 3175l267 270q32 40 32 57q0 15 -12 33q0 37 29 37q21 0 37 -20q12 -19 12 -54t-12 -53
l-303 -311q-19 -25 -37 -25q-25 0 -25 29q0 25 12 37z" />
    <glyph glyph-name="igrave" unicode="&#xec;" horiz-adv-x="1282" 
d="M0 2392q0 190 119.5 298t277.5 108q153 0 263 -104t110 -294v-2040q0 -139 -53 -239t-140 -149.5t-184 -49.5q-158 0 -275.5 117.5t-117.5 320.5v2032zM168 2376v-1991q0 -138 61 -214.5t148 -76.5q84 0 150.5 73.5t66.5 192.5v2016q0 123 -61 188.5t-148 65.5
t-152 -67.5t-65 -186.5zM471 2343q0 74 41 74q33 0 33 -66v-1991q0 -103 -39.5 -151.5t-87.5 -48.5q-58 0 -58 49q0 24 33 24q42 0 60 38.5t18 80.5v1991zM299 3687l328 -312q106 -106 106 -225q0 -106 -79 -186t-183 -80q-100 0 -188 82l-369 344q-74 63 -74 168
q0 110 81 202.5t190 92.5q101 0 188 -86zM192 3576q-32 33 -77 33q-46 -3 -78.5 -35.5t-32.5 -79.5q0 -49 45 -94l328 -311q40 -41 90 -41q43 0 74.5 33t31.5 77q0 46 -37 82zM135 3445l283 -262q30 -37 53 -37q11 0 25 12q40 0 40 -20q0 -23 -24 -41q-18 -12 -49 -12
q-33 0 -45 12l-312 295q-28 17 -28 41t28 24q17 0 29 -12z" />
    <glyph glyph-name="icircumflex" unicode="&#xee;" horiz-adv-x="1376" 
d="M0 2392q0 190 119.5 298t277.5 108q153 0 263 -104t110 -294v-2040q0 -139 -53 -239t-140 -149.5t-184 -49.5q-158 0 -275.5 117.5t-117.5 320.5v2032zM168 2376v-1991q0 -138 61 -214.5t148 -76.5q84 0 150.5 73.5t66.5 192.5v2016q0 123 -61 188.5t-148 65.5
t-152 -67.5t-65 -186.5zM471 2343q0 74 41 74q33 0 33 -66v-1991q0 -103 -39.5 -151.5t-87.5 -48.5q-58 0 -58 49q0 24 33 24q42 0 60 38.5t18 80.5v1991zM246 3544q57 49 143 49q82 0 139 -49l303 -304q66 -65 66 -143q0 -86 -72 -155.5t-157 -69.5q-68 0 -123 49l-115 111
q-30 24 -45 24q-18 0 -49 -33l-90 -90q-51 -57 -135 -57q-85 0 -153.5 61t-68.5 148q0 104 95 192zM45 3167q-25 -26 -25 -62q0 -38 27.5 -68t67.5 -30q37 0 69 33l168 168q23 28 29 28q12 0 33 -20l200 -193q31 -24 62 -24q37 0 65.5 30t28.5 68q0 39 -29 61l-270 267
q-66 53 -86 53q-42 0 -90 -53zM94 3040q0 10 1.5 27t6.5 22q33 0 41 8l144 143q8 5 20 5q25 0 25 -13q0 -12 -13 -24l-151 -144q-25 -24 -74 -24zM446 3351q-12 12 -12 25q0 20 17 20q8 0 20 -12l250 -250q12 -8 12 -70q0 -16 -24 -16q-21 0 -21 16q0 33 -8 45z" />
    <glyph glyph-name="idieresis" unicode="&#xef;" horiz-adv-x="1208" 
d="M0 2392q0 190 119.5 298t277.5 108q153 0 263 -104t110 -294v-2040q0 -139 -53 -239t-140 -149.5t-184 -49.5q-158 0 -275.5 117.5t-117.5 320.5v2032zM168 2376v-1991q0 -138 61 -214.5t148 -76.5q84 0 150.5 73.5t66.5 192.5v2016q0 123 -61 188.5t-148 65.5
t-152 -67.5t-65 -186.5zM471 2343q0 74 41 74q33 0 33 -66v-1991q0 -103 -39.5 -151.5t-87.5 -48.5q-58 0 -58 49q0 24 33 24q42 0 60 38.5t18 80.5v1991zM58 3003q135 13 135 135q0 59 -36 101t-99 42q-152 0 -152 -135q0 -143 152 -143zM58 2892q-102 0 -180.5 72
t-78.5 166q0 103 73 180.5t177 77.5t179 -78t75 -172q-6 -91 -80 -168.5t-165 -77.5zM107 3171q5 0 13 9q6 7 7 7v0q12 -18 12 -41q0 -36 -25 -65t-65 -29q-28 0 -41 8q-16 0 -16 12q0 8 41 8q74 0 74 91zM705 3003q127 11 127 135q0 135 -127 135q-160 0 -160 -135
q0 -57 47 -96t113 -39zM688 2896q-96 0 -170.5 70.5t-74.5 163.5q0 102 74 180t179 78q108 0 183.5 -75.5t75.5 -182.5q0 -98 -81.5 -166t-185.5 -68zM746 3171q0 32 8 32q13 0 24 -16q9 -22 9 -37q0 -39 -23.5 -68.5t-62.5 -29.5q-29 0 -45 8q-17 0 -17 8q0 21 41 21
q74 0 74 57q0 7 -8 25z" />
    <glyph glyph-name="ntilde" unicode="&#xf1;" horiz-adv-x="2359" 
d="M8 2425q0 148 107.5 264.5t261.5 116.5q243 0 446 -312l631 -974v897q0 185 120 291t281 106q159 0 276.5 -107t117.5 -299v-1998q0 -238 -137.5 -328t-305.5 -90h-1446q-158 0 -255 90.5t-97 269.5v2073zM184 369q0 -104 61.5 -152.5t147.5 -48.5h1376q149 0 226.5 73
t77.5 169v2007q0 109 -67 169t-159 60q-90 0 -153.5 -56t-63.5 -157v-1008q0 -368 148 -577q53 -82 53 -164q0 -106 -83.5 -182t-195.5 -76q-153 0 -266 135h-581q-111 0 -111 176v975l758 -1098q86 -127 213 -127q80 0 138 53t58 136q0 66 -49 139l-1081 1643
q-120 188 -262 188q-81 0 -133 -62t-52 -159v-2056zM774 1167v-360q0 -17 16.5 -43.5t65.5 -26.5h201zM471 1778q0 32 29 32q16 0 30.5 -13.5t14.5 -35.5v-1147q0 -36 -33 -36q-41 0 -41 36v1164zM520 2417q-8 12 -8 32q0 29 25 29q27 0 49 -37l1110 -1687q20 -36 20 -70
q0 -42 -37 -98q-18 -25 -32 -25q-16 0 -26.5 12.5t-10.5 24.5l8 16q24 37 24 66q0 27 -49 111zM1954 2310q0 98 28 98q17 0 29 -26.5t12 -63.5v-1917q0 -96 -73 -144t-164 -48h-1348q-69 0 -69 33q0 37 69 37h1368q72 0 110 33.5t38 80.5v1917zM647 3257q127 86 291 86
q72 0 172 -21q135 -33 176 -33q59 0 144 33q32 16 73 16q77 0 131 -58.5t54 -137.5q0 -109 -115 -172q-121 -78 -274 -78q-101 0 -238 37q-41 12 -102 12q-66 -5 -160 -37q-31 -12 -57 -12q-73 0 -129 63.5t-56 141.5q0 103 90 160zM705 3146q-29 -11 -29 -49
q0 -29 21.5 -55.5t48.5 -26.5q16 0 28 8q112 49 185 49q61 0 135 -24q90 -33 188 -33q124 0 238 57q49 31 49 74q0 26 -20.5 43.5t-53.5 17.5q-15 0 -41 -8q-100 -28 -176 -28t-176 28q-46 21 -119 21q-130 0 -278 -74zM1016 3162q-91 0 -225 -41q-15 0 -32 -12t-17 -29
q-6 -20 -21 -20q-16 0 -16 29q9 48 61 65q134 45 250 45q33 0 33 -16q0 -21 -33 -21zM1254 3072q130 0 217 41q29 10 41 41q0 12 12 12t12 -12q8 -8 8 -16q0 -29 -41 -49q-102 -50 -258 -50q-24 0 -24 13q0 20 33 20z" />
    <glyph glyph-name="oacute" unicode="&#xf3;" horiz-adv-x="3281" 
d="M922 1954q0 -33 -73.5 -149.5t-121 -225t-47.5 -240.5q0 -208 135 -397q192 -270 545 -270q109 0 211 31t187.5 91t146.5 148q147 219 147 438q0 286 -237 484q-207 180 -426 180q-67 0 -126 -12t-133.5 -34.5t-119.5 -33t-88 -10.5zM586 2359q0 227 260.5 326.5
t587.5 99.5q252 0 493.5 -106t436 -300t308 -455.5t113.5 -563.5q-3 -403 -158 -685.5t-387.5 -445.5t-467.5 -233t-404 -70q-298 3 -564 118.5t-464 309.5t-308.5 434t-113.5 486q0 181 41.5 368.5t127.5 351t212 261.5t287 104zM614 2241q-136 -3 -257.5 -124.5t-196 -324
t-74.5 -428.5q0 -214 70 -422t228.5 -393.5t406.5 -315.5q250 -135 552 -135q313 0 600.5 151.5t472.5 448t201 703.5q0 215 -92 430t-261 391t-396.5 279.5t-487.5 103.5q-240 0 -483 -94q-102 -37 -151.5 -98t-49.5 -127q0 -79 59 -136t146 -57q58 0 115 29q186 86 364 86
q220 0 412.5 -110.5t308 -301t115.5 -416.5q0 -100 -25 -196q-82 -323 -320 -501.5t-528 -178.5q-186 0 -357.5 80t-289.5 231q-192 254 -192 520q0 152 52.5 282.5t116.5 223.5l97 141q12 25 12 41q0 24 -12.5 41t-36 36t-37.5 34q-6 8 -26.5 57.5t-55.5 49.5zM791 2200
q45 -58 106 -58q33 0 143 49q154 62 332 62q397 0 692 -332q8 -8 17 -8q33 0 33 53q-321 356 -730 356q-185 0 -368 -73q-89 -41 -115 -41q-40 0 -70 41q-13 20 -28 20q-25 0 -25 -33q0 -13 13 -36zM2478 1577q0 22 12.5 39.5t24.5 17.5q16 0 29 -41q12 -97 12 -188
q0 -273 -99.5 -502t-274.5 -398t-395 -259t-448 -90q-217 0 -417 86q-45 16 -45 41q0 20 32 20q5 0 29 -8q165 -70 377 -70q204 0 412 70.5t379 215t275.5 373.5t104.5 533q0 54 -8 160zM745 598q13 -12 37 -12q25 0 25 28q0 17 -8 25q-336 285 -336 696q0 178 65.5 345.5
t167.5 273.5q17 16 17 37q0 28 -21 28q-19 0 -53 -45q-238 -284 -238 -635q0 -215 92 -411.5t252 -329.5zM1041 3334l311 328q95 106 225 106q107 0 185 -75t78 -178q0 -100 -82 -189l-344 -369q-69 -73 -172 -73q-108 0 -197.5 79t-89.5 183q0 103 86 188zM1151 3232
q-32 -33 -32 -82q3 -44 34.5 -75.5t75.5 -31.5q51 0 90 46l320 327q37 37 37 86q0 47 -34 79t-77 32q-41 0 -78 -37zM1278 3183l267 270q32 40 32 57q0 15 -12 33q0 37 29 37q21 0 37 -20q12 -19 12 -54t-12 -53l-303 -311q-19 -25 -37 -25q-25 0 -25 29q0 25 12 37z" />
    <glyph glyph-name="ograve" unicode="&#xf2;" horiz-adv-x="3281" 
d="M922 1954q0 -33 -73.5 -149.5t-121 -225t-47.5 -240.5q0 -208 135 -397q192 -270 545 -270q109 0 211 31t187.5 91t146.5 148q147 219 147 438q0 286 -237 484q-207 180 -426 180q-67 0 -126 -12t-133.5 -34.5t-119.5 -33t-88 -10.5zM586 2359q0 227 260.5 326.5
t587.5 99.5q252 0 493.5 -106t436 -300t308 -455.5t113.5 -563.5q-3 -403 -158 -685.5t-387.5 -445.5t-467.5 -233t-404 -70q-298 3 -564 118.5t-464 309.5t-308.5 434t-113.5 486q0 181 41.5 368.5t127.5 351t212 261.5t287 104zM614 2241q-136 -3 -257.5 -124.5t-196 -324
t-74.5 -428.5q0 -214 70 -422t228.5 -393.5t406.5 -315.5q250 -135 552 -135q313 0 600.5 151.5t472.5 448t201 703.5q0 215 -92 430t-261 391t-396.5 279.5t-487.5 103.5q-240 0 -483 -94q-102 -37 -151.5 -98t-49.5 -127q0 -79 59 -136t146 -57q58 0 115 29q186 86 364 86
q220 0 412.5 -110.5t308 -301t115.5 -416.5q0 -100 -25 -196q-82 -323 -320 -501.5t-528 -178.5q-186 0 -357.5 80t-289.5 231q-192 254 -192 520q0 152 52.5 282.5t116.5 223.5l97 141q12 25 12 41q0 24 -12.5 41t-36 36t-37.5 34q-6 8 -26.5 57.5t-55.5 49.5zM791 2200
q45 -58 106 -58q33 0 143 49q154 62 332 62q397 0 692 -332q8 -8 17 -8q33 0 33 53q-321 356 -730 356q-185 0 -368 -73q-89 -41 -115 -41q-40 0 -70 41q-13 20 -28 20q-25 0 -25 -33q0 -13 13 -36zM2478 1577q0 22 12.5 39.5t24.5 17.5q16 0 29 -41q12 -97 12 -188
q0 -273 -99.5 -502t-274.5 -398t-395 -259t-448 -90q-217 0 -417 86q-45 16 -45 41q0 20 32 20q5 0 29 -8q165 -70 377 -70q204 0 412 70.5t379 215t275.5 373.5t104.5 533q0 54 -8 160zM745 598q13 -12 37 -12q25 0 25 28q0 17 -8 25q-336 285 -336 696q0 178 65.5 345.5
t167.5 273.5q17 16 17 37q0 28 -21 28q-19 0 -53 -45q-238 -284 -238 -635q0 -215 92 -411.5t252 -329.5zM1339 3711l328 -312q106 -106 106 -225q0 -106 -79 -186t-183 -80q-100 0 -188 82l-369 344q-74 63 -74 168q0 110 81 202.5t190 92.5q101 0 188 -86zM1232 3600
q-32 33 -77 33q-46 -3 -78.5 -35.5t-32.5 -79.5q0 -49 45 -94l328 -311q40 -41 90 -41q43 0 74.5 33t31.5 77q0 46 -37 82zM1175 3469l283 -262q30 -37 53 -37q11 0 25 12q40 0 40 -20q0 -23 -24 -41q-18 -12 -49 -12q-33 0 -45 12l-312 295q-28 17 -28 41t28 24
q17 0 29 -12z" />
    <glyph glyph-name="ocircumflex" unicode="&#xf4;" horiz-adv-x="3281" 
d="M922 1954q0 -33 -73.5 -149.5t-121 -225t-47.5 -240.5q0 -208 135 -397q192 -270 545 -270q109 0 211 31t187.5 91t146.5 148q147 219 147 438q0 286 -237 484q-207 180 -426 180q-67 0 -126 -12t-133.5 -34.5t-119.5 -33t-88 -10.5zM586 2359q0 227 260.5 326.5
t587.5 99.5q252 0 493.5 -106t436 -300t308 -455.5t113.5 -563.5q-3 -403 -158 -685.5t-387.5 -445.5t-467.5 -233t-404 -70q-298 3 -564 118.5t-464 309.5t-308.5 434t-113.5 486q0 181 41.5 368.5t127.5 351t212 261.5t287 104zM614 2241q-136 -3 -257.5 -124.5t-196 -324
t-74.5 -428.5q0 -214 70 -422t228.5 -393.5t406.5 -315.5q250 -135 552 -135q313 0 600.5 151.5t472.5 448t201 703.5q0 215 -92 430t-261 391t-396.5 279.5t-487.5 103.5q-240 0 -483 -94q-102 -37 -151.5 -98t-49.5 -127q0 -79 59 -136t146 -57q58 0 115 29q186 86 364 86
q220 0 412.5 -110.5t308 -301t115.5 -416.5q0 -100 -25 -196q-82 -323 -320 -501.5t-528 -178.5q-186 0 -357.5 80t-289.5 231q-192 254 -192 520q0 152 52.5 282.5t116.5 223.5l97 141q12 25 12 41q0 24 -12.5 41t-36 36t-37.5 34q-6 8 -26.5 57.5t-55.5 49.5zM791 2200
q45 -58 106 -58q33 0 143 49q154 62 332 62q397 0 692 -332q8 -8 17 -8q33 0 33 53q-321 356 -730 356q-185 0 -368 -73q-89 -41 -115 -41q-40 0 -70 41q-13 20 -28 20q-25 0 -25 -33q0 -13 13 -36zM2478 1577q0 22 12.5 39.5t24.5 17.5q16 0 29 -41q12 -97 12 -188
q0 -273 -99.5 -502t-274.5 -398t-395 -259t-448 -90q-217 0 -417 86q-45 16 -45 41q0 20 32 20q5 0 29 -8q165 -70 377 -70q204 0 412 70.5t379 215t275.5 373.5t104.5 533q0 54 -8 160zM745 598q13 -12 37 -12q25 0 25 28q0 17 -8 25q-336 285 -336 696q0 178 65.5 345.5
t167.5 273.5q17 16 17 37q0 28 -21 28q-19 0 -53 -45q-238 -284 -238 -635q0 -215 92 -411.5t252 -329.5zM1229 3560q57 49 143 49q82 0 139 -49l303 -304q66 -65 66 -143q0 -86 -72 -155.5t-157 -69.5q-68 0 -123 49l-115 111q-30 24 -45 24q-18 0 -49 -33l-90 -90
q-51 -57 -135 -57q-85 0 -153.5 61t-68.5 148q0 104 95 192zM1028 3183q-25 -26 -25 -62q0 -38 27.5 -68t67.5 -30q37 0 69 33l168 168q23 28 29 28q12 0 33 -20l200 -193q31 -24 62 -24q37 0 65.5 30t28.5 68q0 39 -29 61l-270 267q-66 53 -86 53q-42 0 -90 -53zM1077 3056
q0 10 1.5 27t6.5 22q33 0 41 8l144 143q8 5 20 5q25 0 25 -13q0 -12 -13 -24l-151 -144q-25 -24 -74 -24zM1429 3367q-12 12 -12 25q0 20 17 20q8 0 20 -12l250 -250q12 -8 12 -70q0 -16 -24 -16q-21 0 -21 16q0 33 -8 45z" />
    <glyph glyph-name="odieresis" unicode="&#xf6;" horiz-adv-x="3281" 
d="M922 1954q0 -33 -73.5 -149.5t-121 -225t-47.5 -240.5q0 -208 135 -397q192 -270 545 -270q109 0 211 31t187.5 91t146.5 148q147 219 147 438q0 286 -237 484q-207 180 -426 180q-67 0 -126 -12t-133.5 -34.5t-119.5 -33t-88 -10.5zM586 2359q0 227 260.5 326.5
t587.5 99.5q252 0 493.5 -106t436 -300t308 -455.5t113.5 -563.5q-3 -403 -158 -685.5t-387.5 -445.5t-467.5 -233t-404 -70q-298 3 -564 118.5t-464 309.5t-308.5 434t-113.5 486q0 181 41.5 368.5t127.5 351t212 261.5t287 104zM614 2241q-136 -3 -257.5 -124.5t-196 -324
t-74.5 -428.5q0 -214 70 -422t228.5 -393.5t406.5 -315.5q250 -135 552 -135q313 0 600.5 151.5t472.5 448t201 703.5q0 215 -92 430t-261 391t-396.5 279.5t-487.5 103.5q-240 0 -483 -94q-102 -37 -151.5 -98t-49.5 -127q0 -79 59 -136t146 -57q58 0 115 29q186 86 364 86
q220 0 412.5 -110.5t308 -301t115.5 -416.5q0 -100 -25 -196q-82 -323 -320 -501.5t-528 -178.5q-186 0 -357.5 80t-289.5 231q-192 254 -192 520q0 152 52.5 282.5t116.5 223.5l97 141q12 25 12 41q0 24 -12.5 41t-36 36t-37.5 34q-6 8 -26.5 57.5t-55.5 49.5zM791 2200
q45 -58 106 -58q33 0 143 49q154 62 332 62q397 0 692 -332q8 -8 17 -8q33 0 33 53q-321 356 -730 356q-185 0 -368 -73q-89 -41 -115 -41q-40 0 -70 41q-13 20 -28 20q-25 0 -25 -33q0 -13 13 -36zM2478 1577q0 22 12.5 39.5t24.5 17.5q16 0 29 -41q12 -97 12 -188
q0 -273 -99.5 -502t-274.5 -398t-395 -259t-448 -90q-217 0 -417 86q-45 16 -45 41q0 20 32 20q5 0 29 -8q165 -70 377 -70q204 0 412 70.5t379 215t275.5 373.5t104.5 533q0 54 -8 160zM745 598q13 -12 37 -12q25 0 25 28q0 17 -8 25q-336 285 -336 696q0 178 65.5 345.5
t167.5 273.5q17 16 17 37q0 28 -21 28q-19 0 -53 -45q-238 -284 -238 -635q0 -215 92 -411.5t252 -329.5zM1065 3003q135 13 135 135q0 59 -36 101t-99 42q-152 0 -152 -135q0 -143 152 -143zM1065 2892q-102 0 -180.5 72t-78.5 166q0 103 73 180.5t177 77.5t179 -78
t75 -172q-6 -91 -80 -168.5t-165 -77.5zM1114 3171q5 0 13 9q6 7 7 7v0q12 -18 12 -41q0 -36 -25 -65t-65 -29q-28 0 -41 8q-16 0 -16 12q0 8 41 8q74 0 74 91zM1712 3003q127 11 127 135q0 135 -127 135q-160 0 -160 -135q0 -57 47 -96t113 -39zM1695 2896
q-96 0 -170.5 70.5t-74.5 163.5q0 102 74 180t179 78q108 0 183.5 -75.5t75.5 -182.5q0 -98 -81.5 -166t-185.5 -68zM1753 3171q0 32 8 32q13 0 24 -16q9 -22 9 -37q0 -39 -23.5 -68.5t-62.5 -29.5q-29 0 -45 8q-17 0 -17 8q0 21 41 21q74 0 74 57q0 7 -8 25z" />
    <glyph glyph-name="otilde" unicode="&#xf5;" horiz-adv-x="3281" 
d="M922 1954q0 -33 -73.5 -149.5t-121 -225t-47.5 -240.5q0 -208 135 -397q192 -270 545 -270q109 0 211 31t187.5 91t146.5 148q147 219 147 438q0 286 -237 484q-207 180 -426 180q-67 0 -126 -12t-133.5 -34.5t-119.5 -33t-88 -10.5zM586 2359q0 227 260.5 326.5
t587.5 99.5q252 0 493.5 -106t436 -300t308 -455.5t113.5 -563.5q-3 -403 -158 -685.5t-387.5 -445.5t-467.5 -233t-404 -70q-298 3 -564 118.5t-464 309.5t-308.5 434t-113.5 486q0 181 41.5 368.5t127.5 351t212 261.5t287 104zM614 2241q-136 -3 -257.5 -124.5t-196 -324
t-74.5 -428.5q0 -214 70 -422t228.5 -393.5t406.5 -315.5q250 -135 552 -135q313 0 600.5 151.5t472.5 448t201 703.5q0 215 -92 430t-261 391t-396.5 279.5t-487.5 103.5q-240 0 -483 -94q-102 -37 -151.5 -98t-49.5 -127q0 -79 59 -136t146 -57q58 0 115 29q186 86 364 86
q220 0 412.5 -110.5t308 -301t115.5 -416.5q0 -100 -25 -196q-82 -323 -320 -501.5t-528 -178.5q-186 0 -357.5 80t-289.5 231q-192 254 -192 520q0 152 52.5 282.5t116.5 223.5l97 141q12 25 12 41q0 24 -12.5 41t-36 36t-37.5 34q-6 8 -26.5 57.5t-55.5 49.5zM791 2200
q45 -58 106 -58q33 0 143 49q154 62 332 62q397 0 692 -332q8 -8 17 -8q33 0 33 53q-321 356 -730 356q-185 0 -368 -73q-89 -41 -115 -41q-40 0 -70 41q-13 20 -28 20q-25 0 -25 -33q0 -13 13 -36zM2478 1577q0 22 12.5 39.5t24.5 17.5q16 0 29 -41q12 -97 12 -188
q0 -273 -99.5 -502t-274.5 -398t-395 -259t-448 -90q-217 0 -417 86q-45 16 -45 41q0 20 32 20q5 0 29 -8q165 -70 377 -70q204 0 412 70.5t379 215t275.5 373.5t104.5 533q0 54 -8 160zM745 598q13 -12 37 -12q25 0 25 28q0 17 -8 25q-336 285 -336 696q0 178 65.5 345.5
t167.5 273.5q17 16 17 37q0 28 -21 28q-19 0 -53 -45q-238 -284 -238 -635q0 -215 92 -411.5t252 -329.5zM897 3249q127 86 291 86q72 0 172 -21q135 -33 176 -33q59 0 144 33q32 16 73 16q77 0 131 -58.5t54 -137.5q0 -109 -115 -172q-121 -78 -274 -78q-101 0 -238 37
q-41 12 -102 12q-66 -5 -160 -37q-31 -12 -57 -12q-73 0 -129 63.5t-56 141.5q0 103 90 160zM955 3138q-29 -11 -29 -49q0 -29 21.5 -55.5t48.5 -26.5q16 0 28 8q112 49 185 49q61 0 135 -24q90 -33 188 -33q124 0 238 57q49 31 49 74q0 26 -20.5 43.5t-53.5 17.5
q-15 0 -41 -8q-100 -28 -176 -28t-176 28q-46 21 -119 21q-130 0 -278 -74zM1266 3154q-91 0 -225 -41q-15 0 -32 -12t-17 -29q-6 -20 -21 -20q-16 0 -16 29q9 48 61 65q134 45 250 45q33 0 33 -16q0 -21 -33 -21zM1504 3064q130 0 217 41q29 10 41 41q0 12 12 12t12 -12
q8 -8 8 -16q0 -29 -41 -49q-102 -50 -258 -50q-24 0 -24 13q0 20 33 20z" />
    <glyph glyph-name="uacute" unicode="&#xfa;" horiz-adv-x="1929" 
d="M1442 2290v-1483q0 -166 -94.5 -322t-259 -253t-367.5 -97q-50 0 -152 17q-49 11 -49 36q0 21 49 21q55 -16 140 -16q158 0 314.5 73.5t258.5 217t102 339.5v1467q0 24 25 24q33 0 33 -24zM-184 2466q0 161 110 250.5t262 89.5q148 0 256.5 -91t108.5 -257v-1500
q0 -128 55.5 -199t132.5 -71q66 0 115 57t49 160v1528q0 174 110.5 273.5t258.5 99.5q152 0 266.5 -107t114.5 -299v-1626q0 -210 -126 -404t-338.5 -313t-453.5 -123q-261 0 -472.5 126.5t-330 331.5t-118.5 423v1651zM279 2367q0 54 36 54q29 0 29 -54v-1425
q0 -254 119 -373q8 -8 8 -24q0 -33 -29 -33q-21 0 -32 16q-75 73 -103 157.5t-28 244.5v1437zM-16 2408v-1593q0 -181 98.5 -348.5t272.5 -270t390 -102.5q140 7 273.5 65t238 157t163.5 225.5t59 265.5v1585q0 125 -59 193.5t-142 68.5t-144 -72.5t-61 -205.5v-1471
q0 -196 -101.5 -309t-238.5 -113q-139 0 -239.5 113.5t-100.5 316.5v1512q0 111 -58 172t-138 61q-87 0 -150 -67t-63 -183zM660 3334l311 328q95 106 225 106q107 0 185 -75t78 -178q0 -100 -82 -189l-344 -369q-69 -73 -172 -73q-108 0 -197.5 79t-89.5 183q0 103 86 188z
M770 3232q-32 -33 -32 -82q3 -44 34.5 -75.5t75.5 -31.5q51 0 90 46l320 327q37 37 37 86q0 47 -34 79t-77 32q-41 0 -78 -37zM897 3183l267 270q32 40 32 57q0 15 -12 33q0 37 29 37q21 0 37 -20q12 -19 12 -54t-12 -53l-303 -311q-19 -25 -37 -25q-25 0 -25 29q0 25 12 37
z" />
    <glyph glyph-name="ugrave" unicode="&#xf9;" horiz-adv-x="1929" 
d="M1442 2290v-1483q0 -166 -94.5 -322t-259 -253t-367.5 -97q-50 0 -152 17q-49 11 -49 36q0 21 49 21q55 -16 140 -16q158 0 314.5 73.5t258.5 217t102 339.5v1467q0 24 25 24q33 0 33 -24zM-184 2466q0 161 110 250.5t262 89.5q148 0 256.5 -91t108.5 -257v-1500
q0 -128 55.5 -199t132.5 -71q66 0 115 57t49 160v1528q0 174 110.5 273.5t258.5 99.5q152 0 266.5 -107t114.5 -299v-1626q0 -210 -126 -404t-338.5 -313t-453.5 -123q-261 0 -472.5 126.5t-330 331.5t-118.5 423v1651zM279 2367q0 54 36 54q29 0 29 -54v-1425
q0 -254 119 -373q8 -8 8 -24q0 -33 -29 -33q-21 0 -32 16q-75 73 -103 157.5t-28 244.5v1437zM-16 2408v-1593q0 -181 98.5 -348.5t272.5 -270t390 -102.5q140 7 273.5 65t238 157t163.5 225.5t59 265.5v1585q0 125 -59 193.5t-142 68.5t-144 -72.5t-61 -205.5v-1471
q0 -196 -101.5 -309t-238.5 -113q-139 0 -239.5 113.5t-100.5 316.5v1512q0 111 -58 172t-138 61q-87 0 -150 -67t-63 -183zM873 3687l328 -312q106 -106 106 -225q0 -106 -79 -186t-183 -80q-100 0 -188 82l-369 344q-74 63 -74 168q0 110 81 202.5t190 92.5q101 0 188 -86
zM766 3576q-32 33 -77 33q-46 -3 -78.5 -35.5t-32.5 -79.5q0 -49 45 -94l328 -311q40 -41 90 -41q43 0 74.5 33t31.5 77q0 46 -37 82zM709 3445l283 -262q30 -37 53 -37q11 0 25 12q40 0 40 -20q0 -23 -24 -41q-18 -12 -49 -12q-33 0 -45 12l-312 295q-28 17 -28 41t28 24
q17 0 29 -12z" />
    <glyph glyph-name="ucircumflex" unicode="&#xfb;" horiz-adv-x="1929" 
d="M1442 2290v-1483q0 -166 -94.5 -322t-259 -253t-367.5 -97q-50 0 -152 17q-49 11 -49 36q0 21 49 21q55 -16 140 -16q158 0 314.5 73.5t258.5 217t102 339.5v1467q0 24 25 24q33 0 33 -24zM-184 2466q0 161 110 250.5t262 89.5q148 0 256.5 -91t108.5 -257v-1500
q0 -128 55.5 -199t132.5 -71q66 0 115 57t49 160v1528q0 174 110.5 273.5t258.5 99.5q152 0 266.5 -107t114.5 -299v-1626q0 -210 -126 -404t-338.5 -313t-453.5 -123q-261 0 -472.5 126.5t-330 331.5t-118.5 423v1651zM279 2367q0 54 36 54q29 0 29 -54v-1425
q0 -254 119 -373q8 -8 8 -24q0 -33 -29 -33q-21 0 -32 16q-75 73 -103 157.5t-28 244.5v1437zM-16 2408v-1593q0 -181 98.5 -348.5t272.5 -270t390 -102.5q140 7 273.5 65t238 157t163.5 225.5t59 265.5v1585q0 125 -59 193.5t-142 68.5t-144 -72.5t-61 -205.5v-1471
q0 -196 -101.5 -309t-238.5 -113q-139 0 -239.5 113.5t-100.5 316.5v1512q0 111 -58 172t-138 61q-87 0 -150 -67t-63 -183zM791 3560q57 49 143 49q82 0 139 -49l303 -304q66 -65 66 -143q0 -86 -72 -155.5t-157 -69.5q-68 0 -123 49l-115 111q-30 24 -45 24q-18 0 -49 -33
l-90 -90q-51 -57 -135 -57q-85 0 -153.5 61t-68.5 148q0 104 95 192zM590 3183q-25 -26 -25 -62q0 -38 27.5 -68t67.5 -30q37 0 69 33l168 168q23 28 29 28q12 0 33 -20l200 -193q31 -24 62 -24q37 0 65.5 30t28.5 68q0 39 -29 61l-270 267q-66 53 -86 53q-42 0 -90 -53z
M639 3056q0 10 1.5 27t6.5 22q33 0 41 8l144 143q8 5 20 5q25 0 25 -13q0 -12 -13 -24l-151 -144q-25 -24 -74 -24zM991 3367q-12 12 -12 25q0 20 17 20q8 0 20 -12l250 -250q12 -8 12 -70q0 -16 -24 -16q-21 0 -21 16q0 33 -8 45z" />
    <glyph glyph-name="udieresis" unicode="&#xfc;" horiz-adv-x="1929" 
d="M1442 2290v-1483q0 -166 -94.5 -322t-259 -253t-367.5 -97q-50 0 -152 17q-49 11 -49 36q0 21 49 21q55 -16 140 -16q158 0 314.5 73.5t258.5 217t102 339.5v1467q0 24 25 24q33 0 33 -24zM-184 2466q0 161 110 250.5t262 89.5q148 0 256.5 -91t108.5 -257v-1500
q0 -128 55.5 -199t132.5 -71q66 0 115 57t49 160v1528q0 174 110.5 273.5t258.5 99.5q152 0 266.5 -107t114.5 -299v-1626q0 -210 -126 -404t-338.5 -313t-453.5 -123q-261 0 -472.5 126.5t-330 331.5t-118.5 423v1651zM279 2367q0 54 36 54q29 0 29 -54v-1425
q0 -254 119 -373q8 -8 8 -24q0 -33 -29 -33q-21 0 -32 16q-75 73 -103 157.5t-28 244.5v1437zM-16 2408v-1593q0 -181 98.5 -348.5t272.5 -270t390 -102.5q140 7 273.5 65t238 157t163.5 225.5t59 265.5v1585q0 125 -59 193.5t-142 68.5t-144 -72.5t-61 -205.5v-1471
q0 -196 -101.5 -309t-238.5 -113q-139 0 -239.5 113.5t-100.5 316.5v1512q0 111 -58 172t-138 61q-87 0 -150 -67t-63 -183zM586 3003q135 13 135 135q0 59 -36 101t-99 42q-152 0 -152 -135q0 -143 152 -143zM586 2892q-102 0 -180.5 72t-78.5 166q0 103 73 180.5t177 77.5
t179 -78t75 -172q-6 -91 -80 -168.5t-165 -77.5zM635 3171q5 0 13 9q6 7 7 7v0q12 -18 12 -41q0 -36 -25 -65t-65 -29q-28 0 -41 8q-16 0 -16 12q0 8 41 8q74 0 74 91zM1233 3003q127 11 127 135q0 135 -127 135q-160 0 -160 -135q0 -57 47 -96t113 -39zM1216 2896
q-96 0 -170.5 70.5t-74.5 163.5q0 102 74 180t179 78q108 0 183.5 -75.5t75.5 -182.5q0 -98 -81.5 -166t-185.5 -68zM1274 3171q0 32 8 32q13 0 24 -16q9 -22 9 -37q0 -39 -23.5 -68.5t-62.5 -29.5q-29 0 -45 8q-17 0 -17 8q0 21 41 21q74 0 74 57q0 7 -8 25z" />
    <glyph glyph-name="dagger" unicode="&#x2020;" horiz-adv-x="2032" 
d="M1303 2175h73q180 0 282.5 -114.5t102.5 -266.5t-104 -264.5t-289 -112.5h-57v-1962q0 -183 -119 -286t-279 -103q-154 0 -265 96.5t-111 268.5v1986h-66q-180 6 -282.5 119.5t-102.5 261.5q0 153 104 265t289 112h82v344q0 197 112 307.5t261 110.5t259 -110t110 -308
v-344zM1143 2007v496q0 119 -61 186.5t-144 67.5q-87 0 -148 -69.5t-61 -193.5v-487h-233q-99 0 -154 -62t-55 -147q0 -90 61 -155.5t172 -65.5h201v-2089q0 -106 61 -167.5t148 -61.5q82 0 143.5 61.5t61.5 167.5v2097h225q96 0 150.5 66.5t54.5 154.5q0 85 -49 143
t-140 58h-233zM1081 1569l-8 -2081q0 -133 -115 -168q-53 0 -53 33q0 29 37 41q66 27 66 135v2023q0 41 41 41q32 0 32 -24zM1384 1647h-864q-28 0 -28 32q0 33 20 33h848q74 0 90 49q11 45 37 45q33 0 33 -45q-12 -50 -49 -82t-87 -32zM1073 2486v-463q0 -41 -33 -41
q-32 0 -32 41v463q0 62 28 62q37 0 37 -62z" />
    <glyph glyph-name="cent" unicode="&#xa2;" horiz-adv-x="2634" 
d="M1630 2159q8 32 8 49q0 72 -50 118t-118 46q-117 0 -151 -123l-623 -2265q-8 -50 -8 -66q0 -73 46.5 -118.5t109.5 -45.5q124 0 172 160zM799 -8q-14 -49 -33 -49q-12 0 -12 65l614 2200q20 110 111 110q32 -5 32 -20q0 -8 -8.5 -16.5t-15.5 -8.5q-8 8 -21 8
q-34 0 -57 -81zM1008 1585q-143 -40 -240 -142t-137 -235q-25 -102 -25 -172q0 -221 156 -364zM1630 1962l-61 -233q0 -111 24 -160q75 0 138 59t63 137q0 118 -164 197zM1135 66q116 6 171 10.5t140 24.5t148.5 63.5t84.5 114.5q9 24 9 65q0 111 -132 111q-86 0 -229 -54
q-41 -15 -97 -85t-79 -164q410 22 410 151q6 70 24 70q37 0 37 -70q-3 -107 -139 -158t-340 -51zM782 471q-311 218 -311 565q0 170 82.5 327t232 260.5t340.5 121.5q50 148 50 213q0 49 -30 69.5t-122 20.5q-284 -49 -483.5 -201.5t-296.5 -366t-97 -444.5
q0 -255 113.5 -476.5t317.5 -342.5q36 -24 65 -24q47 0 77 67.5t62 210.5zM672 455q-291 249 -291 602q0 181 84 344.5t240.5 272.5t359.5 132q25 0 25 -16q0 -23 -58 -29q-187 -32 -324 -136.5t-209.5 -253.5t-72.5 -314q0 -334 270 -561q21 -16 21 -29q0 -21 -21 -21
q-16 0 -24 9zM1872 336q0 -402 -688 -402q-38 -154 -137 -236.5t-211 -82.5q-117 0 -200 80t-83 215q0 69 25 147q-275 154 -418.5 414t-143.5 561q0 213 75 415.5t222 368t364 267.5t490 117q30 151 118 229t198 78q116 0 201 -83t85 -224q0 -72 -24 -152q184 -95 184 -266
q0 -86 -45.5 -171t-116.5 -137.5t-141 -52.5q-30 0 -74 21l-233 -889q146 53 266 53q134 0 209 -69.5t78 -200.5z" />
    <glyph glyph-name="sterling" unicode="&#xa3;" horiz-adv-x="2535" 
d="M225 1159q-103 55 -160 148.5t-57 195.5q0 105 62 194t180 134v209q0 271 121 445.5t319 253.5t428 79q163 -7 335.5 -77t307.5 -276.5t135 -576.5v-266q0 -195 -99.5 -341t-342.5 -146h-471q0 -80 -6 -147.5t-14.5 -130.5t-12.5 -112h688q189 0 289.5 -105t100.5 -255
q0 -148 -101 -262.5t-272 -114.5h-1229q-189 0 -322 96.5t-133 264.5q0 181 172 405q82 122 82 385zM426 295h1196q123 0 131 74q6 28 25 28q24 0 24 -37q0 -7 -8 -41q-12 -41 -55.5 -63.5t-91.5 -22.5h-1246q-24 0 -24 29q0 33 49 33zM950 1855h226q0 250 -111 250
q-115 0 -115 -250zM1511 2367q-8 13 -8 29q7 21 17 21q19 0 32 -25q127 -209 127 -598v-209q0 -123 -69.5 -178t-155.5 -55h-1016q-83 0 -119.5 22.5t-60.5 75.5q-8 12 -8 29q0 24 24 24q9 0 13 -8q29 -86 151 -86h1016q54 0 115 45.5t61 130.5v209q0 179 -22.5 315
t-96.5 258zM401 1135q-13 -332 -200 -590q-54 -76 -54 -164q0 -205 291 -205h1192q111 0 174.5 61t63.5 144t-65 144t-181 61h-893q79 198 94 549h-78q9 -45 9 -136q0 -193 -82 -376q-13 -21 -37 -21q-21 0 -21 45q82 195 82 373q0 33 -8 115h-287zM410 1855h295
q0 228 74.5 351t269.5 145q45 -6 45 -20q0 -25 -45 -25q-118 -7 -202.5 -94t-84.5 -250q0 -33 8 -107h53q-8 66 -8 91q0 144 76 220t190 83q234 0 234 -299q0 -16 -12 -127q-15 -119 -185 -119h-692q-113 0 -175.5 -60.5t-62.5 -144.5t60.5 -148.5t161.5 -64.5h942
q174 0 272.5 71.5t104.5 203.5q4 57 4 168q0 349 -67 542t-196 272.5t-344 102.5q-64 8 -98 8q-160 0 -303 -71t-233.5 -224t-90.5 -381q0 -31 9 -123z" />
    <glyph glyph-name="section" unicode="&#xa7;" horiz-adv-x="2503" 
d="M279 1679q-148 218 -148 459q0 223 127 414q109 181 305 277t416 96q97 0 229 -29q108 -25 221 -83.5t190 -147t77 -195.5q0 -77 -49 -164q-106 -184 -308 -184q-148 0 -290 86q-54 33 -95 33q-42 0 -68 -25t-26 -62q0 -62 70 -98q101 -61 306 -138t300 -132
q188 -115 280.5 -298t92.5 -390q0 -213 -85.5 -405.5t-230.5 -299.5q172 -241 172 -487q0 -215 -127.5 -392t-334 -277.5t-426.5 -100.5q-400 0 -635 311q-58 81 -58 176q0 89 47.5 169.5t130 129.5t179.5 49q106 0 213 -65q93 -53 172 -53q54 0 86 22.5t32 58.5
q0 97 -180 132q-71 13 -150.5 42.5t-155.5 63l-157 70.5q-326 152 -417 422q-54 167 -54 331q0 136 36 264.5t116 238.5t197 181zM377 1577q-266 -184 -266 -557q0 -178 72 -334.5t194 -230.5q32 -19 159 -70.5l256 -102l207 -81.5q213 -85 213 -246q0 -108 -94.5 -193.5
t-220.5 -85.5q-109 0 -201 74q-68 57 -143 57q-84 0 -146.5 -57.5t-62.5 -118.5q0 -8 8 -32q141 -287 537 -287q77 0 143 8q107 13 239.5 99.5t225 223.5t92.5 291q0 251 -254 476q192 92 280 221.5t114 318.5q12 73 12 148q0 447 -455 622q-62 29 -212 83t-234 102
q-156 95 -156 254q0 98 74.5 165.5t216.5 67.5q89 -13 282 -102q33 -17 74 -17q76 0 136.5 52.5t60.5 128.5q0 112 -160 208q-159 99 -377 99q-195 0 -366 -88t-256 -256q-74 -141 -74 -295q0 -246 192 -410q45 0 45 4q0 9 -12 21l-49 49q0 49 33 49q12 0 24 -12
q107 -113 232 -182.5t313 -129.5q29 -11 29 -32q0 -37 -37 -37q-33 9 -79 25t-119.5 44.5t-84.5 32.5q0 -37 9 -41l196 -68.5t138.5 -63.5t141 -103.5t76.5 -141.5q13 -46 13 -90q0 -158 -126.5 -253.5t-279.5 -102.5q-157 0 -295.5 79.5t-138.5 239.5q0 89 53 201
q17 42 61.5 107t57.5 102q17 62 17 82q0 66 -38 111t-106 45q-78 0 -184 -70zM639 2175q-6 -70 -29 -70q-13 0 -27 20.5t-14 49.5q16 146 132.5 237t261.5 91q62 0 110 -17q44 -13 148 -53.5t131 -40.5q38 0 49 33q8 8 24 8q33 0 33 -20q0 -5 -8 -21q-25 -65 -107 -65
q-51 4 -137.5 39.5t-148 55t-152.5 19.5q-68 -4 -129 -49.5t-99 -109t-38 -107.5zM1319 545q144 50 225.5 201.5t81.5 334.5q0 140 -48.5 258.5t-143.5 180.5q-25 12 -25 28q0 29 37 29q8 0 24 -8q106 -63 164 -195.5t58 -292.5q0 -208 -100 -380t-289 -230q-46 0 -46 21
q0 30 62 53zM606 729q21 -21 21 -41q0 -29 -21 -29q-20 0 -37 21q-94 73 -126.5 159t-32.5 226q0 54 23.5 110.5t67.5 136.5t64.5 125t20.5 83q0 45 16 45q36 0 53 -45q0 -69 -73 -197.5t-86 -163.5q-25 -66 -25 -151q0 -206 135 -279zM815 1303q-119 -150 -119 -271
q0 -94 78 -143q70 -45 172 -45q99 0 168.5 50t69.5 146q-5 106 -102 160t-267 103zM504 -352q-10 -21 -25 -21q-11 0 -22 12.5t-11 24.5q0 7 9 25q31 57 110 57q49 0 90 -25q152 -98 279 -98q136 0 223.5 94t91.5 172q6 54 33 54q13 0 25 -17.5t12 -44.5
q-13 -121 -120.5 -220t-260.5 -99t-299 102q-33 25 -70 25q-45 0 -65 -41z" />
    <glyph glyph-name="bullet" unicode="&#x2022;" horiz-adv-x="1786" 
d="M905 1520q79 0 111 -86q0 -45 -27 -84t-76 -39q-54 0 -84 30t-30 76q0 38 33.5 67t72.5 36zM913 905q139 0 259.5 74t191 197t70.5 258q0 137 -68.5 250.5t-188.5 179t-264 65.5q-143 0 -266.5 -66t-196.5 -179.5t-73 -249.5q0 -135 73.5 -257.5t197.5 -197t265 -74.5z
M913 639q-215 0 -401 103.5t-293.5 279.5t-107.5 379q0 207 106.5 392.5t289.5 296t398 110.5q218 0 402 -103t290.5 -280t106.5 -383q0 -211 -105 -394.5t-287.5 -292t-398.5 -108.5zM1233 1536q-12 24 -12 45q0 53 49 53q32 0 49 -41q33 -84 33 -172q0 -121 -63 -219.5
t-165 -154.5t-211 -56q-97 0 -184 49q-53 30 -53 74q0 37 41 37q25 0 57 -16q67 -37 139 -37q134 0 239 97.5t105 225.5q0 59 -24 115z" />
    <glyph glyph-name="paragraph" unicode="&#xb6;" horiz-adv-x="3006" 
d="M1655 1106q40 -11 69 -92t29 -150v-504q0 -140 -56.5 -240.5t-147 -151t-193.5 -50.5q-148 0 -255 102t-110 283v168q-6 123 -35.5 164t-140.5 70q-285 64 -483 220t-297.5 367.5t-108.5 444.5q0 400 158 619t366 291.5t406 72.5h1425q199 0 306 -43t144.5 -126.5
t37.5 -223.5l8 -1967q0 -191 -111 -298t-266 -107q-160 0 -280.5 117.5t-120.5 328.5v1536h-254v-528q0 -81 -26.5 -169t-63.5 -134zM631 2134q-53 0 -53 33q0 8 8 16q113 82 319 82q224 0 296.5 -73t72.5 -210v-581q0 -201 45 -225q37 -20 37 -41q0 -29 -37 -29
q-56 0 -91.5 88.5t-35.5 198.5v606q0 172 -135 192q-53 9 -139 9q-147 0 -287 -66zM1343 135q-81 0 -103.5 78.5t-22.5 196.5q0 209 -55.5 315t-119.5 137t-178 60q-141 31 -268.5 104.5t-227 184.5t-158 255t-58.5 308q0 140 49 299q12 36 45 36q24 0 24 -61
q-37 -139 -37 -258q0 -141 46.5 -271.5t135.5 -238.5t208 -180.5t266 -108.5q210 -48 305.5 -168.5t95.5 -351.5q0 -61 -4 -94q0 -52 16.5 -110t32.5 -58q54 -6 54 -41q0 -33 -46 -33zM991 1962q0 16 -90 16q-205 0 -205 -155q0 -117 31 -190t88 -124.5t176 -132.5v586z
M1561 1360v770h614v-1737q0 -121 63.5 -193.5t149.5 -72.5q90 0 154 76.5t67 222.5v1884q-5 150 -80.5 192t-247.5 42h-954q-441 0 -664 -38t-325 -125t-170 -259q-62 -156 -62 -328q0 -205 84.5 -396t261 -333.5t437.5 -200.5q154 -34 212 -132t58 -269l-8 -176
q0 -98 54.5 -149.5t137.5 -51.5q93 0 167.5 61.5t74.5 163.5v369q0 303 -74 336q-49 -25 -131 -25q-135 0 -279 85t-188 157q-135 74 -219 152t-124.5 170.5t-49.5 213.5q0 164 78 266t299 107q115 0 165.5 -15.5t69.5 -71.5t19 -183v-496q0 -156 58 -241.5t139 -85.5
q84 0 148.5 85.5t64.5 225.5zM2232 426v1749h-286q-37 0 -37 37q0 15 9 30t19 15h279q48 0 71 -10.5t23 -55.5v-1773q0 -45 -37 -45q-41 0 -41 53z" />
    <glyph glyph-name="germandbls" unicode="&#xdf;" horiz-adv-x="2494" 
d="M1151 86q200 0 356 117.5t240 309.5t84 405q0 228 -104.5 427t-317.5 318q-27 16 -70 16q-78 0 -147.5 -52.5t-69.5 -135.5q0 -120 164 -266q127 -110 127 -299q0 -158 -90.5 -280.5t-232.5 -125.5q-53 0 -94.5 -68.5t-41.5 -148.5q0 -183 197 -217zM594 336v594
q-15 0 -66 12v-631q0 -76 -35 -113.5t-79 -37.5q-49 0 -49 33q0 12 12 24t40 21t41 24.5t13 56.5v664q-94 82 -94 209q0 128 102 217v672q0 75 64.5 137.5t136.5 62.5h278q62 0 62 -32q0 -33 -62 -33h-262q-58 0 -100.5 -55.5t-42.5 -145.5v-561l45 41v512q0 52 30 102
t109 50h168q156 0 156 -131q0 -118 -130.5 -294t-344.5 -325q-156 -106 -156 -229q0 -63 46 -115.5t110 -73.5q40 -8 61 -8q104 0 196.5 69.5t254.5 221.5q0 69 -8 69q-148 -141 -239 -209.5t-212 -84.5q-74 0 -111 49q0 61 29 61q9 0 21 -16q21 -33 69 -33
q127 35 240.5 125t177.5 235q0 104 60.5 175t140.5 84q110 163 110 339q0 230 -168 340q-12 13 -12 25q0 33 61 33q189 -142 189 -377q0 -168 -103 -344q50 0 74 -8q74 166 74 336q0 137 -49 250t-144 179t-225 66h-663q-242 0 -242 -168v-2081q0 -115 66 -170t151 -55
q70 8 139.5 70t69.5 172zM754 1982v-237q143 101 143 237q0 33 -61 33q-28 0 -55 -10t-27 -23zM1454 1208q0 -49 -45 -49q-14 32 -34.5 58.5t-49 55t-43.5 46.5q-8 8 -8 24q7 37 29 37q12 0 24 -12q105 -125 127 -160zM1090 303q26 -74 86 -86q112 0 239.5 89.5t214 246
t86.5 344.5q0 228 -139 455q-16 21 -16 41q0 24 28 24q33 0 49 -33q136 -222 136 -458q0 -205 -92 -384t-235 -284.5t-280 -105.5q-111 29 -143 118q-8 26 -8 33q0 41 28 41q22 0 46 -41zM1159 -74q-175 10 -271.5 125.5t-96.5 267.5q0 133 72 235.5t202 125.5q86 19 133 82
t47 143q0 107 -86 193q-190 -229 -397 -250v-430q0 -492 -393 -492q-167 0 -264 93t-97 243v2163q0 85 50 156.5t130.5 113t163.5 41.5l738 -8q173 0 304 -86t202 -233t71 -324q0 -178 -74 -356q141 -97 234 -227t136.5 -277.5t43.5 -298.5q0 -252 -108.5 -484t-303.5 -374
t-436 -142z" />
    </font>
</defs>
</svg>
