<?xml version="1.0" encoding="utf-8"?>
<!-- Generator: Adobe Illustrator 16.0.0, SVG Export Plug-In . SVG Version: 6.00 Build 0)  -->
<!DOCTYPE svg PUBLIC "-//W3C//DTD SVG 1.1//EN" "http://www.w3.org/Graphics/SVG/1.1/DTD/svg11.dtd">
<svg version="1.1" id="Режим_ізоляції"
	 xmlns="http://www.w3.org/2000/svg" xmlns:xlink="http://www.w3.org/1999/xlink" x="0px" y="0px" width="37.995px"
	 height="30.88px" viewBox="0 0 37.995 30.88" enable-background="new 0 0 37.995 30.88" xml:space="preserve">
<g>
	<path fill="#FFFFFF" d="M37.995,3.655c-1.398,0.621-2.901,1.04-4.478,1.228c1.609-0.965,2.847-2.492,3.428-4.313
		c-1.504,0.893-3.172,1.543-4.949,1.893C30.573,0.946,28.546,0,26.304,0c-4.306,0-7.796,3.491-7.796,7.796
		c0,0.612,0.069,1.206,0.201,1.776C12.23,9.248,6.487,6.145,2.641,1.426C1.97,2.579,1.585,3.917,1.585,5.347
		c0,2.704,1.526,5.092,3.617,6.488c-1.277-0.04-3.38-0.392-3.38-0.975v0.098c0,3.776,2.538,6.928,6.103,7.645
		c-0.653,0.177-1.419,0.274-2.129,0.274c-0.501,0-1.028-0.05-1.503-0.142c0.992,3.098,3.852,5.351,7.262,5.416
		c-2.667,2.09-6.037,3.337-9.692,3.337c-0.628,0-1.253-0.039-1.863-0.109c3.45,2.21,7.546,3.501,11.95,3.501
		c14.339,0,22.179-11.877,22.179-22.18c0-0.337-0.009-0.673-0.022-1.01C35.627,6.592,36.947,5.219,37.995,3.655z"/>
</g>
</svg>
